<?xml version="1.0" encoding="UTF-8"?>
<svg width="60" height="60" xmlns="http://www.w3.org/2000/svg">
	<defs>
		<clipPath id="circle">
			<circle cx="30" cy="30" r="29" />
		</clipPath>
	</defs>
	<circle cx="30" cy="30" r="29" stroke="none" fill="#aaf" />
	<path d="M 17,59 C 18,58 18,55 19,54 C 19,54 20,54 20,53 C 21,52 21,51 21,49 C 23,48 24,48 24,48 C 25,47 24,46 25,45 C 25,43 26,42 26,41 C 25,40 23,39 20,37 C 20,37 19,35 18,34 C 17,34 14,32 13,32 C 12,32 12,34 12,34 C 10,34 9,34 9,32 C 9,32 9,31 9,31 C 8,30 8,29 7,29 C 7,29 6,30 6,30 C 4,29 4,28 4,26 C 6,25 7,24 8,24 C 9,24 10,26 10,26 C 12,26 10,25 10,24 C 12,23 13,22 14,20 C 14,19 15,19 17,18 C 17,18 19,18 19,17 C 19,17 17,17 17,17 C 17,16 20,16 21,16 C 21,16 20,14 20,13 C 20,13 20,12 20,12 C 19,11 18,11 17,11 C 15,11 15,14 14,14 C 13,14 10,13 12,12 C 12,11 14,9 15,8 C 15,8 14,7 14,7 C 13,7 10,6 9,7 C 6,13 0,20 0,26 C -2,29 4,30 7,32 C 8,34 10,34 10,35 C 12,36 9,39 9,41 C 10,43 13,45 14,47 C 15,51 13,54 14,58 C 14,59 17,59 17,59 z M 25,0 C 23,0 23,3 23,5 C 23,6 25,6 25,7 C 25,8 23,9 25,11 C 25,12 26,11 27,9 C 29,8 31,8 32,7 C 33,7 33,5 32,3 C 31,2 26,0 25,0 z M 60,24 C 60,25 60,26 59,26 C 58,28 54,24 54,25 C 53,28 58,26 58,29 C 58,30 55,32 54,32 C 52,31 49,25 49,25 C 49,25 50,31 52,32 C 53,34 55,32 55,32 C 55,34 53,37 52,40 C 52,41 52,43 52,45 C 52,46 50,47 49,48 C 49,51 44,55 43,54 C 43,52 42,49 42,47 C 42,43 42,39 41,36 C 40,34 38,36 36,36 C 33,36 31,32 31,30 C 31,28 33,24 36,23 C 37,22 40,22 41,22 C 42,22 42,24 43,24 C 44,24 47,24 48,24 C 48,24 49,23 49,23 C 49,22 47,22 46,19 C 44,19 44,22 44,22 C 44,22 43,18 42,18 C 42,18 43,19 43,19 C 43,20 42,22 42,22 C 42,20 42,20 42,19 C 42,19 41,18 41,18 C 40,18 38,19 38,19 C 37,20 37,22 37,22 C 36,22 35,22 35,22 C 35,20 35,19 35,19 C 35,18 37,18 37,18 C 37,18 36,17 36,17 C 36,16 37,17 37,16 C 38,16 38,14 38,14 C 40,14 40,14 40,14 C 40,14 40,13 41,13 C 42,13 41,14 41,14 C 42,14 43,13 43,13 C 44,13 44,12 44,12 C 46,11 43,12 43,11 C 43,11 44,9 44,9 C 43,8 42,9 42,11 C 42,12 42,12 42,13 C 42,13 41,12 41,12 C 40,12 40,13 40,13 C 38,12 38,11 38,11 C 40,9 41,8 43,7 C 44,7 47,7 48,8 C 48,9 47,8 47,9 C 47,9 47,11 48,11 C 48,9 49,7 50,7 C 53,12 58,19 60,24 z M 37,12 C 37,12 36,12 36,13 C 36,14 36,16 36,16 C 37,16 37,16 38,16 C 38,16 38,14 38,14 C 38,13 37,12 37,12 z M 34,13 C 34,14 34,14 34,14 C 34,16 35,14 35,14 C 35,14 35,13 35,13 C 35,13 34,13 34,13 z M 32,9 C 32,9 32,9 32,9 C 32,11 32,11 32,11 C 33,11 33,9 33,9 C 33,9 33,9 33,8 C 33,8 32,9 32,9 z" stroke="none" fill="#080" clip-path="url(#circle)" />
	<path d="M 15,20 l 8,-8 v 4 h 20 v 8 h -20 v 4 z M 43,40 l -8,-8 v 4 h -20 v 8 h 20 v 4 z" stroke="none" fill="#f00" />
	<line x1="30" y1="30" x2="45" y2="30" stroke-width="4" stroke="#000" />
	<line x1="30" y1="30" x2="30" y2="10" stroke-width="2" stroke="#000" />
	<circle cx="30" cy="30" r="4" stroke="none" fill="#000" />
</svg>
