<?xml version="1.0" encoding="UTF-8" standalone="no"?>
<svg xmlns="http://www.w3.org/2000/svg" xmlns:svg="http://www.w3.org/2000/svg" xmlns:xlink="http://www.w3.org/1999/xlink" viewBox="50 0 880 520" width="100%" height="100%">
<!--Based on https://commons.wikimedia.org/wiki/File:World_map_-_low_resolution.svg
by Al MacDonald (@F1LT3R), Creative Commons Attribution-Share Alike 3.0 Unported-->
<defs>
<!--gmt(x) -> (9 - x) * 36deg, for dst add 12deg-->
<style>
#container {
	fill: #eee;
}
path {
	cursor: pointer;
}
.selected,
path:hover {
	stroke: black;
	z-index: 1; /*SVG 2, unsupported*/
}
.gmt12 {
	fill: hsl(252, 50%, 50%);
}
.gmt11 {
	fill: hsl(288, 50%, 50%);
}
.gmt10 {
	fill: hsl(324, 50%, 50%);
}
.gmt10.dst {
	fill: hsl(336, 50%, 50%);
}
.gmt9 {
	fill: hsl(0, 50%, 50%);
}
.gmt9.dst {
	fill: hsl(12, 50%, 50%);
}
.gmt8 {
	fill: hsl(36, 50%, 50%);
}
.gmt8.dst {
	fill: hsl(48, 50%, 50%);
}
.gmt7 {
	fill: hsl(72, 50%, 50%);
}
.gmt7.dst {
	fill: hsl(84, 50%, 50%);
}
.gmt6 {
	fill: hsl(108, 50%, 50%);
}
.gmt6.dst {
	fill: hsl(120, 50%, 50%);
}
.gmt5 {
	fill: hsl(144, 50%, 50%);
}
.gmt5.dst {
	fill: hsl(156, 50%, 50%);
}
.gmt4 {
	fill: hsl(180, 50%, 50%);
}
.gmt4.dst {
	fill: hsl(192, 50%, 50%);
}
.gmt3_30.dst {
	fill: hsl(210, 50%, 50%);
}
.gmt3 {
	fill: hsl(216, 50%, 50%);
}
.gmt2 {
fill: hsl(252, 50%, 50%);
}
.gmt2.dst {
	fill: hsl(264, 50%, 50%);
}
.gmt1 {
	fill: hsl(288, 50%, 50%);
}
.gmt1.dst {
	fill: hsl(300, 50%, 50%);
}
.gmt {
	fill: hsl(324, 50%, 50%);
}
.gmt.dst {
	fill: hsl(336, 50%, 50%);
}
.gmt-1 {
	fill: hsl(0, 50%, 50%);
}
.gmt-1.dst {
	fill: hsl(12, 50%, 50%);
}
.gmt-2 {
	fill: hsl(36, 50%, 50%);
}
.gmt-2.dst {
	fill: hsl(48, 50%, 50%);
}
.gmt-3 {
	fill: hsl(72, 50%, 50%);
}
.gmt-3_30 {
	fill: hsl(90, 50%, 50%);
}
.gmt-4 {
	fill: hsl(108, 50%, 50%);
}
.gmt-4_30 {
	fill: hsl(126, 50%, 50%);
}
.gmt-5 {
	fill: hsl(144, 50%, 50%);
}
.gmt-5_30 {
	fill: hsl(162, 50%, 50%);
}
.gmt-5_45 {
	fill: hsl(171, 50%, 50%);
}
.gmt-6 {
	fill: hsl(180, 50%, 50%);
}
.gmt-6_30 {
	fill: hsl(198, 50%, 50%);
}
.gmt-7 {
	fill: hsl(216, 50%, 50%);
}
.gmt-8 {
	fill: hsl(252, 50%, 50%);
}
.gmt-8_45 {
	fill: hsl(279, 50%, 50%);
}
.gmt-9 {
	fill: hsl(288, 50%, 50%);
}
.gmt-9_30 {
	fill: hsl(306, 50%, 50%);
}
.gmt-9_30.dst {
	fill: hsl(318, 50%, 50%);
}
.gmt-10 {
	fill: hsl(324, 50%, 50%);
}
.gmt-10.dst {
	fill: hsl(336, 50%, 50%);
}
.gmt-11 {
	fill: hsl(0, 50%, 50%);
}
.gmt-12 {
	fill: hsl(36, 50%, 50%);
}
.gmt-12.dst {
	fill: hsl(48, 50%, 50%);
}
.gmt-13 {
	fill: hsl(72, 50%, 50%);
}
.gmt-14 {
	fill: hsl(108, 50%, 50%);
}
</style>
<script>
window.requestAnimationFrame = window.requestAnimationFrame || window.mozRequestAnimationFrame || window.webkitRequestAnimationFrame;
window.cancelAnimationFrame = window.cancelAnimationFrame || window.mozCancelAnimationFrame || window.webkitCancelAnimationFrame;
</script>
<script xlink:href="lib/panzoom.min.js"/>
<script>//<![CDATA[
(function () {
"use strict";

if (typeof window === 'undefined') {
	return;
}

var prevSelected;
function select (id) {
	if (prevSelected) {
		prevSelected.classList.remove('selected');
	}
	prevSelected = document.getElementById(id);
	if (prevSelected) {
		prevSelected.classList.add('selected');
	}
}

function onClick (el) {
	var id = el.id;
	if (id && id !== 'container' && window.parent) {
		parent.postMessage(id, '*');
	}
}

function initOnResize () {
	window.removeEventListener('resize', initOnResize);
	initPanzoom();
}

function initPanzoom () {
	panzoom(document.getElementById('container'), {
		realPinch: true,
		onTouch: function () {
			return false;
		}
	});
}

function init () {
	window.addEventListener('message', function (e) {
		select(e.data);
	});
	window.addEventListener('click', function (e) {
		onClick(e.target);
	});
	if (window.panzoom) {
		if (document.getElementById('container').getScreenCTM()) {
			initPanzoom();
		} else { //wait until visible
			window.addEventListener('resize', initOnResize);
		}
	}
}

window.addEventListener('load', init);
})();
//]]></script>
</defs><g id="container">
<path class="gmt10" id="Pacific/Honolulu" transform="translate(45 -50)" d="M10 248.7l-.14 2.33 2.04 1.37 1.22-1.09L10 248.7zm5.29 3.43l-1.9 1.37 1.63 2.05 1.9-1.64-1.63-1.78zm3.81 3.28l-1.63 2.19.54 1.37 2.31-1.09-1.22-2.47zm2.71 4.24l-.95 5.47.95 2.05 3.12-.96 1.63-2.74-3.4-3.15-1.35-.67z"/>
<path class="gmt10 dst" id="America/Adak" d="M59.983 110.19l-.067-3.419-4.326 1.039-.25 3.73 4.643-1.35z"/><!--faked coordinates-->
<path class="gmt9 dst" id="America/Anchorage" d="M61.293 106.44l.089 3.344 17.898-5.204 9.87-2.74 9.13-11.19 10.12-6.71-5.18 8.7 5.68.75 9.63-4.23 1.73 6.96 6.66 1.49 6.91 6.71.49 4.97-.99 1.24 1.23 4.72h1.73l.25-7.96h1.97l.49 19.64 4.94-4.23-3.46-20.39h-5.18l-5.68-7.21 27.89-47.25-27.64-21.63-30.85 5.97-1.23 9.45 6.66 3.98-2.47 6.47-8.87-7.2-8.39 1.99 1.73 9.45 9.13 2.49.49 1.99-13.57 4.23-7.65 12.68 2.71 13.43L82 94.13l3.46-3.23.99 1.99-4.2 4.97-16.29 7.46-4.667 1.12z"/>
<path class="gmt8 dst" id="America/Vancouver" d="M 135.84,101.68 L 131.58,95.84 L 153.75,94.74 L 152.54,106.79 L 162.97,123.93 L 162.95,159.72 L 148.97,157.42 L 147.8,152.63 L 141.32,146.61 L 141.32,141.59 L 142.32,137.07 L 141.82,134.56 L 139.33,132.05 L 138.83,128.03 L 145.31,123.51 L 141.32,101.93 L 135.84,101.68 z"/>
<path class="gmt8 dst" id="America/Los_Angeles" d="M146.05 224.49l1.76-12.94 1.51-.97 4.62-23.41-4.24-1.25 3.01-11.9 3.85-.32 4.13-5.28-.36-8.18-11.57-1.9-1 4.02-3.49-2.26h-1.74l-1 4.27-12.21 27.36 3.24 23.84 3.99 2.01.75 6.53 8.75.38z"/>
<path class="gmt8 dst" id="America/Tijuana" d="M142.19 240.29l4.08-.14-1.7-5.56.75-6.8 2.6.42.36-.74-3.23-2.43-7.56.39 4.7 14.86z"/>
<path class="gmt7" id="America/Whitehorse" d=" M 153.12,94.09 L 130.86,95.15 L 158.22,48.66 L 160.21,51.67 L 161.21,55.69 L 163.06,56.15 L 163.06,56.15 L 166.68,95.05 L 153.12,94.09 z"/>
<path class="gmt7" id="America/Dawson_Creek" d="M177.24 95.8l-14.37 27.96-10.22-16.78.47-12.89 24.12 1.71z"/>
<path class="gmt7" id="America/Phoenix" d="M153.49 230.13l7.24.63 2-19.64-13.03-2.86-.38 2.32-1.5.91-1.78 13.09 7.45 5.55z"/>
<path class="gmt7" id="America/Hermosillo" d="M154.91 249.57l5.35-17.69-7.27-.87-4.73-3.56-.35.79.91 2.07-1 5.79 7.09 13.47z"/>
<path class="gmt7 dst" id="America/Edmonton" d="M258.85 67.23l-4.43 29.27-17.76-6.23-5.09 12.18-30.74-3.93-18.47 64.46-19.41-3.32.07-36.2 14.22-27.66-10.65-.76-3.52-38.72 3.12.62 3.49-3.76 2.99 1.51 8.47.75 5.98-2.51 1 8.28h3.49V57.7l3.49.25 8.72 10.29 5.73 3.51-2.99 4.77 1.25 1.25L219 80.03l.25 5.02 2.99.5.75-7.53 4.73-1.25 3.49 5.27 7.47 3.51 3.74.75 2.49-3.01.25-4.77 4.48-2.76 1.49 4.02-3.99 7.03.5 3.51 2.24-3.51 4.48-4.02.25-5.27-2.49-4.02.75-3.26 5.98-3.01zm-55.12-31.34l.22 4.02-7.98 8.27 2 6.7 5.76-1.56 3.33-4.92 8.42-3.13 6.87-.45-5.32-5.81-2.66 2.01-2-.67-1.11-2.46-2.44-2.46-5.09.46zm18.85 12.07l-8.42 2.23-4.88 4.25.44 4.69 8.87 2.68-2 4.47-6.43-4.02-1.77 3.35 4.21 2.9-.22 4.69 6.43 1.79 7.76-.45 1.33-2.46 5.76 6.48 3.99-1.34.67-4.47 2.88 2.01.44-4.47-3.55-2.23.22-14.07-3.1-2.46-3.32 4.47-9.31-8.04zm6.65-17.65l-6.87 2.9v2.23l8.87 3.35-2 2.23 1.33 2.9 5.54-2.46h4.66l2.22 3.57 3.77-3.8-.89-3.58-3.1 1.12-.44-4.47 1.55-2.68h-1.55l-2.44 1.56-1.11.89.67 3.13-1.77 1.34-2.66-.22-.67-4.02-5.11-3.99zm20.4 27.48l-2.88-1.34-1.55 2.01 3.1 4.92.22 4.69 6.65-4.02v-5.81l2.44-2.46-2.44-1.79h-3.99l-1.55 3.8z"/>
<path class="gmt7 dst" id="America/Denver" d="M170.98 235.89l3.84-6.27 4.36-20.13 13.52-19.06.25-24.5-32.96-5.74.69 8.08-4 5.28-3.97.47-3.01 11.9 4.03 1.19-4.05 21.26 13.05 2.75-2.01 19.71 8.46.81 1.8 4.25z"/>
<path class="gmt7 dst" id="America/Ciudad_Juarez" d="M165.305 232.368l4.591 7.98-1.536-7.728-3.055-.252z"/>
<path class="gmt6" id="America/Regina" d="M231.57 102.46L201 166.01l-18.64-3.05 18.47-64.44 30.74 3.94z"/>
<path class="gmt6" id="America/Chihuahua" d="M169.88 240.35l-4.634-8.018-4.986-.462-5.37 17.78 6.03 11.19 2.16-14.28 10.51-4.08-3.71-2.13zm-23.63-.27l-3.93.21-2.25 1.61.25 3.02 4.25 3.27v6.05l5.25 5.04-2.25-14.86-1.32-4.34z"/>
<path class="gmt6" id="America/Mexico_City" d="M185.452 256.322l-6.96-6.2-4.732-7.702-10.75 4.16-2.19 14.96v9.07l10.5 12.34 11.5 5.29 4.75-2.77 6.75 5.54 4-4.03-1.75-4.54 5.75-1.76 1.75 1.01 1.75-1.76-.71-4.76 4.85-6.07-8.64 2.01-2.25 6.55-5.75 1.01-6.75-2.77-3-9.57 1.882-10.008z"/>
<path class="gmt6" id="America/Belize" d="M204.56 282.4l-.05 3.65h.84l2.86-5.34h-1.94l-1.71 1.69z"/>
<path class="gmt6" id="America/Guatemala" d="M194.88 291.52l5.93 4.34 5.98-7.43-1.02-1.54-2.04-.07v-4.35l-1.53-.93-4.63 1.38 1.77 4.08-4.46 4.52z"/>
<path class="gmt6" id="America/Tegucigalpa" d="M207.55 288.78l9.24-.35 2.74 3.26-1.71-.39-3.29.14-4.3 4.04-1.84 4.09-1.21-.64-.01-4.48-2.66-1.78 3.04-3.89z"/>
<path class="gmt6" id="America/El_Salvador" d="M201.65 296.27l4.7 2.34-.07-3.71-2.41-1.47-2.22 2.84z"/>
<path class="gmt6" id="America/Managua" d="M217.74 292.11l2.19.44.07 4.49-2.55 7.28-6.87-.68-1.53-3.51 2.04-4.26 3.87-3.6 2.78-.16z"/>
<path class="gmt6" id="America/Costa_Rica" d="M217.38 304.98l1.39 2.72 1.13 1.5-1.52 4.51-2.9-2.04-4.74-4.34v-2.87l6.64.52z"/>
<path class="gmt6" id="Pacific/Galapagos" d="M194.97 338.18l-.62 2.75-1.15 1.16.79 1.42 2.03-.8.97-1.69-.62-1.78-1.4-1.06z"/>
<path class="gmt6 dst" id="America/Winnipeg" d="M267.59 91.09l-1.02 7.49-7.22 1.53 1 3.26-2.49 4.02-7.72 1.76-8.72 6.78-7.72 10.29-1 3.26 5.23 2.01 1.99 5.02 5.28 5.34-14.79 34.25-10.73-7.06-18.68-3.03 30.17-62.59 5.49-13.15 17.76 6.23 4.43-29.27 2.74 2.01.5 17.57 4.23-3.76 2.49 1.51-3.49 6.02 2.27.51zm6.54-11.48l3.19-4.84.27-5.36 5.29-7.82-4.88-.45-5.76 2.23-3.1 4.24.89 11.62 4.1.38zm5.1-23l.42-3.48-2.96-2.74-.67-7.37-4.43-2.23-2.67-2.44-2.66.89.44 3.57 4.43 2.9.22 2.23-1.33 1.34.67 4.47 8.54 2.86zm-18.74-16.7l-4.88.67-2.88 2.68 5.32.22-1.55 4.02 1.11 1.79 1.55-.22 3.77-6.03-2.44-3.13z"/>
<path class="gmt6 dst" id="America/Chicago" d="M225.87 239.43l.26-14.28 9.58-7.89-1.7-5.9 4.74-12.11 6.31-10.5-3.43-3.27-2.33-4.44-4.83-3.88-5.25-.44-9.92-6.77-26.35-4.02-.19 24.42-13.58 19.14-4.36 20.13-4.13 6.74.23 3.31 2.49 1.76 3.49-3.51 2.74 1.25 2.49 11.54 4.23 2.76 3.49-6.53 10.71-7.78 6.97 3.26 5.98.5.25-3.76 12.11.27z"/>
<path class="gmt6 dst" id="America/Matamoros" d="M173.778 242.432l4.747 7.7 6.937 6.176.378-2.048-4.64-2.89-2.21-11.59-1.85-.79-3.362 3.442z"/>
<path class="gmt5" id="America/Jamaica" d="M238.93 279.59l-3.48.88v.97l2.03 1.17h2.13l1.35-1.56-2.03-1.46z"/>
<path class="gmt5" id="America/Atikokan" d="M266.01 101.85l-4.23 5.32-.26 5.86 3.7-2.13h4.49l3.17 2.93 2.91-2.4-9.78-9.58z"/>
<path class="gmt5" id="America/Cancun" d="M209.96 269.1l-4.78 5.97.63 4.78 2.76.08 5-8.82-3.61-2.01z"/>
<path class="gmt5" id="America/Panama" d="M220.59 309.61l-1.46 4.56 4.82 1.25 2.99.59.51-3.53 3.21-1.62 2.85 1.47 1.12 1.79 1.36-.16 1.07-3.25-3.56-1.47-2.7-1.47-2.7 1.84-3.21 1.62-3.28-1.32-1.02-.3z"/>
<path class="gmt5" id="America/Bogota" d="M253.73 299.78l-2.06-.21-13.62 11.23-1.44 3.95-1.86.21.83 8.73-4.75 11.65 5.16 4.37 6.61.42 4.54 6.66 6.6.21-.21 4.99H256l2.68-9.15-2.48-3.12.62-5.82 5.16-.42-.62-13.52-11.56-3.74-2.68-7.28 6.61-9.16z"/>
<path class="gmt5" id="America/Guayaquil" d="M230.2 335.85l-4.73 2.94-.34 4.36-.95 1.43 2.98 2.86-1.29 1.41.3 3.6 5.33 1.27 8.07-9.55-.02-3.33-3.87-.25-5.48-4.74z"/>
<path class="gmt5" id="America/Lima" d="M225.03 349.52l-1.94 1.96.13 3.13 16.94 30.88 17.59 11.34 2.72-4.56.65-10.03-1.42-6.25-4.79-8.08-2.85.91-1.29 1.43-5.69-6.52 1.42-7.69 6.6-4.3-.52-4.04-6.72-.26-3.49-5.86-1.94-.65.13 3.52-8.66 10.29-6.47-1.56-.4-3.66z"/>
<path class="gmt5" id="America/Rio_Branco" d="M265.89 368.51l-9.78-15.69-3.04.03-5.73 3.62-1.4 7.11 4.97 5.32.91-1.03 3.49-.94 2.98 5.02 7.6-3.44z"/>
<path class="gmt5 dst" id="America/Toronto" d="M307.68 133.75l-3.99 20.76-9.51.16-2.22 6.71 3.24 6.5 2.96.25-.43 5.55-7.72-.78-8.72 6.78 5.23-1.25 8.25-.54-10.78 5.91-6.68 1.43-.5 4.27h-11.96l-10.21 7.03-13.7 4.52-1.49-2.01 6.9-10.3-3.92-3.77-2.49-4.78-4.87-3.55-4.66-.54 14.79-34.25 13.4 6.96-2.49 11.54-.25 3.26 2.99 2.01 3.99-5.27.5-10.04 6.23-.25 2.99-5.77.5-8.78 7.97-15.56 9.96 3.51 5.23 7.28-2.24 7.28 3.99 2.26 9.71-6.53zm-30.3-59.07l-3.25 4.94 5.43.06 9.09 4.47 6.43 7.37 4.88-.22-1.33 6.92-4.43 7.37-4.88 2.23-3.55-.67-1.77-1.56-2.66 3.57 1.11 3.57 3.77.22 4.66-2.23 3.99 10.28 9.98 6.48 6.87-8.71-5.76-9.38 3.33-3.8 4.66 7.82 8.42-7.37-1.55-3.35-5.76 1.79-3.99-10.95 3.77-6.25-7.54-8.04-4.21 2.9-3.99-8.71-8.42 1.12-2.22-10.5-6.87 4.69-.67 5.81-3.54.13zm2.29-21.66l-.45 3.69 8.54 2.62 4.66 1.56 4.66-4.02-5.54-4.47-5.1 1.34-6.77-.72zm6.1-12.66v2.01l-4.88 1.12 1.33 2.23 5.54 2.23 6.21.67 4.43 3.13 4.43-2.46-3.1-3.13h3.99l2.44-2.68 5.99-.89v-1.34l-3.33-2.23.44-2.46 9.31 1.56 13.75-5.36-5.1-1.56 1.33-1.79h10.64l1.77-1.79-21.51-7.6-5.1-1.79-5.54 4.02-6.21-5.14-3.33-.22-.67 4.25-4.21-3.8-4.88 1.56.89 2.46 7.32 1.56-.44 3.57 3.99 2.46 9.76-2.46.22 3.35-7.98 3.8-4.88-3.8-4.43.45 4.43 6.26-2.22 1.12-3.33-2.9-2.44 1.56 2.22 4.24h3.77l-.89 4.02-3.1-.45-3.99-4.25-2.64.47zm-18.71 57.99l.99-6.52 8.23-10.29 5.48 5.77-2.24 10.29-5.48 3.01-6.98-2.26z"/>
<path class="gmt5 dst" id="America/New_York" d="M240.56 202.24l-2.01-2.5-4.54 11.62 1.51 6.06-9.39 7.73-.25 14.13 2.82 2.89.5 6.27-1.49 3.51 1.74 6.02h3.74l3.74-5.77-1.49-2.76-1.49-6.02 2.24-6.78 10.21-8.78 7.72-2.26-1-7.28 10.71-11.55 10.71-1.76-1.74-6.01 10.46-6.02v-8.03l-1-.5-3.74 1.25-.5 4.92-12.43.15-9.74 6.47-15.29 5z"/>
<path class="gmt5 dst" id="America/Nassau" d="M243.96 256.21l-1.55-.39-.29-1.95-1.64-.58 1.06-1.07 1.93.68 1.45.88-.96 2.43zm2.9 6.14l-3-1.27-.58-3.02 1.16-.49 1.16 2.34 1.16.88.1 1.56zm-7.25-3.22l-1.26-.39-.1 2.43 1.55 1.56 1.06-1.56-1.25-2.04zm2.51 3.8l-1.74.97 1.64 2.34.87-1.17-.77-2.14zm5.61 1.75l-1.84-.1.19 1.17 1.35 1.95 1.16-1.27-.86-1.75z"/>
<path class="gmt5 dst" id="America/Havana" d="M220.85 266.92v1.27l5.32.1 2.51-1.46.39 1.07 5.22 1.27 4.64 4.19-1.06 1.46.19 1.66 3.87.97 3.87-1.75 1.74-1.75-2.51-1.27-12.95-7.6-4.54-.49-6.69 2.33z"/>
<path class="gmt5 dst" id="America/Port-au-Prince" d="M250.86 275.38l3.44.36-.41 4.22-.34 2.22-4.01-.22-.71 1.07-1.23-.09-.44-2.31 4.23-.35-.26-2.4-1.94-.8 1.67-1.7z"/>
<path class="gmt4" id="America/Blanc-Sablon" d="M298.06 169.44l11.62.95-4.73 5.02-7.21-1.8.32-4.17z"/>
<path class="gmt4" id="America/Santo_Domingo" d="M263.11 280.44l-5.29-3.46-2.5-.85-.84 6 .88 1.69 1.15-1.33 3.35-.89 2.91.62.34-1.78z"/>
<path class="gmt4" id="America/Puerto_Rico" d="M271.05 281.06l-2.64-.89-2.12 1.33 1.06 1.24 3.61.53.09-2.21z"/>
<path class="gmt4" id="America/Guadeloupe" d="M276.6 283.37l-1.5.62.53 1.33 1.76-1.15-.35-.36-.44-.44z"/>
<path class="gmt4" id="America/Dominica" d="M279.07 284.88l-.88 1.87 1.06 1.42 1.32-1.15-1.5-2.14z"/>
<path class="gmt4" id="America/Martinique" d="M282.07 290.03l-1.06.98.79 1.6 1.5-.44-1.23-2.14z"/>
<path class="gmt4" id="America/St_Lucia" d="M281.98 294.03l-.71 1.51 1.15 1.24 1.5-.8-1.94-1.95z"/>
<path class="gmt4" id="America/St_Vincent" d="M282.07 297.85l-1.23.89.97 1.78 1.59-.89-1.33-1.78z"/>
<path class="gmt4" id="America/Barbados" d="M288.66 298.73l.29 3.16 2.45-1.43-2.74-1.73z"/>
<path class="gmt4" id="America/Grenada" d="M280.57 301.31l-1.15 1.15.44.71h1.41l.44-1.16-1.14-.7z"/>
<path class="gmt4" id="America/Port_of_Spain" d="M282.24 304.78l-1.06.98-1.15.18v1.42l2.12 1.95.88-1.42.53-1.6-.18-1.33-1.14-.18z"/>
<path class="gmt4" id="America/Caracas" d="M250.46 305.92l.44 2.59 3.25 1.03.74-4.77 3.43-3.55 3.43 4.02 7.89 2.15 6.68-1.4 4.55 5.61 3.43 2.15-3.76 5.73 1.26 4.34-2.15 2.66-2.23 1.87-4.83-2.43-1.11 1.12v3.46l3.53 1.68-2.6 2.81-2.6 2.81-3.43-.28-3.45-3.79-.73-14.26-11.78-4.02-2.14-6.27 2.18-3.26z"/>
<path class="gmt4" id="America/Guyana" d="M285.05 314.13l7.22 6.54-2.87 3.32-.23 1.97 3.77 3.89-.09 3.74-6.56 2.5-3.93-5.31.84-6.38-1.68-4.75 3.53-5.52z"/>
<path class="gmt4" id="America/Manaus" d="M290.95 356.49l-5.43-13.84.47-5.27 -4.66-5.87.75-6.13-4.4 4.48-4.86-2.62-.49.69.01 2.13 4.19 2.25-6.29 6.63-3.97-.04-4.02-4.09-4.55.14-.56 4.86 2.61 3.17-3.69 10.26 9.71 15.55 4.36-.03 2.28 8.07 5.77 1.83 6.4 1.49 2.1 6.44 5.18.62 2.47 6.15-1.67 5.47 2.18 2.86-.32 4.26 5.84-.55 5.38 6.63 2.03-9.8-5.42-9.07 2.78-14.01-.62-7.27-16.37-2.98-2.82-5.81z"/>
<path class="gmt4" id="America/La_Paz" d="M258.71 372.79l8.23-3.59 2.72.26 1.81 7.56 12.54 4.17 2.07 6.39 5.17.65 2.2 5.47-1.55 4.95-8.41.65-3.1 7.95-6.6-.13-2.07-.39-3.81 3.7-1.88-.18-6.47-14.99 1.79-2.68.63-10.6-1.6-6.31-1.67-2.88z"/>
<path class="gmt4 dst" id="America/Thule" d="M334.8 59.94l-1.95-17.47-7.1 1.09-3.26-2.17-2.18 3.53 3.26 3.54 6.8-.82.54 2.18-5.17 2.45-4.61-2.2-1.36 2.17 2.45 2.45-1.09 2.45 3.54 4.62 4.35-1.36 5.78-.46z"/>
<path class="gmt4 dst" id="America/Halifax" d="M309.68 170.39l-11.62-1.02.08-1.08-2.94-.41-3.24-6.5 2.22-6.71 9.53-.26 3.93-20.43 2.78 17.59 8.97 10.79.25 5.52-9.96 2.51zm-25.71 13.42l10.71-5.87-2.17 6.27.25 5.02 2.99 2.01 2.99-.75 1.5-2.26h1.99l-3.24 6.02-6.23.25-2.74 4.02h-3.49l-1-3.01 4.98-5.02-5.98 2.01-.56-8.69z"/>
<path class="gmt4 dst" id="America/Santiago" d="M272.82 507.39l-5.64-.07-1.94-3.39 2.72-3.52-.26-4.43-3.1-1.3-2.46-1.82.52-2.48 3.23-.91.65-14.33-5.04-2.87-3.29-74.59.85-1.48 6.44 14.85 2.06.04.67 2.37-2.74 3.32-3.15 17.87 4.48 13.76-2.07 10.42 7.3 30.64.77 17.92z"/>
<path class="gmt3_30 dst" id="America/St_Johns" d="M317.52 171.05l-10.57 10.12 1.06 2.4 12.94 4.79 1.85-3.19-1.06-5.32-4.23.53-2.38-2.66 3.96-3.99-1.57-2.68z"/>
<path class="gmt3" id="America/Asuncion" d="M291.76 399.51l2.2 2.4-.26 5.08 6.34-.39 4.79 6.13-.39 5.47-3.1 4.69-6.34.26-.26-2.61 1.81-4.3-6.21-3.91h-5.17l-3.88-4.17 2.82-8.06 7.65-.59z"/>
<path class="gmt3" id="America/Paramaribo" d="M293.13 321.14l2.04 1.87 3.16-1.96 2.88.09-.37 1.12-1.21 2.52-.19 6.27-5.75 2.34.28-4.02-3.71-3.46.19-1.78 2.68-2.99z"/>
<path class="gmt3" id="America/Cayenne" d="M302.13 321.8l5.85 3.65-3.06 6.08-1.11 1.4-3.25-1.87.09-6.55 1.48-2.71z"/>
<path class="gmt3" id="America/Sao_Paulo" d="M285.2 363.49l2.94 5.67 16.37 2.98.26 7.08-2.56 14.26 5.45 8.93-2.07 9.95-.42 4.75 3.17 2.68-7.6 11.51 13.38 7.49 6.25-12.02.23-10.1 11.66-7.52h6.53l4.8-10.21 1.26-15.2-2.1-4.46 12.36-11.28.47-12.45-16.79-8.22-20.28-6.34-9.56-.94 2.57-5.4-.7-8.22-2.09-.69-3.09 6.14-1.62 2.03-4.16-1.84-13.99 4.93-.49 5.42 5.45 13.69-5.75 7.28z"/>
<path class="gmt3" id="America/Montevideo" d="M300.36 431.93l-2.05 2.19.85 11.78 6.44 1.87 8.19-8.21-13.43-7.63z"/>
<path class="gmt3" id="America/Argentina/Buenos_Aires" d="M305.47 418.2l1.94 1.82-7.37 10.95-2.59 2.87.9 12.51 5.69 6.91-4.78 8.34-3.62 1.56h-4.14l1.16 6.51-6.47 2.22 1.55 5.47-3.88 12.38 4.79 3.91-2.59 6.38-4.4 6.91 2.33 4.82-5.69.91-4.66-5.73-.78-17.85-7.24-30.32 2.19-10.6-4.66-13.55 3.1-17.59 2.85-3.39-.7-2.57 3.66-3.34 8.16.56 4.56 4.87 5.27.09 5.4 3.3-1.59 3.72.38 3.76 7.65-.36 3.58-5.47zm-16.55 100.59l.26 5.73 4.4-.39 3.75-2.48-6.34-1.3-2.07-1.56z"/>
<path class="gmt3" id="America/Punta_Arenas" d="M267.189 507.328l5.637.078 5.224 6.034 5.54-.81-3.21 3.55-.39 4.17-6.21-3.52-6.591-9.502zm17.851 6.772l-4.27 9.38 7.37.78.13-6.25-3.23-3.91z"/>
<path class="gmt3" id="Atlantic/Stanley" d="M307.95 508.18l-2.63-.29-2.62 1.76 1.9 2.06 3.35-3.53zm2.62-1.32l-.87 2.79-2.48 2.2.15.73 4.23-1.62 1.75-2.2-2.78-1.9z"/>
<path class="gmt2 dst" id="America/Nuuk" d="M389.65 107.44l8.81-23.03 5.32-.08 6.41-2.64 7.87-19.72 2.32-4.83 5.44-2.45 11.15-9.79-3.26-3.53-12.51 1.09-6.53 6.53 3.81-8.43-4.35-1.09-2.45 4.35-3.53-2.99-9.79 1.09 2.72-4.35 16.04-.54-4.08-5.44-17.4-3.26-7.07 1.09.27 3.54-7.34-2.45.27-2.45-5.17 1.09-1.09 2.72 5.44 1.9-5.71 4.08-4.08-4.62-5.71-1.63-.82 4.35h-5.71l-2.18-4.62-8.97-1.36-4.89 2.45-.27 3.26-6.25-.82-3.81 1.63.27 3.81v1.9l1.91 17.66 6.53 7.07 4.35 11.69-3.53 7.34 4.89-.82 2.72 1.63.27 3.54-5.98.27 3.26 3.26 4.08.82-8.97 11.96-1.09 7.34 1.9 5.98-1.36 3.54 2.45 7.61 4.62 5.17 1.36-.27 2.99-.82.27 4.35 1.9 2.72 3.53-.27 2.72-10.06 8.16-10.06 12.24-4.89 7.61-9.52z"/>
<path class="gmt2 dst" id="America/Scoresbysund" d="M403.96 84.25l-5.5.16-8.98 23.24 3.7 1.42h7.34l5.98-5.98 7.34-2.99.82-4.62-4.62-4.08-4.08-1.36-2-5.79z"/>
<path class="gmt1" id="Atlantic/Cape_Verde" d="M387.56 290.54l-1.9 1.09 1.36 1.09 1.63-.82-1.09-1.36zm4.67 2.2l-1.24 1.1.88 1.63 2.12-.95-1.76-1.78zm-2.71 3.09l-1.59.95 1.71 2.29 1.35-.71-1.47-2.53z"/>
<path class="gmt1 dst" id="Atlantic/Azores" d="M372.64 217.02l-1.36 1.37 2.44 1.37.27-1.91-1.35-.83zm7.33-.82l-1.63 1.09 1.36 1.09 2.17-.55-1.9-1.63zm1.08 3.83l-.81 2.19 1.08 1.37 1.36-1.09-1.63-2.47zm6.51 4.37l-.54 1.37.81.82 2.17-1.37-2.44-.82z"/>
<path class="gmt" id="America/Danmarkshavn" d="M418.1 61.89l-8.06 19.86 7.07 3.94 2.72-2.99-4.35-2.45 9.25-12.51-1.63-5.44-5-.41z"/>
<path class="gmt" id="Atlantic/Reykjavik" d="M406.36 117.31l-1.96-1.11-2.64 1.67-2.27 2.1.06 1.17 2.94.37-.18 2.1-1.04 1.05.25.68 2.94.19v3.4l4.23.74 2.51 1.42 2.82.12 4.84-2.41 3.74-4.94.06-3.34-2.27-1.92-1.9-1.61-.86.62-1.29 1.67-1.47-.19-1.47-1.61-1.9.18-2.76 2.29-1.66 1.79-.92-.8-.06-1.98.92-.62-.66-1.03z"/>
<path class="gmt" id="Africa/Nouakchott" d="M404.9 276.66l2.18 2.85-.45 12.32 3.17-2.28 2.26-.46 3.17 1.14 3.62 5.02 3.4-2.28 16.53-.23-4.08-27.61 4.38-.02-8.16-6.25.01 4.06-10.33.01-.05 7.75-2.97-.01-.38 5.72-12.3.27z"/>
<path class="gmt" id="Africa/Bamako" d="M419.46 295.84l3.08-2.11 17.12-.1-3.96-27.54 4.52-.13 21.87 16.69 2.94.42-1.11 9.28-13.75 1.25-10.61 7.92-1.93 5.42-7.37.31-1.88-5.41-5.65.4.22-1.77-3.49-4.63z"/>
<path class="gmt" id="Africa/Dakar" d="M417.44 301.52l-.31.73-8.41-.88-.69 1.86-1.24-3.01 6.7.16.98-.32.28-2.02-.35-1.53-3.11.84-4.84.07-1.45-1.04.28-1.6.9-1.6 3.94-2.86 1.92-.49 2.49 1.04 4.01 5.43 3.6 4.32-.14 1.74-3.94-.14-.62-.7z"/>
<path class="gmt" id="Africa/Banjul" d="M406.89 298.34l-.13 1.11 6.92-.1.35-1.03-.15-1.04-1.99.81-5 .25z"/>
<path class="gmt" id="Africa/Bissau" d="M408.6 304.53l1.4 2.77 3.93-3.38.04-1.04-4.63-.67-.74 2.32z"/>
<path class="gmt" id="Africa/Conakry" d="M410.42 307.94l3.04 4.68 3.96-3.44 4.06-.18 3.38 4.49 2.87 1.89 1.08-2.1.96-.54-.07-4.62-1.91-5.48-5.86.65-7.25-.58-.04 1.86-4.22 3.37z"/>
<path class="gmt" id="Africa/Freetown" d="M413.93 313.13l5.65 5.46 4.03-4.89-2.52-3.95-3.47.35-3.69 3.03z"/>
<path class="gmt" id="Africa/Monrovia" d="M420.17 319.19l10.98 7.34-.26-5.56-3.32-3.91-3.24-2.87-4.16 5z"/>
<path class="gmt" id="Africa/Abidjan" d="M432.07 326.75l4.28-3.03 5.32-.93 5.43 1.17-2.77-4.19-.81-2.56.81-7.57-4.85.23-2.2-2.1-4.62.12-2.2.35.23 5.12-1.16.47-1.39 2.56 3.58 4.19.35 6.17z"/>
<path class="gmt" id="Africa/Ouagadougou" d="M450.59 294.28l3.64-.29 5.97 8.44-5.54 4.18-4.01-1.03-5.39.07-.87 3.16-4.52.22-1.24-1.69 1.6-5.14 10.36-7.92z"/>
<path class="gmt" id="Africa/Accra" d="M444.34 317.05l1.12 2.63 2.92 4.58 1.62-.06 4.42-2.51-.31-14.29-3.42-1-4.79.13-1.56 10.52z"/>
<path class="gmt" id="Africa/Lome" d="M455.22 321.25l2.68-1.57-.06-10.35-1.74-2.82-1.12.94.24 13.8z"/>
<path class="gmt" id="Africa/Sao_Tome" d="M473.05 333.5l1.73-.29.58 1.1-.86.93-.86-.12-.59-1.62zm-2.31 3.65l1.15-.58.86.7-.86 1.33-1.04-.41-.11-1.04z"/>
<path class="gmt dst" id="Europe/Dublin" d="M439.51 166.55l-.91 6-8.07 2.96h-2.57l-1.83-1.29v-1.11l4.04-2.59-1.1-2.22.18-3.14 3.49.18 1.6-3.76-.21 3.34 2.71 2.15 2.67-.52z"/>
<path class="gmt dst" id="Europe/London" d="M446.12 149.08l-1.83 2.77.73 1.11h4.22v1.85l-1.1 1.48.73 3.88 2.38 4.62 1.83 4.25 2.93 1.11 1.28 2.22-.18 2.03-1.83 1.11-.18.92 1.28.74-1.1 1.48-2.57 1.11-4.95-.55-7.71 3.51-2.57-1.29 7.34-4.25-.92-.55-3.85-.37 2.38-3.51.37-2.96 3.12-.37-.55-5.73-3.67-.18-1.1-1.29.18-4.25-2.2.18 2.2-7.39 4.04-2.96 1.3 1.28zm-7.7 12.39l-3.3.37-.18 2.96 2.2 1.48 2.38-.55.92-1.66-2.02-2.6z"/>
<path class="gmt dst" id="Europe/Lisbon" d="M430.93 211.24l-.62 8.65-1.77 1.6.18.98 1.24 2.05-.8 2.5 1.33.45 3.1-.36-.18-2.5 2.03-11.59-.44-1.6-4.07-.18z"/>
<path class="gmt dst" id="Atlantic/Madeira" d="M408.18 236.42l-1.08 1.37 1.08 1.37 1.63-.82-1.63-1.92z"/>
<path class="gmt dst" id="Atlantic/Canary" d="M404.38 252.28l-1.36 1.37 1.9 1.64 1.08-2.46-1.62-.55zm5.16 1.64l-2.17.55 1.08 1.64h1.63l-.54-2.19zm6.08-.19l-1.75 1.01.81.82.94-1.83z"/>
<path class="gmt-1" id="Africa/El_Aaiun" d="M430.21 252.94l-5.74-.22-7.88 3.75-11.77 19.39 11.55-.23.45-5.7h2.94v-7.76h10.19l.26-9.23z"/>
<path class="gmt-1" id="Africa/Casablanca" d="M424.6 252.08l5.58.05 9.74-2.28 4.08-6.62 6.34-.23-2.05-10.72h-11.55l-2.26 5.02-5.21 2.51-4.67 12.27z"/>
<path class="gmt-1" id="Africa/Algiers" d="M473.88 227.49l-4.08-1.37-16.98 3.19-3.7 2.81 2.26 11.67-6.75.27-4.06 6.53-9.67 2.32.03 4.75 31.85 24.35 5.43.46 18.11-14.15-1.81-2.28-3.4-.46-2.04-3.42v-14.15l-1.36-1.37.23-3.65-3.62-3.65-.45-3.88 1.58-1.14-.68-4.11-.89-2.72z"/>
<path class="gmt-1" id="Africa/Tunis" d="M474.91 227.33l5.53-2.23 1.82 1.18.07 1.44-.85 1.11.13 1.97.85.46v3.54l-.98 1.64.13 1.05 3.71 1.31-2.99 4.65-1.17-.07-.2 3.74-1.3.2-1.11-.98.26-3.8-3.64-3.54-.46-3.08 1.76-1.38-1.56-7.21z"/>
<path class="gmt-1" id="Africa/Niamey" d="M460.89 302l2.55-.06 2.3-3.45 3.86-.69 4.11 2.51 8.77.25 6.78-2.76 2.55-2.19.19-2.88 4.73-4.77 1.25-10.53-3.11-6.52-7.96-1.94-18.42 14.36-2.61-.25-1.12 9.97-9.4.94 5.53 8.01z"/>
<path class="gmt-1" id="Africa/Porto-Novo" d="M458.71 319.49h2.12l.12-6.02 2.68-3.89-.12-6.77-2.43-.06-4.17 3.26 1.74 3.32.06 10.16z"/>
<path class="gmt-1" id="Africa/Lagos" d="M461.57 319.37l3.92.19 4.73 5.27 2.3.63 1.8-.88 2.74-.38.93-3.82 3.73-2.45 4.04-.19 7.4-13.61-.12-3.07-3.42-2.63-6.84 3.01-9.15-.13-4.36-2.76-3.11.69-1.62 2.82-.12 7.96-2.61 3.7-.24 5.65z"/>
<path class="gmt-1" id="Africa/Ndjamena" d="M492.79 296l.13-2.95 4.74-4.61 1.27-11.32-3.16-6.04 2.21-1.13 21.4 11.15-.13 10.94-3.77 3.21v5.64l2.47 4.78h-4.36l-7.22 7.14-.19 2.16-5.33-.07-.07.98-3.04-.4-2.08-3.93-1.56-.77.2-1.2 1.96-1.5v-7.02l-2.71-.42-3.27-2.43 2.51-2.21z"/>
<path class="gmt-1" id="Africa/Douala" d="M477.82 324.28l3.22 2.96-.23 4.58 17.66-.41 1.44-1.62-5.06-5.45-.75-1.97 3.22-6.03-2.19-4-1.84-.99v-2.03l2.13-1.39.12-6.32-1.69-.19-.03 3.32-7.42 13.85-4.54.23-3.11 2.14-.93 3.32z"/>
<path class="gmt-1" id="Africa/Bangui" d="M495.66 324.05l4.66 5.04 1.84-2.38 2.93.12.63-2.32 2.88-1.8 5.98 4.12 3.45-3.42 13.39.59L519 311.18l1.67-1.04.23-2.26-2.82-1.33h-4.14l-6.67 6.61-.23 2.72-5.29-.17-.17 1.16-3.45-.35-3.11 5.91.64 1.62z"/>
<path class="gmt-1" id="Africa/Malabo" d="M480.99 332.69l-.06 1.39 4.54.23-.06-1.57-4.42-.05zm-4.15-5.28l-.46 1.97 1.38.75 1.32-.99-.46-2.03-1.78.3z"/>
<path class="gmt-1" id="Africa/Libreville" d="M486.39 332.63l-.12 2.49-5.64-.12-3.45 6.67 8.11 8.87 2.01-1.68-.06-1.74-1.38-.64v-1.22l3.11-1.97 2.76 2.09 3.05.06-.06-10.49-4.83-.23-.06-2.2-3.44.11z"/>
<path class="gmt-1" id="Africa/Brazzaville" d="M491 332.52l-.06 1.45 4.78.12.17 12.41-4.37-.12-2.53-1.97-1.96 1.1-.09.55 1.01.49.29 2.55-2.7 2.32.58 1.22 2.99-2.32h1.44l.46 1.39 1.9.81 6.1-5.16-.12-3.77 1.27-3.07 3.91-2.9 1.05-9.81-2.78.01-3.22 4.41-8.12.29z"/>
<path class="gmt-1" id="Africa/Kinshasa" d="M510.74 358.55l-.05-9.69 10.12-1.72 6.71-22.48-9.16-.45-3.73 3.63-6.11-4.02-2.15 1.32-1.56 13.13-3.86 2.98-1.16 2.64.21 3.91-6.96 5.69-1.85-.84.25 1.09-2.06 1.97 10.31-.18 2.09 2.97-.08 2.19.77.7h5.12l1.47-2.89 1.68.05z"/>
<path class="gmt-1" id="Africa/Luanda" d="M488.62 356.71l3.41 12.73-.08 4.02-4.99 5.36-.75 8.71 19.2.17 6.24 2.26 5.15-.67-3-3.76.01-10.74 5.9-.25v-4.19l-4.79-.2-.96-9.92-2.02.03-1.09-.98-1.19.06-1.58 3.06H502l-1.41-1.42.42-2.01-1.66-2.43-10.73.17zm-2.07-3.48l1.74 2.26 2.25-2.13-.66-2.21-.56-.04-2.77 2.12z"/>
<path class="gmt-1 dst" id="Europe/Oslo" d="M515.46 102.14l2.02-1.48-.18-1.66-1.28-.74.18-2.03h1.1v-1.11l-4.77-1.29-7.15.74-.73 3.14-1.65-.55-1.1-1.85-3.49.18-.37 3.51-1.65.74-.92-1.85-7.34 5.91 1.47 1.66-2.75 1.29-6.24 12.38-2.2 1.48.18 1.11 2.2 1.11-.55 2.4-3.67-.19-1.1-1.29-2.38 2.77-1.47 1.11-.37 2.59-1.28.74-3.3.74-1.65 5.18 1.1 8.5 1.28 3.88 1.47 1.48 3.3-.18 4.77-4.62 1.83-3.14.55 4.62 3.12-5.54.18-15.53 2.54-1.6.76-8.57 7.7-11.09 3.67-1.29 1.65-2.03 5.5 1.29 2.75 1.66.92-4.62 4.59-2.77 2.76 4.81z"/>
<path class="gmt-1 dst" id="Europe/Stockholm" d="M497.72 104.58l1.96 1.81h3.67l2.02 3.88.55 6.65-4.95 3.51v3.51l-3.49 4.81-2.02.18-2.75 4.62.18 4.44 4.77 3.51-.37 2.03-1.83 2.77-2.75 2.4.18 7.95-4.22 1.48-1.47 3.14h-2.02l-1.1-5.54-4.59-7.04 3.77-6.31.26-15.59 2.6-1.43.63-8.92 7.41-10.61 3.56-1.25z"/>
<path class="gmt-1 dst" id="Europe/Copenhagen" d="M476.77 151.5l-4.15 4.59-.15 2.99 1.89 4.93 2.96-.56-.37-4.03 2.04-2.28-.04-1.79-1.44-3.73-.74-.12zm4.67 8.14l-.93-.04-1.22 1.12.15 1.75 2.89.08.15-1.98-1.04-.93z"/>
<path class="gmt-1 dst" id="Europe/Amsterdam" d="M470.09 168.27l-4.53 2.23.96.87.1 2.23-.96-.19-1.06-1.65-2.53 4.01 3.89.81 1.45 1.53.77.02.51-3.46 2.45-1.03-1.05-5.37z"/>
<path class="gmt-1 dst" id="Europe/Brussels" d="M461.61 176.52l-.64 1.6 6.88 4.54 1.98.47.07-2.15-1.73-1.94h-1.06l-1.45-1.65-4.05-.87z"/>
<path class="gmt-1 dst" id="Europe/Paris" d="M460.4 178.7l-2.21.54-4.42 4.81-1.33.09-1.77-1.25-1.15.27-.88 2.76-6.46.18.18 1.43 4.42 2.94 5.13 4.1-.09 4.9-2.74 4.81 5.93 2.85 6.02.18 1.86-2.14 3.8.09 1.06.98 3.8-.27 1.95-2.5-2.48-2.94-.18-1.87.53-2.05-1.24-1.78-2.12.62-.27-1.6 4.69-5.17v-3.12l-3.1-1.78-1.59-.27-7.34-4.81zm17.43 28.26l-1.95 1.96-.18 1.78 1.59.98.62-.09.35-2.59-.43-2.04z"/>
<path class="gmt-1 dst" id="Europe/Berlin" d="M471.14 167.88l3.57-.58v-2.52l2.99-.49 1.64 1.65 1.73.19 2.7-1.17 2.41.68 2.12 1.84.29 6.89 2.12 2.82-2.79.39-4.63 2.91.39.97 4.14 3.88-.29 1.94-3.85 1.94-3.57.1-.87 1.84h-1.83l-.87-1.94-3.18-.78-.1-3.2-2.7-1.84.29-2.33-1.83-2.52.48-3.3 2.5-1.17-.86-6.2z"/>
<path class="gmt-1 dst" id="Europe/Warsaw" d="M511.46 174.76l.85 1.56.2 1.66-.7 1.61-1.6 3.08-1.35.61-1.75-.76-1.05.05-2.55.96-2.9-.86-4.7-3.33-4.6-2.47-1.85-2.82-.35-6.65 3.6-3.13 4.7-1.56 1.75-.2-.7 1.41.45.55 7.91.15 1.7-.05 2.8 4.29-.7 1.76.3 2.07.54 2.07z"/>
<path class="gmt-1 dst" id="Europe/Prague" d="M488.43 184.87h4.43l2.37 1.69 4.39-3.65-4.26-3.04-4.22-2.04-2.89.52-3.92 2.52 4.1 4z"/>
<path class="gmt-1 dst" id="Europe/Bratislava" d="M495.84 187.13l.69.61.09 1.04 7.63-.17 5.64-2.43-.09-2.47-1.08.48-1.55-.83-.95-.04-2.5 1-3.4-.82-4.48 3.63z"/>
<path class="gmt-1 dst" id="Europe/Budapest" d="M496.74 189.6l-1.16 1.82.09 2.78 1.85.95 5.69.17 7.93-6.68.04-1.48-.86-.43-5.73 2.6-7.85.27z"/>
<path class="gmt-1 dst" id="Europe/Zurich" d="M472.91 189.38l-4.36 4.64.09.47 1.79-.56 1.61 2.24 2.72-.96 1.88 1.46.77-.44 2.32-3.64-.59-.56-2.29-.06-1.11-2.27-2.83-.32z"/>
<path class="gmt-1 dst" id="Europe/Vienna" d="M480.63 190.12l-.65 1.35.56.96 2.33-.48h1.98l2.15 1.82 4.57-.83 3.36-2 .86-1.35-.13-1.74-3.02-2.26-4.05.04-.34 2.3-4.26 2.08-3.36.11z"/>
<path class="gmt-1 dst" id="Europe/Ljubljana" d="M494.8 191.99l-2.54 1.52-4.74 1.04.95 2.74 3.32.04 3.06-2.56-.05-2.78z"/>
<path class="gmt-1 dst" id="Europe/Zagreb" d="M495.62 195.16l-3.53 2.91h-3.58l-.43 2.52 1.64.43.82-1.22 1.29 1.13 1.03 3.6 7.07 3.3.7-.8-7.17-7.4.73-1.35 6.81-.26.69-2.17-4.44.13-1.63-.82z"/>
<path class="gmt-1 dst" id="Europe/Sarajevo" d="M494.8 198.94l-.37.61 6.71 6.92 2.46-3.62-.09-1.43-2.15-2.61-6.56.13z"/>
<path class="gmt-1 dst" id="Europe/Podgorica" d="M504.9 207.25l-.04-.94-1.32-1.85-2.14 3.02.42 1.27 1.74.32 1.34-1.82z"/>
<path class="gmt-1 dst" id="Europe/Belgrade" d="M505.55 194.54l-2.05 1.54h-1l-.68 2.12 2.42 2.81.16 2.23-.34.48 1.64 2.3.05 1.22 1.18 1.14 3.84-1.17-.32-5.46-4.9-7.21z"/>
<path class="gmt-1 dst" id="Europe/Tirane" d="M504.02 209.76v4.61l1.32 2.49.95-.11 1.63-2.97-.95-1.33-.37-3.29-1.26-1.17-1.32 1.77z"/>
<path class="gmt-1 dst" id="Europe/Skopje" d="M510.92 208.01l-3.37 1.11.16 2.86.79 1.01 4-1.86-1.58-3.12z"/>
<path class="gmt-1 dst" id="Europe/Madrid" d="M448.36 205h-12.74l-2.57-1.16-1.24.09-1.5 3.12.53 3.21 4.87.45.62 2.05-2.12 11.95.09 2.14 3.45 1.87 3.98.27 7.96-1.96 3.89-4.9.09-4.99 6.9-6.24.35-2.76-6.28-.09-6.28-3.05z"/>
<path class="gmt-1 dst" id="Europe/Rome" d="M472.27 196.98l-.62 1.57.17 1.71 2.39 2.79 3.76-.13 8.3 9.64 5.18 1.5 3.06 2.89.73 6.59 1.64-.96 1.42-3.59-.35-2.58 2.43-.22.35-1.46-6.85-3.28-6.5-6.39-2.59-3.82-.63-3.63 3.31-.79-.85-2.39-2.03-1.71-1.75-.08-2.44.67-2.3 3.22-1.39.92-2.15-1.32-2.29.85zm20.17 26.04l-1.45-.78-4.95.78.17 1.34 4.45 2.24.67.73 1.17.17-.06-4.48zm-14.88-9.64l-2.65 1.34.35 5.17 2.12.36 1.59-1.52v-4.9l-1.41-.45z"/>
<path class="gmt-1 dst" id="Europe/Malta" d="M492.61 230.47l-1.67.34.06 1.85 1.5.5.67-.56-.56-2.13z"/>
<path class="gmt-2" id="Europe/Kaliningrad" d="M506.75 163.82l.03-1.5-3.23-1.57-1.69 3.02 4.89.05z"/>
<path class="gmt-2" id="Africa/Tripoli" d="M480.05 248.03l1.56-.26.46-3.6h.78l3.19-5.24 7.87 2.29 2.15 3.34 7.74 3.54 4.03-1.7-.39-1.7-1.76-1.7.2-1.18 2.86-2.42h5.66l2.15 2.88 4.55.66.59 36.89-3.38-.13-20.42-10.62-2.21 1.25-8.39-2.1-2.28-3.01-3.32-.46-1.69-3.01.05-13.72z"/>
<path class="gmt-2" id="Africa/Khartoum" d="M552 270.61l-3.69 3.72-25.8-.23.28 6.57-2.46-.07-.18 11.83-3.73 3.21-.15 4.94 2.69 5.31 2.95 1.74-.04.41 4.01-2.05 3.07 2.45 5.64.32 3.26-2.73 2.88 1.38 3.25-4.75.28-1.58 2.47-.47.39 4.47 2.48 4.16 6-12.91v-7.85l4.36-5.14-7.96-12.73z"/>
<path class="gmt-2" id="Africa/Juba" d="M549.08 310.34l-2.94-4.94-.31-3.6-.7.14-.2 1.1-3.85 5.64-3.08-1.47-3.07 2.57-6.35-.36-2.81-2.25-4.04 2.06-.15 1.38-1.23.74 12.32 12.68 6.71.38.98 1.49 9.6.17.08-2.15.82-1.49 3.2-.41-3.99-5.79h-2.94l-.75-4.11 2.36-1.04.34-.74z"/>
<path class="gmt-2" id="Africa/Lubumbashi" d="M527.52 324.65l-6.71 22.49-10.12 1.72-.04 9.64 1.35.86 2.87-.08.85 10.08 4.96.16v.78l13.33 6.01.62 1.17h2.79l-.31-4.22-5.04-2.42.31-3.2 2.17-5.08 4.96-.16-4.26-14.14.08-6.01 6.74-10.54.08-1.48-1.01-.55.04-2.86-1.23-.11-1.24-1.58-11.19-.48z"/>
<path class="gmt-2" id="Africa/Kigali" d="M537.82 339.9l2.81 2.59-.12 2.77-4.36.09v-3.06l1.67-2.39z"/>
<path class="gmt-2" id="Africa/Bujumbura" d="M536.21 346.21l4.27-.09-1.11 3.74-1.08.94h-1.32l-.94-2.53.18-2.06z"/>
<path class="gmt-2" id="Africa/Lusaka" d="M514.55 384.7l3.17 4.4 4.91.3 1.74.96 5.14.06 4.43-6.21 12.38-5.54 1.08-4.88-1.44-6.99-6.46-3.68-4.31.3-2.15 4.76.06 2.17 5.08 2.47.3 5.37-4.37.24-1.08-1.81-12.14-5.18-.36 3.98-5.74.18-.24 9.1z"/>
<path class="gmt-2" id="Africa/Blantyre" d="M547.16 379.4l3.11 3.25-.06 4.16.6 1.75 4.13-4.46-.48-5.67-2.21-1.69-2.27-9.66-3.11-.41 1.55 7.17-1.26 5.56z"/>
<path class="gmt-2" id="Africa/Maputo" d="M541.17 413.28l2.69 2.23 6.34-3.86 1.02-5.73v-9.46l10.17-8.32 1.74.06 6.16-5.91-.96-12.18-16.33 2.06.48 3.68 2.81 2.17.66 6.63-5.5 5.37-1.32-3.01.24-3.98-3.17-3.44-7.78 3.62 7.24 3.68.24 10.73-4.79 7.11.06 8.55z"/>
<path class="gmt-2" id="Africa/Windhoek" d="M496.55 421.96l3.35.24 1.97 1.99 4.67.06 1.14-13.26v-8.68l2.99-.6 1.14-9.1 7.6-.24 2.69-2.23-4.55-.18-6.16.84-6.64-2.41h-18.66l.48 5.3 6.22 9.16-1.08 4.7.06 2.47 4.78 11.94z"/>
<path class="gmt-2" id="Africa/Gaborone" d="M508.51 411.23l2.15.66-.3 6.15 2.21.3 5.08-4.58 6.1.66 1.62-4.1 7.72-7.05-9.27-10.67-.12-1.75-1.02-.3-2.81 2.59-7.3.18-1.02 9.1-2.87.66-.17 8.15z"/>
<path class="gmt-2" id="Africa/Harare" d="M524.66 392.3l8.97 10.13 6.88 1.75 4.61-7.23-.36-9.58-7.48-3.86-2.81 1.27-4.19 6.39-5.8-.06.18 1.19z"/>
<path class="gmt-2" id="Africa/Mbabane" d="M540.87 414l-2.51.42-1.08 2.95 1.92 1.75h2.33l1.97-2.83-2.63-2.29z"/>
<path class="gmt-2" id="Africa/Maseru" d="M527.41 425.39l3.05-2.35 1.44.06 1.74 2.17-.18 2.17-2.93 1.08v.84l-3.23-.18-.78-2.35.89-1.44z"/>
<path class="gmt-2" id="Africa/Johannesburg" d="M534.16 403.63l-7.9 7.3-1.88 4.51-6.26-.78-5.21 4.63-3.46-.34.28-6.4-1.23-.43-.86 13.09-6.14-.06-1.85-2.18-2.71-.03 2.47 7.09 4.41 4.17-3.15 3.67 2.04 4.6 4.72 1.8 3.76-3.2 10.77.06.77-.96 4.78-.84 16.17-16.1-.06-5.07-1.73 2.24h-2.59l-3.15-2.64 1.6-3.98 2.75-.56-.25-8.18-6.09-1.41zm-3.79 18.5l1.51-.06 2.45 2.66-.07 3.08-2.87 1.45-.18 1.02-4.38.05-1.37-3.3 1.25-2.42 3.66-2.48z"/>
<path class="gmt-2 dst" id="Africa/Cairo" d="M521.93 243.06l2.67.07 5.2 1.44 2.47.07 3.06-2.56h1.43l2.6 1.44h3.29l.59-.04 2.08 5.98.59 1.93.55 2.89-.98.72-1.69-.85-1.95-6.36-1.76-.13-.13 2.16 1.17 3.74 9.37 11.6.2 4.98-2.73 3.15-25.64-.29-.39-29.94z"/>
<path class="gmt-2 dst" id="Europe/Helsinki" d="M506.79 116.94l2.07.91 1.28 2.4-1.28 1.66-6.42 7.02-1.1 3.7 1.47 5.36 4.95 3.7 6.6-3.14 5.32-.74 4.95-7.95-3.67-8.69-3.49-8.32.55-5.36-2.2-.37-.57-3.91-2.96-4.83-3.28 2.27-1.29 5.27-3.48-2.09-4.84-1.18-1.08 1.26 1.86 1.68 3.39-.06 2.73 4.41.49 7z"/>
<path class="gmt-2 dst" id="Europe/Tallinn" d="M517.77 143.66l-5.6-.2-3.55 2.17-.05 1.61 2.3 2.17 7.15 1.21-.25-6.96z"/>
<path class="gmt-2 dst" id="Europe/Riga" d="M518.07 151.37l-6.85-1.11.15 3.83 6.35 3.88 2.6-.76-.15-2.92-2.1-2.92z"/>
<path class="gmt-2 dst" id="Europe/Vilnius" d="M503.33 160.25l3.78 1.78.15 1.79 1.55-.2 1.55 1.87 3.55-.15 3.4-4.33-.2-2.57-6.3-3.74-2.15-.05-2.95 2.82h-2.5l.12 2.78z"/>
<path class="gmt-2 dst" id="Europe/Kyiv" d="M536.51 193.18l2.89-.11.11-1.56h5.08l5.48-4.39 2.42-2.11.4-6.66-10.8-.97-4.43-6.25-3.06-1.05-3.71.16-1.67 4.13-7.6.1-2.47-1.14-3.58-.18-2.9 1.63.72 3.08-2.68 5.65.02 2.49 1.26.8 8.08.4 2.26-1.87 2.42.81 3.47 4.63-2.54 4.56 3.02.88 3.95-4.55 2.26.41 1.6 1.11z"/>
<path class="gmt-2 dst" id="Europe/Chisinau" d="M520.75 187.71l3.1 4.77-.26 2.7 1.11.05 2.63-4.45-3.16-3.92-1.79-.74-1.63 1.59z"/>
<path class="gmt-2 dst" id="Europe/Bucharest" d="M512.18 187.6l-.26 1.48-5.79 4.82 4.84 7.1 3.1 2.17h5.58l1.84-1.54 2.47-.32 1.84 1.11 3.26-3.71-.63-1.86-3.31-.85-2.26-.11.11-3.18-3-4.72-7.79-.39z"/>
<path class="gmt-2 dst" id="Europe/Sofia" d="M511.44 202.39l.16 4.98 1.68 3.5 6.31.11 2.84-2.01 2.79-1.11-.68-3.18.63-1.7-1.42-.74-1.95.16-1.53 1.54-6.42.05-2.41-1.6z"/>
<path class="gmt-2 dst" id="Europe/Athens" d="M506.71 217.6l-.11 1.33 4.63 2.33 2.21.85-1.16 1.22-2.58.26-.37 1.17.89 2.01 2.89 1.54 1.26.11.16-3.45 1.89-2.28-5.16-6.1.68-2.07 1.21-.05 1.84 1.48 1.16-.58.37-2.07 5.42.05.21-3.18-2.26 1.59-6.63-.16-4.31 2.23-2.24 3.77zm10.05 12.99l1.63.05.68 1.01h2.37l1.58-.58.53.64-1.05 1.38-4.63.16-.84-1.11-.89-.53.62-1.02z"/>
<path class="gmt-2 dst" id="Asia/Famagusta" d="M542.37 232.69l-2.15-1.3 2.99-1.55 1.23.89-2.07 1.96z"/>
<path class="gmt-2 dst" id="Asia/Nicosia" d="M540.22 231.39l2.15 1.3-1.74 1.65-1.82-.06-1.35-.95.18-1.77 2.58-.17z"/>
<path class="gmt-2 dst" id="Asia/Beirut" d="M546.2 232.44l.06 1.95-.82 2.96 2.82.24.18-4.2-2.24-.95z"/>
<path class="gmt-2 dst" id="Asia/Jerusalem" d="M547.083 244.046l-1.06-.06.682-2.221.902.582.533-2.037v-1.89l-2.82-.36-.924 3.345.67.844-.65 2.133 1.374 4.738 1.293-5.074z"/>
<path class="gmt-2 dst" id="Asia/Gaza" d="M546.82 242.064l.701.488-.385 1.27-.875-.013.56-1.745zm-2.496 2.12l.563-1.776-.695-.801-.452 1.483.584 1.094z"/>
<path class="gmt-3" id="Europe/Moscow" d="M 562,172.56 L 568.9,173.59 L 569.81,162.11 L 561.57,162.47 L 562.61,153.66 L 569.35,154.98 L 568.51,151.09 L 577.42,150.53 L 579.77,122 L 586.49,122.06 L 588.07,93.1 L 581.49,91.66 L 579.98,95.71 L 570.18,99.25 L 568.67,96.72 L 555.85,103.81 L 555.6,108.62 L 550.57,109.38 L 552.08,105.84 L 552.08,102.3 L 547.05,100.53 L 543.78,101.8 L 546.54,107.12 L 548.55,110.66 L 548.55,113.45 L 544.78,112.69 L 544.03,111.93 L 540.26,115.98 L 542.27,119.52 L 533.73,119.27 L 536.49,122.82 L 535.74,124.34 L 531.22,124.34 L 527.95,122.06 L 527.2,115.73 L 521.92,113.7 L 521.92,111.17 L 532.98,113.45 L 539.01,113.96 L 541.52,110.16 L 539.26,106.11 L 523.18,99.78 L 517.63,101.16 L 515.73,102.79 L 516.32,106.54 L 518.68,106.95 L 518.13,112.85 L 525.41,129.95 L 520.15,138.29 L 519.79,140.17 L 522.46,142.05 L 520.05,143.64 L 518.45,143.67 L 518.75,151.02 L 520.96,154.15 L 520.99,157.19 L 523.82,157.45 L 528.15,159.1 L 532.73,165.4 L 532.78,167.06 L 531.29,169.61 L 534.71,169.42 L 538.04,170.38 L 542.54,176.75 L 553.62,177.76 L 553.14,185.34 L 549.32,188.61 L 550.11,189.89 L 546.34,193.94 L 545.34,197.74 L 547.6,201.03 L 554.89,203.56 L 557.91,201.79 L 577.26,209.13 L 578.01,207.1 L 573.99,203.3 L 573.99,198.49 L 571.48,197.73 L 561.48,193.25 z"/>
<path class="gmt-3" id="Europe/Volgograd" d="M 568.74,173.79 L 568.59,183.28 L 575.78,189.18 L 571.9,193.49 L 571.61,197.66 L 561.55,193.06 L 562.12,172.5 z"/>
<path class="gmt-3" id="Europe/Minsk" d="M510.66 166.29l1.5 2.47-.6 1.97.1 1.56.55 1.87 3.1-1.76 3.85.1 2.7 1.11h6.85l2-4.79 1.2-1.81v-1.21l-4.3-6.05-3.8-1.51-3.1-.35-2.7.86.1 2.72-3.75 4.74-3.7.08z"/>
<path class="gmt-3" id="Europe/Simferopol" d="M539.38 193.07l-3.11-.06-1.11 2.96 2.5 3.9h2.66l1.37-2.6 2.82-.57.08-2.11-5.21-1.52z"/>
<path class="gmt-3" id="Europe/Istanbul" d="M558.7 209.19l-2.23 2.36-8.2-.24-4.92-2.95-4.8-.12-5.51 3.9-5.16.24-.47 2.95h-5.86l-2.34 2.13v1.18l1.41 1.18v1.3l-.59 1.54.59 1.3 1.88-.94 1.88 2.01-.47 1.42-.7.95 1.05 1.18 5.16 1.06 3.63-1.54v-2.24l1.76.35 4.22 2.48 4.57-.71 1.99-1.89 1.29.47v2.13h1.76l1.52-2.95 13.36-1.42 5.83-.71-1.54-2.02-.03-2.73 1.17-1.4-4.26-3.42.23-2.95h-2.34l-3.88-1.9zm-35.68.51l-.16 3.55 3.1-.95 1.42-.95-.42-1.54-1.47-1.17-2.47 1.06z"/>
<path class="gmt-3" id="Africa/Asmara" d="M556.71 294.7l-.25-5.89 3.96-4.62 1.07.82 1.95 6.52 9.36 6.97-1.7 2.09-6.85-5.89h-7.54z"/>
<path class="gmt-3" id="Asia/Damascus" d="M546.67 229.13l-.35 2.54 2.82 1.18-.12 7.04 2.82-.06 2.82-2.13 1.06-.18 6.4-5.09 1.29-7.39-12.79 1.3-1.35 2.96-2.6-.17z"/>
<path class="gmt-3" id="Asia/Amman" d="M548.9 240.78l-2.46 8.58-.11 1.31h3.87l4.33-3.82.11-1.45-1.77-1.81 3.17-2.63-.46-2.44-.87.2-2.64 1.89-3.17.17z"/>
<path class="gmt-3" id="Africa/Djibouti" d="M571.48 301.54l-.57 3.36 3.96-.06.06-4.94-1.45-.89-2 2.53z"/>
<path class="gmt-3" id="Africa/Addis_Ababa" d="M549.49 311.76l7.28-16.2 7.23.04 6.41 5.57-.45 4.59h4.97l.51 2.76 8.04 4.81 4.96.25-9.43 10.13-12.95 3.99h-3.21l-5.72-4.88-2.26-.95-4.38-6.45-2.89.04-.34-2.96 2.23-.74z"/>
<path class="gmt-3" id="Africa/Mogadishu" d="M596.34 302.37l1.55.93-.17 3.88-4.03 11.48-21.81 23.36-2.53-1.74-.17-9.86 3.28-3.77 6.96-2.15 10.26-11.58-5.84-.41-7.83-4.81-.27-2.66 4.08 2.78 1.21-.06z"/>
<path class="gmt-3" id="Africa/Kampala" d="M538.3 339.09l3.03 2.84 1.9-1.21 5.14-.84.88.09.33-1.95 2.9-6.1-2.44-5.08-7.91.05-.05 2.09 1.06 1.02-.16 2.09-4.68 7z"/>
<path class="gmt-3" id="Africa/Nairobi" d="M550.83 326.52l2.66 5.19-3.19 6.69-.42 2.03 15.93 9.85 4.94-7.76-2.5-2.03-.05-10.22 3.13-3.42-4.99 1.66-3.77.05-5.9-4.98-1.86-.8-3.45.32-.61 1.02.08 2.4z"/>
<path class="gmt-3" id="Africa/Dar_es_Salaam" d="M568.04 369.28l-3.93-7.6-.21-7.28 1.27-3.48-16.62-10.44-5.21.86-1.81 1.34-.16 3.05-1.17 4.23-1.22 1.45-1.75.16 3.35 11.61 5.47 2.57 4.57.51 1.17 5.1 16.25-2.08z"/>
<path class="gmt-3" id="Indian/Comoro" d="M577.69 371.23l.46 1.53 1.98.31.76-1.99-3.2.15z"/>
<path class="gmt-3" id="Indian/Mayotte" d="M580.58 374.3l.76 1.69h1.22l.61-2.15-2.59.46z"/>
<path class="gmt-3" id="Indian/Antananarivo" d="M592.3 372.92l-2.13 5.06-3.65 6.44-6.39.46-2.74 3.22.46 9.82-3.96 4.6.46 7.82 3.35 3.83 3.96-.46 3.96-2.92-.91-4.6 9.13-15.8-1.83-1.99 1.83-3.83 1.98.61.61-1.53-1.83-7.82-1.07-3.22-1.23.31z"/>
<path class="gmt-3" id="Asia/Baghdad" d="M564.31 225.03l-1.56 7.71-6.46 5.38.41 2.54 6.31.43 10.05 8.18 5.62-.16.15-1.89 2.06-2.21 2.88 1.63.38-.36-5.57-7.41-2.64-.16-3.51-4.51.7-3.32 1.07-.14.37-1.47-4.78-5.03-5.48.79z"/>
<path class="gmt-3" id="Asia/Kuwait" d="M583.29 247.17l-2.25-1.22-1.56 1.57.17 3.14 3.63 1.39.01-4.88z"/>
<path class="gmt-3" id="Asia/Riyadh" d="M584 253.24l7.01 9.77 2.26 1.8 1.01 4.38 10.79.85 1.22.64-1.21 5.4-7.09 4.18-10.37 3.14-5.53 5.4-6.57-3.83-3.98 3.48-5.54-9.05-3.8-1.74-1.38-2.09v-4.53l-13.83-16.72-.52-2.96h3.98l4.84-4.18.17-2.09-1.38-1.39 2.77-2.26 5.88.35 10.03 8.36 5.92-.27.38 1.46 4.94 1.9z"/>
<path class="gmt-3" id="Asia/Qatar" d="M592.63 259.02l-.52 4.01 1.54 1.17 1.4-.13.52-5.05-1.21-.87-1.73.87z"/>
<path class="gmt-3" id="Asia/Aden" d="M571.99 289.23l1.44 4.28v4.18l3.46 3.14 24.38-9.93.23-2.73-3.91-7.02-9.81 3.13-5.63 5.54-6.53-3.86-3.63 3.27z"/>
<path class="gmt-3_30" id="Asia/Tehran" d="M569.65 217.95l-1.22 1.27.12 2.01 1.52 2.13 5.39 5.9-.82 2.36h-.94l-.47 2.36 3.05 3.9 2.81.24 5.63 7.79 3.16.24 2.46 1.77.12 3.54 9.73 5.67h3.63l2.23-1.89 2.81-.12 1.64 3.78 10.51 1.46.31-3.86 3.48-1.26.16-1.38-2.77-3.78-6.17-4.96 3.24-2.95-.23-1.3-4.06-.63-1.72-13.7-.2-3.15-11.01-4.21-4.88 1.1-2.73 3.35-2.42-.16-.7.59-5.39-.35-6.8-4.96-2.53-2.77-1.16.28-2.09 2.39-3.69-.7z"/>
<path class="gmt-4" id="Europe/Samara" d="M 562.6,153.66 L568.77,154.85 L 569.24,162.19 L 561.57,162.45 z"/>
<path class="gmt-4" id="Asia/Tbilisi" d="M555.46 204.16l3.27 4.27 4.08 1.88 2.51-.01 4.31-1.17 1.08-1.69-12.75-4.77-2.5 1.49z"/>
<path class="gmt-4" id="Asia/Baku" d="M571.41 207.72l-1.01 1.72 4.71 6.18 1.64-.53 2.7 2.83 1.17-4.96 2.93.47-.12-1.42-4.82-4.22-.92 2.48-6.28-2.55z"/>
<path class="gmt-4" id="Asia/Yerevan" d="M569.72 209.89l4.8 6.26-1.41 1.65-3.4-.59-4.22-3.78.23-2.48 4-1.06z"/>
<path class="gmt-4" id="Asia/Dubai" d="M594.01 264.94l.87 3.48 9.86.87.69-7.14 1.9-1.04.52-2.61-3.11.87-3.46 5.23-7.27.34z"/>
<path class="gmt-4" id="Asia/Muscat" d="M598.38 280.84l7.39-4.26 1.31-6.25-1.62-.93.67-6.7 1.41-.82 1.51 2.37 8.99 4.7v2.61l-10.89 16.03-5.01.17-3.76-6.92z"/>
<path class="gmt-4" id="Indian/Mahe" d="M610.88 349.14l-1.83 1.23 1.37 2.15h1.83l-1.37-3.38zm.76 5.37l-1.22 1.38.91 1.38 1.67.31.15-2.92-1.51-.15zm-9.29 3.83l-.61 1.23 1.67 1.38 1.22-1.38-2.28-1.23z"/>
<path class="gmt-4" id="Indian/Reunion" d="M607.38 402.37l-2.28.15-.15 1.99 1.52.31 2.28-1.07-1.37-1.38z"/>
<path class="gmt-4" id="Indian/Mauritius" d="M613.01 398.99l-1.52 1.99.3 2.15 3.2-2.61-1.98-1.53z"/>
<path class="gmt-4_30" id="Asia/Kabul" d="M614.12 227.05l1.59 12.46 3.96.87.37 2.24-2.84 2.37 5.29 4.27 10.28-3.7.82-4.38 6.47-4.04 2.48-9.36 1.85-1.99-1.92-3.34 6.26-3.87-.8-1.12-2.89.18-.26 2.66-3.88-.04-.07-3.55-1.25-1.49-2.1 1.91.06 1.75-3.17 1.2-5.85-.37-7.6 7.96-6.8-.62z"/>
<path class="gmt-5" id="Asia/Yekaterinburg" d="M625.44 144.24l7.79.34-4.32-25.64 17.42-.49-25.08-43.52-7.34-3.27-3.52 3.04-5.28-6.08-1.01 2.28 5.78 18.23 1.51.51 4.02-2.03 2.01 1.52v3.29l-3.77-1.52-2.26 1.77 1.51 3.29-1.26 8.61-7.79.76-.5-2.79 4.52-2.79 1.01-7.6-5.03-6.58-1.76-11.39-8.04-1.27-.75 4.05 1.51 2.03-3.27 2.79 1.26 7.6 4.77 2.03 1.01 5.57-4.78-3.04-5.73-.84-1.74 28.95-6.56-.05-2.35 28.53-8.91.56 1.22 18.71 1.25 5.05 6.02-3.96 9.05.51 1.51 2.79 9.3.51 6.79-3.8-3.52-3.8.75-7.09 17.59-8.61 7.03 2.6-.06-9.76z"/>
<path class="gmt-5" id="Asia/Aqtobe" d="M599.83 192.74l1.33-5.65 6.28-.25-2.47-15.69-7.7 4.35-9.99-.22-2.09-3.07-7.83-.43-7.42 4.77-.16 6.52 6.91 5.55 4.1-1.75 4.58-.16.32 7h-2.68l-2.05 3.34 2.68 4.45 3.95 2.23.36 2.55 1.45-.48 1.34-1.59 2.21.48 1.11 2.23h2.84v-2.86l-1.74-5.09-.79-4.13 5.46-2.1z"/>
<path class="gmt-5" id="Asia/Almaty" d="M604.97 171.15l2.47 15.69-6.27.22-1.34 5.68 6.38.98 4.26 4.29 9.63-.95 5.37 7.63 6.31.32 1.74-2.86 2.21-.48.32-3.18 3.31-.16 1.74 2.07 1.74-4.13 14.99 2.07 2.52-3.34-4.26-5.25 5.68-12.4 4.58.32 3.16-7.63-6.31-.64-3.63-3.5-10 1.16-6.88-5.07-24.31-9.6-16.89 8.27-.47 5.88 3.95 4.61z"/>
<path class="gmt-5" id="Asia/Tashkent" d="M628.92 219.06l3.08.16v-5.27l-2.92-1.7 4.92-6.2h2l2 2.33 5.23-2.01-7.23-2.48-.28-1.5-1.72.42-1.69 2.94-7.29-.24-5.35-7.57-9.4.93-4.48-4.44-6.2-1.05-4.5 1.83 2.61 8.68.03 2.92 1.9.04 2.33-4.44 6.2.08.92 3.41 13.29 8.82 5.14 1.18 1.41 3.16z"/>
<path class="gmt-5" id="Asia/Ashgabat" d="M593.85 207.59l-.62 2.63h-4.15v3.56l4.46 2.94-1.38 4.03v1.86l1.85.31 2.46-3.25 5.54-1.24 11.84 4.49.15 3.25 6.61.62 7.38-7.75-.92-2.48-4.92-1.08-13.84-8.99-.62-3.25h-5.23l-2.31 4.34h-2.31l-3.99.01z"/>
<path class="gmt-5" id="Asia/Dushanbe" d="M630.19 211.84l4.11-5.1h1.55l.54 1.14-1.9 1.38v1.14l1.25.9 6.01.36 1.96-.84.89.18.6 1.92 3.57.36 1.79 3.78-.54 1.14-.71.06-.71-1.44-1.55-.12-2.68.36-.18 2.52-2.68-.18.12-3.18-1.96-1.92-2.98 2.46.06 1.62-2.62.9h-1.55l.12-5.58-2.51-1.86z"/>
<path class="gmt-5" id="Asia/Karachi" d="M623.13 249.84l2.6 3.86-.25 1.99-3.46 1.37-.25 3.24h3.96l1.36-1.12h7.54l6.8 5.98.87-2.87h5.07l.12-3.61-5.19-4.98 1.11-2.74 5.32-.37 7.17-14.95-3.96-3.11-1.48-5.23 9.64-.87-5.69-8.1-3.03-.82-1.24 1.5-.93.07-5.69 3.61 1.86 3.12-2.1 2.24-2.6 9.59-6.43 4.11-.87 4.49-10.25 3.6z"/>
<path class="gmt-5" id="Indian/Maldives" d="M656.4 320.76l.3 2.61 1.67.61.3-2.3-2.27-.92zm2.13 5.52l-.15 3.22 1.22.61 1.07-2.15-2.14-1.68zm.31 6.29l-1.07 1.07 1.22 1.07 1.52-1.07-1.67-1.07z"/>
<path class="gmt-5" id="Indian/Kerguelen" d="M622.76 499.62l-.15 4.29 5.94 1.38 1.37-3.53-2.13.61-2.74.61-.76-3.22-1.53-.14z"/>
<path class="gmt-5_30" id="Asia/Kolkata" d="M670.98 313.01l4.58-2.24 2.72-9.84-.12-12.08 15.58-16.82v-3.99l3.21-1.25-.12-4.61-3.46-6.73 1.98-3.61 4.33 3.99 5.56.25v2.24l-1.73 1.87.37 1 2.97.12.62 3.36h.87l2.23-3.99 1.11-10.46 3.71-2.62.12-3.61-1.48-2.87-2.35-.12-9.2 6.08.58 3.91-6.46-.02-2.28-2.79-1.24.16.42 3.88-13.97-1-8.66-3.86-.46-4.75-5.77-3.58-.07-7.37-3.96-4.53-9.1.87.99 3.96 4.46 3.61-7.71 15.78-5.16.39-.85 1.9 5.08 4.7-.25 4.75-5.19-.08-.56 2.36 4.31-.19.12 1.87-3.09 1.62 1.98 3.74 3.83 1.25 2.35-1.74 1.11-3.11 1.36-.62 1.61 1.62-.49 3.99-1.11 1.87.25 3.24 16.43 34.1z"/>
<path class="gmt-5_30" id="Asia/Colombo" d="M680.54 308.05l.25 2.72.25 1.98-1.47.25.74 4.45 2.21 1.24 3.43-1.98-.98-4.69.25-1.73-3.19-2.96-1.49.72z"/>
<path class="gmt-5_45" id="Asia/Kathmandu" d="M671.19 242.56l.46 4.27 8.08 3.66 12.95.96-.49-3.13-8.65-2.38-7.34-4.37-5.01.99z"/>
<path class="gmt-6" id="Asia/Omsk" d="M625.44 144.24l13.78.36 4.51 16.53-18.34-7.17.05-9.72z"/>
<path class="gmt-6" id="Asia/Bishkek" d="M636.81 199.21l-.31 2.53.25 1.56 8.7 2.92-7.64 3.08-.87-.72-1.65 1.06.08.58.88.4 5.36.14 2.72-.82 3.49-4.4 4.37.76 5.27-7.3-14.1-1.92-1.95 4.73-2.46-2.64-2.14.04z"/>
<path class="gmt-6" id="Asia/Thimphu" d="M695.4 248.08l1.55 2.12 5.24.04-.53-2.9-6.26.74z"/>
<path class="gmt-6" id="Asia/Dhaka" d="M695.57 253.11l-1.31 2.37 3.4 6.46.1 5.04.62 1.35 3.99.07 2.26-2.17 1.64.99.33 3.07 1.31-.82.08-3.92-1.1-.13-.69-3.33-2.78-.1-.69-1.85 1.7-2.27.03-1.12h-4.94l-3.95-3.64z"/>
<path class="gmt-6_30" id="Asia/Yangon" d="M729.44 303.65l-2.77-4.44 2.01-2.82-1.9-3.49-1.79-.34-.34-5.86-2.68-5.19-.78 1.24-1.79 3.04-2.24.34-1.12-1.47-.56-3.95-1.68-3.16-6.84-6.45 1.68-1.11.31-4.67 2.5-4.2 1.08-10.45 3.62-2.47.12-3.81 2.17.72 3.42 4.95-2.54 5.44 1.71 4.27 4.23 1.66.77 4.65 5.68.88-1.57 2.71-7.16 2.82-.78 4.62 5.26 6.76.22 3.61-1.23 1.24.11 1.13 3.92 5.75.11 5.97-1.15 2.08z"/>
<path class="gmt-7" id="Asia/Novosibirsk" d="M695.32 153.96l-1.81-10.71-8.41-1.81 6.54-49.05-14.67-46.78-6.28 5.82-.25 3.54-4.02.25-.5-4.05 12.82-11.14v-7.6l-8.29-2.28-10.81 3.54-4.52-4.56h-2.01l-2.51 5.06 2.01 2.28-14.33 7.85-12.31 9.37-7.54 10.38v4.3l8.04 3.29-5.78 3.02 25.48 43.78-17.26.48 4.21 25.63 6.1.03 4.59 16.83 6.03 4.68 10.05-1.01 3.52 3.54 9.55 1.01 6.28-8.61 8.04 3.55 4.27.76 4.27-3.8-3.77-2.53 3.27-5.06z"/>
<path class="gmt-7" id="Asia/Hovd" d="M687.1 165.8l.96 19.45-3.14-.18-6.4-10.85-3.11-.2-1.61-3.85 5.82-7.72 7.48 3.35z"/>
<path class="gmt-7" id="Asia/Bangkok" d="M730.03 270.47l3.24 4.17v5.07l1.12.56 5.15-2.48 1.01.34 6.15 7.1-.22 4.85-2.01-.34-1.79-1.13-1.34.11-2.35 3.94.45 2.14 1.9 1.01-.11 2.37-1.34.68-4.59-3.16v-2.82l-1.9-.11-.78 1.24-.4 12.62 2.97 5.42 5.26 5.07-.22 1.47-2.8-.11-2.57-3.83h-2.69l-3.36-2.71-1.01-2.82 1.45-2.37.5-2.14 1.58-2.8-.07-6.44-3.86-5.58-.16-.68 1.25-1.26-.29-4.43-5.14-6.51.6-3.75 6.37-2.69z"/>
<path class="gmt-7" id="Asia/Vientiane" d="M735.47 262.93l-2.42 1.23-2.01 5.86 3.36 4.28-.56 4.73.56.23 5.59-2.71 7.5 8.38-.18 5.28 1.63.88 4.03-3.27-.33-2.59-11.63-11.05.11-1.69 1.45-1.01-1.01-2.82-4.81-.79-1.28-4.94z"/>
<path class="gmt-7" id="Asia/Ho_Chi_Minh" d="M745.06 304.45l1.19 1.87.22 2.14 3.13.34 3.8-5.07 3.58-1.01 1.9-5.18-.89-8.34-3.69-5.07-3.89-3.11-4.95-8.5 3.55-5.94-5.08-5.83-4.07-.18-3.66 1.97 1.09 4.71 4.88.86 1.31 3.63-1.72 1.12.11.9 11.45 11.2.45 3.29-.69 10.4-8.02 5.8z"/>
<path class="gmt-7" id="Asia/Phnom_Penh" d="M740.48 299.47l4.09 4.37 7.61-5.64.67-8.9-3.93 2.71-2.04-1.14-2.77-.37-1.55-1.09-.75.04-2.03 3.33.33 1.54 2.06 1.15-.25 3.13-1.44.87z"/>
<path class="gmt-7" id="Asia/Jakarta" d="M722.48 317.57l-.28 2.28 6.79 11.41h1.98l14.15 23.67 5.66.57 2.83-8.27-4.53-2.85-.85-4.56-25.75-22.25zm30.69 40.75l-2.75 1.88.59 1.58 8.75 1.98 4.42.79 1.87 1.98 5.01.4 2.36 1.98 2.16-.5 1.97-1.78-3.64-1.68-3.14-2.67-8.16-1.98-9.44-1.98zm23.47-8.8l2.31-3.71.42-12.59-12.53 4.09-3.75-4.4-1.82.5 3.4 13.12 5.09.57 6.88 2.42z"/>
<path class="gmt-8" id="Asia/Irkutsk" d="M715.51 159.44l12.87-40.74-26.78-9.01L691.52 92l-6.42 49.44 8.38 1.8 1.72 10.9 9.42 2.86 2.01 4.05 4.02.25 2.51-1.77 2.35-.09z"/>
<path class="gmt-8" id="Asia/Ulaanbaatar" d="M688.06 185.29l-.96-19.49 4.26 1.15 5.82-5.34-3.95-2.91 2.6-3.67 7.76 2.74 2.69 4.41 4.86.13 2.54-1.89 5.23-.21 1.14 1.94 8.69.44 5.5-5.61 7.61.8-.44 7.64 3.33.76 4.09-1.86 4.33 2.14-.1 1.08-3.14.09-3.27 6.86-2.54.25-9.88 12.91-10.09 4.45-6.31.49-5.24-3.38-6.7 3.58-6.6-2.05-1.87-4.79-9.36-.66z"/>
<path class="gmt-8" id="Asia/Shanghai" d="M670.4 170.07l-3.46 8.7-4.77-.25-5.03 11.01 4.27 5.44-8.8 12.15-4.52-.76-3.02 3.8.75 2.28 3.52.25 1.76 4.05 3.52.76 10.81 13.93v7.09l5.28 3.29 5.78-1.01 7.29 4.3 8.8 2.53 4.27-.51 4.78-.51 10.05-6.58 3.27.51 1.25 2.97 2.77.83 3.77 5.57-2.51 5.57 1.51 3.8 4.27 1.52.75 4.56 5.03.51.75-2.28 7.29-3.8 4.52.25 5.28 5.82 3.52-1.52 2.26.25 1.01 2.79 1.76.25 2.51-3.54 10.05-3.8 9.05-10.89 3.02-10.38-.25-6.84-3.77-.76 2.26-2.53-.5-4.05-9.55-9.62v-4.81l2.76-3.54 2.76-1.27.25-2.79h-7.04l-1.26 3.8-3.27-.76-4.02-4.3 2.51-6.58 3.52-3.8 3.27.25-.5 5.82 1.76 1.52 4.27-4.3 1.51-.25-.5-3.29 4.02-4.81 3.02.25 1.76-5.57 2.06-1.09.21-3.47-2-2.1-.17-5.48 3.85-.25-.25-14.13-2.7 1.62-1.01 3.62-4.51-.01-13.07-7.35-9.44-11.38-9.58-.1-2.44 2.12 3.1 7.1-1.08 6.66-3.86 1.6-2.17-.17-.16 6.59 2.26.51 4.02-1.77 5.28 2.53v2.53l-3.77.25-3.02 6.58-2.76.25-9.8 12.91-10.3 4.56-7.04.51-4.77-3.29-6.79 3.55-7.29-2.28-1.76-4.81-12.31-.76-6.53-10.63h-2.76l-2.22-4.93-2.64-.21zm89.43 100.1l-2.39.67-1.72 2.12 1.43 2.79 2.1.19 2.39-2.12.57-2.79-2.38-.86z"/>
<path class="gmt-8" id="Asia/Taipei" d="M787.46 248.31l-3.54 2.7-.19 5.2 3.06 3.56.76-.67-.09-10.79z"/>
<path class="gmt-8" id="Asia/Kuala_Lumpur" d="M764.14 332.92l3.02 3.49 11.58-4.01 2.29-8.84 5.16-.37 4.72-3.42-6.12-4.46-1.4-2.45-3.02 5.57 1.11 3.2-1.84 2.67-3.47-.89-8.41 6.17.22 3.57-3.84-.23zm-31.43-17.47l2.01 4.51.45 5.86 2.69 4.17 6.49 3.94 2.46.23-.45-4.06-2.13-5.18-3.12-6.63-.26 1.16-3.76-.17-2.7-3.88-1.68.05z"/>
<path class="gmt-8" id="Asia/Brunei" d="M779.77 319.25l-2.88 3.49 2.36.74 1.33-1.86-.81-2.37z"/>
<path class="gmt-8" id="Asia/Manila" d="M789.37 297.53l-.86 1.64-.48 2.02-4.78 6.07.29 1.25 2.01-.29 6.21-6.94-2.39-3.75zm7.74-2.31l-.1 5.01 1.82 1.83.67 3.56 1.82.39.86-2.22-1.43-1.06-.38-6.26-3.26-1.25zm5.17 1.93l-.1 4.43 1.05 1.73 1.82-2.12-.48-3.85-2.29-.19zm1.14-3.86l1.82 2.41.86 2.31h1.63l-.29-3.95-1.82-1.25-2.2.48zm3.54 9.06l.38 2.89-3.35 2.7-2.77.29-2.96 3.18.1 1.45 2.77-.87 1.91-1.25 1.63 4.14 2.87 2.02 1.15-.39 1.05-1.25-2.29-2.31 1.34-1.06 1.53 1.25 1.05-1.73-1.05-2.12-.19-4.72-3.17-2.22zm-15.58-29.38l-2.58 1.83-.29 5.78 4.02 7.8 1.34 1.06 1.72-1.16 2.96.48.57 2.6 2.2.19 1.05-1.44-1.34-1.83-1.63-1.54-3.44-.38-1.82-2.99 2.1-3.18.19-2.79-1.43-3.56-3.62-.87z"/>
<path class="gmt-8" id="Asia/Makassar" d="M789.53 349.11l2.26 2.77-1.47 4.16v.79h3.34l1.18-10.4 1.08.3 1.96 9.5 1.87.5 1.77-4.06-1.77-6.14-1.47-2.67 4.62-3.37-1.08-1.49-4.42 2.87h-1.18l-2.16-3.17.69-1.39 3.64-1.78 5.5 1.68 1.67-.1 4.13-3.86-1.67-1.68-3.83 2.97h-2.46l-3.73-1.78-2.65.1-2.95 4.75-1.87 8.22-1 3.28zm-10.16-16.03l-.34 12.62-2.48 3.97v2.57l3.11-.57 4.53-6.27v-5.13l2.55-5.13 2.83.57-3.4-7.13-.52-4.59-3.97.41-2.31 8.68zm2.4 33.85l-2.16 1.19 1.28 1.39 3.14-1.19-2.26-1.39zm3.73-.89l.39 1.88 2.26.59.88-1.09-.98-1.49-2.55.11zm5.41 4.95l-2.75.4 2.46 2.08h1.96l-1.67-2.48zm.78-3.27l-.59 1.19 4.42.69 3.44-1.98-1.96-.59-3.14.89-1.18-.99-.99.79zm14.54 3.27l-.278-2.586-4.922 4.276.49 1.09 2.16-.4 2.55-2.38z"/>
<path class="gmt-8" id="Australia/Perth" d="M806.13 451.63l6.44-58.93-2.07.57-.35-5.72-18.8 11.44.35 4.29-2.84 3.93h-7.1l-15.26 6.43-5.33 14.34-.35 25.38-3.9 2.86-.35 2.5 5.32 3.57 13.13-2.5h6.74l2.48-3.58 14.9-2.86 6.99-1.72z"/>
<path class="gmt-8_45" id="Australia/Eucla" d="M799.05 453.37l6.99 2.07.09-3.93-7.08 1.86z"/>
<path class="gmt-9" id="Asia/Yakutsk" d="M779.06 157.14l-2.3-21.47-14.44-6.51 7.11-52.56-14.42 6.73-15.59-42.55-13.71 1.53 1.01 5.06-14.58-2.53 3.52-6.58-14.83-.76 1.26 6.84-4.77 2.28-4.02-3.8-16.18 3.26 14.37 45.83 10.11 17.78 26.62 8.96-12.46 40 4.19.63.75 1.77 7.79.51 5.28-5.57 10.81 1.27 3.27-1.27 1-6.08-3.27-7.34 3.27-2.79h10.3l9.8 11.65 10.11 5.71z"/>
<path class="gmt-9" id="Asia/Pyongyang" d="M778.28 194.27l1.84.77.56 6.44 3.65.21 3.44-4.03-1.19-1.06.14-4.32 3.16-3.82-1.61-2.9 1.05-1.2.58-3-1.83-.83-1.56.79-1.93 5.86-3.12-.27-3.61 4.26.43 3.1z"/>
<path class="gmt-9" id="Asia/Seoul" d="M788.34 198.2l6.18 5.04 1.05 4.88-.21 2.62-3.02 3.4-2.6.14-2.95-6.37-1.12-3.04 1.19-.92-.28-1.27-1.47-.66 3.23-3.82z"/>
<path class="gmt-9" id="Asia/Tokyo" d="M803.23 216.42l-1.63 1.64.67 2.31 1.43.1.96 5.01 1.15 1.25 2.01-1.83.86-3.28-2.49-3.56-2.96-1.64zm8.8-3.27l-2.77 2.6-.1 2.99.67.87 3.73-3.18-.29-3.18-1.24-.1zm-3.83-6.17l-4.88 5.59.86 1.35 2.39.29 4.49-3.47 3.16-.58 2.87 3.37 2.2-.77.86-3.28 4.11-.1 4.02-4.82-2.1-8-.96-4.24 2.1-1.73-4.78-7.22-1.24.1-2.58 2.89v2.41l1.15 1.35.38 6.36-2.96 3.66-1.72-1.06-1.34 2.99-.29 2.79 1.05 1.64-.67 1.25-2.2-1.83h-1.53l-1.34.77-1.05.29zm8.23-43.54l-1.53 1.35.77 2.89 1.34 1.35-.1 4.43-1.72.67-1.34 2.99 3.92 5.39 2.58-.87.48-1.35-2.77-2.5 1.72-2.22 1.82.29 1.43 1.54.1-3.18 3.92-3.18 2.2-.58-1.82-3.08-.86-1.35-1.43.96-1.24 1.54-2.68-.58-2.77-1.83-2.02-2.68z"/>
<path class="gmt-9" id="Asia/Jayapura" d="M814.19 330.5l-1.87 4.55 2.95 3.86h.98l1.28-2.57.69-.89-1.28-1.39-1.87-.69-.88-2.87zm5.8 14.95l-4.03.89-1.18 1.29.98 1.68 2.65-.99 1.67-.99 2.46 1.98 1.08-.89-1.96-2.38-1.67-.59zm11.94-6.11l-4.17.47-2.68 1.96 1.11 2.24 4.54.84v.84l-2.87 2.33 1.39 4.85 1.39.09 1.2-4.76h2.22l.93 4.66 10.83 8.96.28 7 3.7 4.01 1.67-.09.37-24.72-6.29-4.38-5.93 4.01-2.13 1.31-3.52-2.24-.09-7.09-1.95-.29z"/>
<path class="gmt-9" id="Asia/Dili" d="M806.14 368.42l.253 2.548 4.847-.668-.98-1.68-4.12-.2z"/>
<path class="gmt-9_30" id="Australia/Darwin" d="M828.99 440.12l10.22-37.21-6.72-6.77 4.97-13.23-9.22-1.79-10.29 2.86-2.84 8.22-2.59.52-5.27 44.94 21.74 2.46z"/>
<path class="gmt-9_30 dst" id="Australia/Adelaide" d="M821.82 484.15l12.7-43.73-27.25-2.9-1.45 17.85 3.96 1.2-.71 4.29 1.42 4.29 8.16-1.43.35 2.14-5.32 3.93 1.77 1.43 3.9-1.43-1.06 11.8 3.53 2.56z"/>
<path class="gmt-10" id="Asia/Vladivostok" d="M794.02 98.06l-10.38-20.68-15.17-4.61-13.3-44.65-13.88 2.8-2.01 5.06 2.51.76-2.06 4.88 15.28 41.71 14.32-6.68-7.01 52.51 14.55 7.54 1.47 20.03 6.94 1.79.5-3.04 4.52-2.79.5 16.46-4.02.25v4.05l2.26 2.79-.42 3.62 1.67.69 1.01-2.53 1.51.51 1 1.01 4.52-1.01 4.52-13.17.5-16.46-5.78-13.17-7.29-8.86-3.52.51v2.79l-8.54-3.29 3.27-7.09 2.76-18.74 9.77-2.99z"/>
<path class="gmt-10" id="Pacific/Port_Moresby" d="M852.76 348.29l-.37 24.44 3.52-.19 4.63-5.41 3.89.19 2.5 2.24.83 6.9 7.96 4.2 2.04-.75v-2.52l-6.39-5.32-3.15-7.28 2.5-1.21-1.85-4.01-3.7-.09-.93-4.29-9.81-6.62-1.67-.28zm30.13 6.74l-.95.22-.58 2.57-1.82 1.18-5.47.96.22 2.06 5.76-.29 3.65-2.28-.22-3.97-.59-.45zm-2.41-6.03l-.88 1.25 4.81 4.26.66 2.5 1.31-.15.15-2.57-1.46-1.32-4.59-3.97z"/>
<path class="gmt-10" id="Australia/Brisbane" d="M831.98 449.16l37.05 1.32 2.13-13.58-5.32-6.79 2.13-1.43-4.26-13.23-4.61-3.22.71-17.87-4.26-3.22-1.06-10.01h-2.13l-7.1 23.59-3.9.36-2.15-2.17-10.19 37.07 5.5.44-2.54 8.74z"/>
<path class="gmt-10 dst" id="Australia/Sydney" d="M868.95 450.47l-36.97-1.3-10.16 34.98 3.92 3.16 4.26-1.43 2.13 2.14 12.42-1.79 11.71-18.95 4.26-1.07 8.43-15.74zm-43.21 45.79l-1.77 7.15.35 5 5.32-.36 6.03-9.29-9.93-2.5z"/>
<path class="gmt-11" id="Asia/Sakhalin" d="M825.51 67.36l-.98-11.39-25.08-9.8-.59-15.78-4.55 1.79-2.76-5.82h-11.06l-5.03 5.32-20.29-3.56 13.3 44.65 15.45 5.16 9.11 20.43 8.31-4.39h6.03L805.86 96l1.51 2.53 5.28-5.57 3.02.25-.5-3.29-4.78-1.01 3.27-11.9 4.31-4.08 1.76 6.08 3.52 1.01 3.52-5.57-2.01-3.8.75-3.29zm-26.87 55.23l-.09 6.17 7.74 11.95 2.77 10.4 4.88 9.25 1.91.67 1.63-1.35.76-2.22-6.98-7.61.19-3.95 1.53-.67.38-2.31-13.67-19.36-1.05-.97z"/>
<path class="gmt-11" id="Pacific/Bougainville" d="M889.38 359.51l1.24 3.45 2.19 2.13.66-.59-.22-2.28-2.48-3.01-1.39.3z"/>
<path class="gmt-11" id="Pacific/Guadalcanal" d="M895.43 364.65l.15 2.28 1.39 1.32 1.31-.81-1.17-2.43-1.68-.36zm1.75 5.66l-1.17 1.25 1.24 2.28 1.46.44-.07-1.54-1.46-2.43zm2.85-1.32l1.02 2.5 1.97 2.35 1.09-1.76-1.46-2.5-2.62-.59zm5.11 3.75l.58 3.09 1.39 1.91 1.17-2.42-3.14-2.58zm1.6 6.91l-.51.88 1.68 2.21 1.17.07-.73-2.87-1.61-.29zm-3.72 4.4l-1.75.81 1.53 2.13 1.31-.74-1.09-2.2z"/>
<path class="gmt-11" id="Pacific/Efate" d="M920.87 397.22l-1.24 1.66.52 1.87.62.42 1.13-1.46-1.03-2.49zm.62 5.09l.1 1.35 1.34.42.93-.52-.93-1.46-1.44.21zm1.96 12.06l-.62.94.93 1.04 1.55-.52-1.86-1.46z"/>
<path class="gmt-11" id="Pacific/Noumea" d="M906.64 420.47l-.35 1.79 4.61 6.43 2.48 1.07.35-2.5-7.09-6.79z"/>
<path class="gmt-12" id="Asia/Kamchatka" d="M798.72 30.45l.73 15.72 24.28 9.49 1.75 11.85 5.31-.15-1.26 2.53.5 9.12-7.54 18.74.75 4.05-.25 6.84 14.07 20.51 2.76.76.25-16.71 2.76-2.53-3.02-6.58 2.51-2.79-5.53-7.34-3.02.25-1-12.15 7.79-2.03.5-3.55 4.02-1.01 2.26 2.03 2.76-11.14 4.77-8.1 3.77-2.03 3.27.25v-3.8l-5.28-1.01-7.29-6.08 3.52-4.05-3.02-6.84 2.51-2.53 3.02 4.05 7.54 2.79 8.29.76 1.01-3.54-4.27-4.3 4.77-6.58-10.81-3.8-2.76 5.57-3.52-4.56-19.85-6.84-18.85 3.29-2.76 1.52v1.52l4.02 2.03-.5 4.81-7.29-3.04-11.67 4.6z"/>
<path class="gmt-12 dst" id="Pacific/Auckland" d="M913.02 481.96l1.06 11.8-1.42 5.36-5.32 3.93.35 4.65v5l1.42 1.79 14.55-12.51v-2.86h-3.55l-4.97-16.8-2.12-.36zm-10.64 25.74l2.84 5.36-7.81 7.51-.71 3.93-5.32.71-8.87 8.22-8.16-3.93-.71-2.86 14.9-6.43 13.84-12.51z"/>
<path class="gmt12" id="Etc/GMT+12" d="M50 0h34v15H50z"/>
<path class="gmt11" id="Etc/GMT+11" d="M84 0h33v15H84z"/>
<path class="gmt10" id="Etc/GMT+10" d="M117 0h33v15h-33z"/>
<path class="gmt9" id="Etc/GMT+9" d="M150 0h33v15h-33z"/>
<path class="gmt8" id="Etc/GMT+8" d="M183 0h33v15h-33z"/>
<path class="gmt7" id="Etc/GMT+7" d="M216 0h33v15h-33z"/>
<path class="gmt6" id="Etc/GMT+6" d="M249 0h33v15h-33z"/>
<path class="gmt5" id="Etc/GMT+5" d="M282 0h33v15h-33z"/>
<path class="gmt4" id="Etc/GMT+4" d="M315 0h30v15h-30z"/>
<path class="gmt3" id="Etc/GMT+3" d="M345 0h30v15h-30z"/>
<path class="gmt2" id="Etc/GMT+2" d="M375 0h30v15h-30z"/>
<path class="gmt1" id="Etc/GMT+1" d="M405 0h30v15h-30z"/>
<path class="gmt" id="Etc/GMT" d="M435 0h30v15h-30z"/>
<path class="gmt" id="Etc/UTC" d="M435 15h30v15h-30z"/>
<path class="gmt-1" id="Etc/GMT-1" d="M465 0h30v15h-30z"/>
<path class="gmt-2" id="Etc/GMT-2" d="M495 0h30v15h-30z"/>
<path class="gmt-3" id="Etc/GMT-3" d="M525 0h30v15h-30z"/>
<path class="gmt-4" id="Etc/GMT-4" d="M555 0h30v15h-30z"/>
<path class="gmt-5" id="Etc/GMT-5" d="M585 0h30v15h-30z"/>
<path class="gmt-6" id="Etc/GMT-6" d="M615 0h30v15h-30z"/>
<path class="gmt-7" id="Etc/GMT-7" d="M645 0h30v15h-30z"/>
<path class="gmt-8" id="Etc/GMT-8" d="M675 0h30v15h-30z"/>
<path class="gmt-9" id="Etc/GMT-9" d="M705 0h30v15h-30z"/>
<path class="gmt-10" id="Etc/GMT-10" d="M735 0h30v15h-30z"/>
<path class="gmt-11" id="Etc/GMT-11" d="M765 0h40v15h-40z"/>
<path class="gmt-12" id="Etc/GMT-12" d="M805 0h40v15h-40z"/>
<path class="gmt-13" id="Etc/GMT-13" d="M845 0h40v15h-40z"/>
<path class="gmt-14" id="Etc/GMT-14" d="M885 0h45v15h-45z"/>
</g></svg>
