<?xml version="1.0" encoding="UTF-8" standalone="no"?>
<svg xmlns:svg="http://www.w3.org/2000/svg" xmlns="http://www.w3.org/2000/svg" viewBox="50 15 880 520" width="100%" height="100%">
<defs>
<!--gmt(x) -> (9 - x) * 36deg, for dst add 12deg-->
<style>
svg {
	pointer-events: none;
}
svg > * {
	pointer-events: auto;
}
path.selected,
path:hover {
	stroke: black;
	z-index: 1; /*SVG 2, unsupported*/
}
.gmt9.dst {
	fill: hsl(12, 50%, 50%);
}
.gmt8.dst {
	fill: hsl(48, 50%, 50%);
}
.gmt7 {
	fill: hsl(72, 50%, 50%);
}
.gmt7.dst {
	fill: hsl(84, 50%, 50%);
}
.gmt6 {
	fill: hsl(108, 50%, 50%);
}
.gmt6.dst {
	fill: hsl(120, 50%, 50%);
}
.gmt5 {
	fill: hsl(144, 50%, 50%);
}
.gmt5.dst {
	fill: hsl(156, 50%, 50%);
}
.gmt4 {
	fill: hsl(180, 50%, 50%);
}
.gmt4.dst {
	fill: hsl(192, 50%, 50%);
}
.gmt3_30.dst {
	fill: hsl(210, 50%, 50%);
}
.gmt3 {
	fill: hsl(216, 50%, 50%);
}
.gmt3.dst {
	fill: hsl(228, 50%, 50%);
}
.gmt {
	fill: hsl(324, 50%, 50%);
}
.gmt.dst {
	fill: hsl(336, 50%, 50%);
}
.gmt-1 {
	fill: hsl(0, 50%, 50%);
}
.gmt-1.dst {
	fill: hsl(12, 50%, 50%);
}
.gmt-2 {
	fill: hsl(36, 50%, 50%);
}
.gmt-2.dst {
	fill: hsl(48, 50%, 50%);
}
.gmt-3 {
	fill: hsl(72, 50%, 50%);
}
.gmt-3_30.dst {
	fill: hsl(102, 50%, 50%);
}
.gmt-4 {
	fill: hsl(108, 50%, 50%);
}
.gmt-4_30 {
	fill: hsl(126, 50%, 50%);
}
.gmt-5 {
	fill: hsl(144, 50%, 50%);
}
.gmt-5_30 {
	fill: hsl(162, 50%, 50%);
}
.gmt-5_45 {
	fill: hsl(171, 50%, 50%);
}
.gmt-6 {
	fill: hsl(180, 50%, 50%);
}
.gmt-6_30 {
	fill: hsl(198, 50%, 50%);
}
.gmt-7 {
	fill: hsl(216, 50%, 50%);
}
.gmt-8 {
	fill: hsl(252, 50%, 50%);
}
.gmt-8_30 {
	fill: hsl(270, 50%, 50%);
}
.gmt-8_45 {
	fill: hsl(279, 50%, 50%);
}
.gmt-9 {
	fill: hsl(288, 50%, 50%);
}
.gmt-9_30 {
	fill: hsl(306, 50%, 50%);
}
.gmt-9_30.dst {
	fill: hsl(318, 50%, 50%);
}
.gmt-10 {
	fill: hsl(324, 50%, 50%);
}
.gmt-10.dst {
	fill: hsl(336, 50%, 50%);
}
.gmt-11 {
	fill: hsl(0, 50%, 50%);
}
.gmt-12 {
	fill: hsl(36, 50%, 50%);
}
.gmt-12.dst {
	fill: hsl(48, 50%, 50%);
}
</style>
<script>//<![CDATA[
(function () {
"use strict";

if (typeof window === 'undefined') {
	return;
}

var prevSelected;
function select (id) {
	if (prevSelected) {
		prevSelected.classList.remove('selected');
	}
	prevSelected = document.getElementById(id);
	if (prevSelected) {
		prevSelected.classList.add('selected');
	}
}

function onClick (el) {
	var id = el.id;
	if (id && window.parent) {
		parent.postMessage(id, '*');
	}
}

function init () {
	window.addEventListener('message', function (e) {
		select(e.data);
	});
	window.addEventListener('click', function (e) {
		onClick(e.target);
	});
}

window.addEventListener('load', init);
})();
//]]></script>
</defs>
<path class="gmt9 dst" id="America/Anchorage" d="M93.11 44.89L84.72 46.88 86.45 56.33 95.58 58.82 96.07 60.81 82.5 65.04 74.85 77.72 77.56 91.15 82 94.13 85.46 90.9 86.45 92.89 82.25 97.86 65.96 105.32 55.59 107.81 55.34 111.54 79.28 104.58 89.15 101.84 98.28 90.65 108.4 83.94 103.22 92.64 108.9 93.39 118.53 89.16 120.26 96.12 126.92 97.61 133.83 104.32 134.32 109.29 133.33 110.53 134.56 115.25 136.29 115.25 136.54 107.29 138.51 107.29 139 126.93 143.94 122.7 140.48 102.31 135.3 102.31 129.62 95.1 157.51 47.85 129.87 26.22 99.02 32.19 97.79 41.64 104.45 45.62 101.98 52.09 93.11 44.89 93.11 44.89z"/>
<path class="gmt8 dst" id="America/Vancouver" d="M163.06 56.15L166.68 95.05 153.12 94.09 152.54 106.79 162.97 123.93 162.95 159.72 148.97 157.42 147.8 152.63 141.32 146.61 141.32 141.59 142.32 137.07 141.82 134.56 139.33 132.05 138.83 128.03 145.31 123.51 141.32 101.93 135.84 101.68 130.86 95.15 158.22 48.66 158.22 48.66 160.21 51.67 161.21 55.69 163.06 56.15z"/>
<path class="gmt8 dst" id="America/Los_Angeles" d="M146.05 224.49L147.81 211.55 149.32 210.58 153.94 187.17 149.7 185.92 152.71 174.02 156.56 173.7 160.69 168.42 160.33 160.24 148.76 158.34 148.76 158.34 147.76 162.36 144.27 160.1 142.53 160.1 141.53 164.37 129.32 191.73 132.56 215.57 136.55 217.58 137.3 224.11 146.05 224.49z"/>
<path class="gmt8 dst" id="America/Tijuana" d="M142.19 240.29L146.27 240.15 144.57 234.59 145.32 227.79 147.92 228.21 148.28 227.47 145.05 225.04 137.49 225.43 137.49 225.43 142.19 240.29z"/>
<path class="gmt7" id="America/Fort_Nelson" d="M177.24 95.8L162.87 123.76 152.65 106.98 153.12 94.09 177.24 95.8z"/>
<path class="gmt7" id="America/Phoenix" d="M153.49 230.13L160.73 230.76 162.73 211.12 149.7 208.26 149.32 210.58 147.82 211.49 146.04 224.58 153.49 230.13z"/>
<path class="gmt7" id="America/Hermosillo" d="M154.91 249.57L160.26 231.88 152.99 231.01 148.26 227.45 147.91 228.24 148.82 230.31 147.82 236.1 154.91 249.57z"/>
<path class="gmt7 dst" id="America/Edmonton" d="M258.85 67.23L254.42 96.5 236.66 90.27 231.57 102.45 200.83 98.52 182.36 162.98 162.95 159.66 163.02 123.46 177.24 95.8 166.59 95.04 163.07 56.32 166.19 56.94 169.68 53.18 172.67 54.69 181.14 55.44 187.12 52.93 188.12 61.21 191.61 61.21 191.61 57.7 195.1 57.95 203.82 68.24 209.55 71.75 206.56 76.52 207.81 77.77 219 80.03 219.25 85.05 222.24 85.55 222.99 78.02 227.72 76.77 231.21 82.04 238.68 85.55 242.42 86.3 244.91 83.29 245.16 78.52 249.64 75.76 251.13 79.78 247.14 86.81 247.64 90.32 249.88 86.81 254.36 82.79 254.61 77.52 252.12 73.5 252.87 70.24 258.85 67.23zM203.73 35.89L203.95 39.91 195.97 48.18 197.97 54.88 203.73 53.32 207.06 48.4 215.48 45.27 222.35 44.82 217.03 39.01 214.37 41.02 212.37 40.35 211.26 37.89 208.82 35.43 203.73 35.89 203.73 35.89zM222.58 47.96L214.16 50.19 209.28 54.44 209.72 59.13 218.59 61.81 216.59 66.28 210.16 62.26 208.39 65.61 212.6 68.51 212.38 73.2 218.81 74.99 226.57 74.54 227.9 72.08 233.66 78.56 237.65 77.22 238.32 72.75 241.2 74.76 241.64 70.29 238.09 68.06 238.31 53.99 235.21 51.53 231.89 56 222.58 47.96 222.58 47.96zM229.23 30.31L222.36 33.21 222.36 35.44 231.23 38.79 229.23 41.02 230.56 43.92 236.1 41.46 240.76 41.46 242.98 45.03 246.75 41.23 245.86 37.65 242.76 38.77 242.32 34.3 243.87 31.62 242.32 31.62 239.88 33.18 238.77 34.07 239.44 37.2 237.67 38.54 235.01 38.32 234.34 34.3 229.23 30.31 229.23 30.31zM249.63 57.79L246.75 56.45 245.2 58.46 248.3 63.38 248.52 68.07 255.17 64.05 255.17 58.24 257.61 55.78 255.17 53.99 251.18 53.99 249.63 57.79 249.63 57.79z"/>
<path class="gmt7 dst" id="America/Denver" d="M170.98 235.89L174.82 229.62 179.18 209.49 192.7 190.43 192.95 165.93 159.99 160.19 160.68 168.27 156.68 173.55 152.71 174.02 149.7 185.92 153.73 187.11 149.68 208.37 162.73 211.12 160.72 230.83 169.18 231.64 170.98 235.89z"/>
<path class="gmt7 dst" id="America/Chihuahua" d="M160.92 260.84L163.08 246.56 173.59 242.48 169.88 240.35 168.36 232.62 160.26 231.87 154.89 249.65 160.92 260.84zM146.25 240.08L142.32 240.29 140.07 241.9 140.32 244.92 144.57 248.19 144.57 254.24 149.82 259.28 147.57 244.42 146.25 240.08z"/>
<path class="gmt6" id="America/Regina" d="M231.57 102.46L201 166.01 182.36 162.96 200.83 98.52 231.57 102.46z"/>
<path class="gmt6" id="America/Belize" d="M204.56 282.4L204.51 286.05 205.35 286.05 208.21 280.71 206.27 280.71 204.56 282.4 204.56 282.4z"/>
<path class="gmt6" id="America/Guatemala" d="M194.88 291.52L200.81 295.86 206.79 288.43 205.77 286.89 203.73 286.82 203.73 282.47 202.2 281.54 197.57 282.92 199.34 287 194.88 291.52 194.88 291.52z"/>
<path class="gmt6" id="America/Tegucigalpa" d="M207.55 288.78l9.24-0.35 2.74 3.26 -1.71-0.39 -3.29 0.14 -4.3 4.04 -1.84 4.09 -1.21-0.64 -0.01-4.48 -2.66-1.78L207.55 288.78 207.55 288.78z"/>
<path class="gmt6" id="America/El_Salvador" d="M201.65 296.27L206.35 298.61 206.28 294.9 203.87 293.43 201.65 296.27 201.65 296.27z"/>
<path class="gmt6" id="America/Managua" d="M217.74 292.11L219.93 292.55 220 297.04 217.45 304.32 210.58 303.64 209.05 300.13 211.09 295.87 214.96 292.27 217.74 292.11 217.74 292.11z"/>
<path class="gmt6" id="America/Costa_Rica" d="M217.38 304.98L218.77 307.7 219.9 309.2 218.38 313.71 215.48 311.67 210.74 307.33 210.74 304.46 217.38 304.98 217.38 304.98z"/>
<path class="gmt6 dst" id="America/Winnipeg" d="M267.59 91.09L266.57 98.58 259.35 100.11 260.35 103.37 257.86 107.39 250.14 109.15 241.42 115.93 233.7 126.22 232.7 129.48 237.93 131.49 239.92 136.51 245.2 141.85 230.41 176.1 219.68 169.04 201 166.01 231.17 103.42 236.66 90.27 254.42 96.5 258.85 67.23 261.59 69.24 262.09 86.81 266.32 83.05 268.81 84.56 265.32 90.58 267.59 91.09zM274.13 79.61L277.32 74.77 277.59 69.41 282.88 61.59 282.88 61.59 278 61.14 272.24 63.37 269.14 67.61 270.03 79.23 274.13 79.61zM279.23 56.61L279.65 53.13 276.69 50.39 276.02 43.02 271.59 40.79 268.92 38.35 268.92 38.35 266.26 39.24 266.7 42.81 271.13 45.71 271.35 47.94 270.02 49.28 270.69 53.75 279.23 56.61zM260.49 39.91L255.61 40.58 252.73 43.26 258.05 43.48 256.5 47.5 257.61 49.29 259.16 49.07 262.93 43.04 260.49 39.91 260.49 39.91z"/>
<path class="gmt6 dst" id="America/Chicago" d="M225.87 239.43L226.13 225.15 235.71 217.26 234.01 211.36 238.75 199.25 245.06 188.75 241.63 185.48 239.3 181.04 234.47 177.16 229.22 176.72 219.3 169.95 192.95 165.93 192.76 190.35 179.18 209.49 174.82 229.62 170.69 236.36 170.92 239.67 173.41 241.43 176.9 237.92 179.64 239.17 182.13 250.71 186.36 253.47 189.85 246.94 200.56 239.16 207.53 242.42 213.51 242.92 213.76 239.16 225.87 239.43z"/>
<path class="gmt6 dst" id="America/Mexico_City" d="M205.82 279.93L205.11 275.17 209.96 269.1 201.32 271.11 199.07 277.66 193.32 278.67 186.57 275.9 183.57 266.33 185.84 254.26 181.2 251.37 178.99 239.78 177.14 238.99 173.76 242.42 163.01 246.58 160.82 261.54 160.82 270.61 171.32 282.95 182.82 288.24 187.57 285.47 194.32 291.01 198.32 286.98 196.57 282.44 202.32 280.68 204.07 281.69 205.82 279.93z"/>
<path class="gmt5" id="America/Atikokan" d="M266.01 101.85L261.78 107.17 261.52 113.03 265.22 110.9 269.71 110.9 272.88 113.83 275.79 111.43 266.01 101.85 266.01 101.85z"/>
<path class="gmt5" id="America/Cancun" d="M209.96 269.1L205.18 275.07 205.81 279.85 208.57 279.93 213.57 271.11 209.96 269.1z"/>
<path class="gmt5" id="America/Panama" d="M220.59 309.61L219.13 314.17 223.95 315.42 226.94 316.01 227.45 312.48 230.66 310.86 233.51 312.33 234.63 314.12 235.99 313.96 237.06 310.71 233.5 309.24 230.8 307.77 228.1 309.61 224.89 311.23 221.61 309.91 220.59 309.61 220.59 309.61z"/>
<path class="gmt5" id="America/Bogota" d="M253.73 299.78l-2.06-0.21 -13.62 11.23 -1.44 3.95 -1.86 0.21 0.83 8.73 -4.75 11.65 5.16 4.37 6.61 0.42 4.54 6.66 6.6 0.21 -0.21 4.99H256l2.68-9.15 -2.48-3.12 0.62-5.82 5.16-0.42 -0.62-13.52 -11.56-3.74 -2.68-7.28L253.73 299.78 253.73 299.78z"/>
<path class="gmt5" id="America/Guayaquil" d="M230.2 335.85l-4.73 2.94 -0.34 4.36 -0.95 1.43 2.98 2.86 -1.29 1.41 0.3 3.6 5.33 1.27 8.07-9.55 -0.02-3.33 -3.87-0.25L230.2 335.85 230.2 335.85z"/>
<path class="gmt5" id="America/Lima" d="M225.03 349.52L223.09 351.48 223.22 354.61 240.16 385.49 257.75 396.83 260.47 392.27 261.12 382.24 259.7 375.99 254.91 367.91 252.06 368.82 250.77 370.25 245.08 363.73 246.5 356.04 253.1 351.74 252.58 347.7 245.86 347.44 242.37 341.58 240.43 340.93 240.56 344.45 231.9 354.74 225.43 353.18 225.03 349.52 225.03 349.52z"/>
<path class="gmt5" id="America/Rio_Branco" d="M265.89 368.51L256.11 352.82 253.07 352.85 247.34 356.47 245.94 363.58 250.91 368.9 251.82 367.87 255.31 366.93 258.29 371.95 265.89 368.51z"/>
<path class="gmt5 dst" id="America/Toronto" d="M307.68 133.75L303.69 154.51 294.18 154.67 291.96 161.38 295.2 167.88 298.16 168.13 297.73 173.68 290.01 172.9 281.29 179.68 286.52 178.43 294.77 177.89 283.99 183.8 277.31 185.23 276.81 189.5 264.85 189.5 254.64 196.53 240.94 201.05 239.45 199.04 246.35 188.74 242.43 184.97 239.94 180.19 235.07 176.64 230.41 176.1 245.2 141.85 258.6 148.81 256.11 160.35 255.86 163.61 258.85 165.62 262.84 160.35 263.34 150.31 269.57 150.06 272.56 144.29 273.06 135.51 281.03 119.95 290.99 123.46 296.22 130.74 293.98 138.02 297.97 140.28 307.68 133.75zM277.38 74.68L274.13 79.62 279.56 79.68 288.65 84.15 295.08 91.52 299.96 91.3 298.63 98.22 294.2 105.59 289.32 107.82 285.77 107.15 284 105.59 281.34 109.16 282.45 112.73 286.22 112.95 290.88 110.72 294.87 121 304.85 127.48 311.72 118.77 305.96 109.39 309.29 105.59 313.95 113.41 322.37 106.04 320.82 102.69 315.06 104.48 311.07 93.53 314.84 87.28 307.3 79.24 303.09 82.14 299.1 73.43 290.68 74.55 288.46 64.05 281.59 68.74 280.92 74.55 277.38 74.68zM279.67 53.02L279.22 56.71 287.76 59.33 292.42 60.89 297.08 56.87 291.54 52.4 286.44 53.74 279.67 53.02zM285.77 40.36L285.77 42.37 280.89 43.49 282.22 45.72 287.76 47.95 293.97 48.62 298.4 51.75 302.83 49.29 299.73 46.16 303.72 46.16 306.16 43.48 312.15 42.59 312.15 41.25 308.82 39.02 309.26 36.56 318.57 38.12 332.32 32.76 327.22 31.2 328.55 29.41 339.19 29.41 340.96 27.62 319.45 20.02 314.35 18.23 308.81 22.25 302.6 17.11 299.27 16.89 298.6 21.14 294.39 17.34 289.51 18.9 290.4 21.36 297.72 22.92 297.28 26.49 301.27 28.95 311.03 26.49 311.25 29.84 303.27 33.64 298.39 29.84 293.96 30.29 298.39 36.55 296.17 37.67 292.84 34.77 290.4 36.33 292.62 40.57 296.39 40.57 295.5 44.59 292.4 44.14 288.41 39.89 285.77 40.36 285.77 40.36zM267.06 98.35L268.05 91.83 276.28 81.54 281.76 87.31 279.52 97.6 274.04 100.61 267.06 98.35z"/>
<path class="gmt5 dst" id="America/New_York" d="M240.56 202.24L238.55 199.74 234.01 211.36 235.52 217.42 226.13 225.15 225.88 239.28 228.7 242.17 229.2 248.44 227.71 251.95 229.45 257.97 233.19 257.97 236.93 252.2 235.44 249.44 233.95 243.42 236.19 236.64 246.4 227.86 254.12 225.6 253.12 218.32 263.83 206.77 274.54 205.01 272.8 199 283.26 192.98 283.26 184.95 282.26 184.45 278.52 185.7 278.02 190.62 265.59 190.77 255.85 197.24 240.56 202.24z"/>
<path class="gmt5 dst" id="America/Havana" d="M220.85 266.92L220.85 268.19 226.17 268.29 228.68 266.83 229.07 267.9 234.29 269.17 238.93 273.36 237.87 274.82 238.06 276.48 241.93 277.45 245.8 275.7 247.54 273.95 245.03 272.68 232.08 265.08 227.54 264.59 220.85 266.92 220.85 266.92z"/>
<path class="gmt5 dst" id="America/Port-au-Prince" d="M250.86 275.38L254.3 275.74 253.89 279.96 253.55 282.18 249.54 281.96 248.83 283.03 247.6 282.94 247.16 280.63 251.39 280.28 251.13 277.88 249.19 277.08 250.86 275.38 250.86 275.38z"/>
<path class="gmt4" id="America/Blanc-Sablon" d="M298.06 169.44L309.68 170.39 304.95 175.41 297.74 173.61 298.06 169.44z"/>
<path class="gmt4" id="America/Santo_Domingo" d="M263.11 280.44l-5.29-3.46 -2.5-0.85 -0.84 6 0.88 1.69 1.15-1.33 3.35-0.89 2.91 0.62L263.11 280.44 263.11 280.44z"/>
<path class="gmt4" id="America/Caracas" d="M250.46 305.92L250.9 308.51 254.15 309.54 254.89 304.77 258.32 301.22 261.75 305.24 269.64 307.39 276.32 305.99 280.87 311.6 284.3 313.75 280.54 319.48 281.8 323.82 279.65 326.48 277.42 328.35 272.59 325.92 271.48 327.04 271.48 330.5 275.01 332.18 272.41 334.99 269.81 337.8 266.38 337.52 262.93 333.73 262.2 319.47 250.42 315.45 248.28 309.18 250.46 305.92 250.46 305.92z"/>
<path class="gmt4" id="America/Guyana" d="M285.05 314.13l7.22 6.54 -2.87 3.32 -0.23 1.97 3.77 3.89 -0.09 3.74 -6.56 2.5 -3.93-5.31 0.84-6.38 -1.68-4.75L285.05 314.13 285.05 314.13z"/>
<path class="gmt4" id="America/Porto_Velho" d="M278.18 378.38L279.97 375.32 280.41 371.89 276.83 371.63 277.23 368 281.54 368.35 290.95 356.21 285.52 342.37 285.99 337.1 281.33 331.23 282.08 325.1 277.68 329.58 272.82 326.96 272.33 327.65 272.34 329.78 276.53 332.03 270.24 338.66 266.27 338.62 262.25 334.53 257.7 334.67 257.14 339.53 259.75 342.7 256.06 352.96 265.77 368.51 270.13 368.48 272.41 376.55 278.18 378.38z"/>
<path class="gmt4" id="America/La_Paz" d="M258.71 372.79L266.94 369.2 269.66 369.46 271.47 377.02 284.01 381.19 286.08 387.58 291.25 388.23 293.45 393.7 291.9 398.65 283.49 399.3 280.39 407.25 273.79 407.12 271.72 406.73 267.91 410.43 266.03 410.25 259.56 395.26 261.35 392.58 261.98 381.98 260.38 375.67 258.71 372.79 258.71 372.79z"/>
<path class="gmt4 dst" id="America/Thule" d="M334.8 59.94L332.85 42.47 325.75 43.56 322.49 41.39 320.31 44.92 323.57 48.46 330.37 47.64 330.91 49.82 325.74 52.27 321.13 50.07 321.13 50.07 319.77 52.24 322.22 54.69 321.13 57.14 324.67 61.76 329.02 60.4 334.8 59.94z"/>
<path class="gmt4 dst" id="America/Halifax" d="M309.68 170.39L298.06 169.37 298.14 168.29 295.2 167.88 291.96 161.38 294.18 154.67 303.71 154.41 307.64 133.98 310.42 151.57 319.39 162.36 319.64 167.88 309.68 170.39zM283.97 183.81L294.68 177.94 292.51 184.21 292.76 189.23 295.75 191.24 298.74 190.49 300.24 188.23 302.23 188.23 298.99 194.25 292.76 194.5 290.02 198.52 286.53 198.52 285.53 195.51 290.51 190.49 284.53 192.5 283.97 183.81z"/>
<path class="gmt4 dst" id="America/Santiago" d="M283.59 512.63L280.38 516.18 279.99 520.35 273.78 516.83 267.18 507.32 265.24 503.93 267.96 500.41 267.7 495.98 264.6 494.68 262.14 492.86 262.66 490.38 265.89 489.47 266.54 475.14 261.5 472.27 258.21 397.68 259.06 396.2 265.5 411.05 267.56 411.09 268.23 413.46 265.49 416.78 262.34 434.65 266.82 448.41 264.75 458.83 272.05 489.47 272.82 507.39 278.05 513.44 283.59 512.63 283.59 512.63zM285.04 514.1L280.77 523.48 288.14 524.26 288.27 518.01 285.04 514.1 285.04 514.1z"/>
<path class="gmt4 dst" id="America/Campo_Grande" d="M305.74 412.29L307.77 402.49 302.35 393.42 305.13 379.41 304.51 372.14 288.14 369.16 285.32 363.35 281.33 368.34 277.26 368 276.83 371.58 280.39 372.06 279.99 375.19 277.97 378.32 284.58 380.41 286.68 386.85 291.86 387.47 294.33 393.62 292.66 399.09 294.84 401.95 294.52 406.21 300.36 405.66 305.74 412.29z"/>
<path class="gmt4 dst" id="America/Asuncion" d="M291.76 399.51l2.2 2.4 -0.26 5.08 6.34-0.39 4.79 6.13 -0.39 5.47 -3.1 4.69 -6.34 0.26 -0.26-2.61 1.81-4.3 -6.21-3.91h-5.17l-3.88-4.17 2.82-8.06L291.76 399.51 291.76 399.51z"/>
<path class="gmt3_30 dst" id="America/St_Johns" d="M317.52 171.05L306.95 181.17 308.01 183.57 320.95 188.36 322.8 185.17 321.74 179.85 317.51 180.38 315.13 177.72 319.09 173.73 317.52 171.05 317.52 171.05z"/>
<path class="gmt3" id="America/Paramaribo" d="M293.13 321.14l2.04 1.87 3.16-1.96 2.88 0.09 -0.37 1.12 -1.21 2.52 -0.19 6.27 -5.75 2.34 0.28-4.02 -3.71-3.46 0.19-1.78L293.13 321.14 293.13 321.14z"/>
<path class="gmt3" id="America/Cayenne" d="M302.13 321.8l5.85 3.65 -3.06 6.08 -1.11 1.4 -3.25-1.87 0.09-6.55L302.13 321.8 302.13 321.8z"/>
<path class="gmt3" id="America/Fortaleza" d="M285.2 363.49L288.14 369.16 304.51 372.14 304.77 379.22 343.71 399.04 344.97 383.84 342.87 379.38 355.23 368.1 355.7 355.65 338.91 347.43 318.63 341.09 309.07 340.15 311.64 334.75 310.94 326.53 308.85 325.84 305.76 331.98 304.14 334.01 299.98 332.17 285.99 337.1 285.5 342.52 290.95 356.21 285.2 363.49z"/>
<path class="gmt3" id="America/Argentina/Buenos_Aires" d="M305.47 418.2L307.41 420.02 300.04 430.97 297.45 433.84 298.35 446.35 304.04 453.26 299.26 461.6 295.64 463.16 291.5 463.16 292.66 469.67 286.19 471.89 287.74 477.36 283.86 489.74 288.65 493.65 286.06 500.03 281.66 506.94 283.99 511.76 278.3 512.67 273.64 506.94 272.86 489.09 265.62 458.77 267.81 448.17 263.15 434.62 266.25 417.03 269.1 413.64 268.4 411.07 272.06 407.73 280.22 408.29 284.78 413.16 290.05 413.25 295.45 416.55 293.86 420.27 294.24 424.03 301.89 423.67 305.47 418.2 305.47 418.2zM288.92 518.79L289.18 524.52 293.58 524.13 297.33 521.65 290.99 520.35 288.92 518.79 288.92 518.79z"/>
<path class="gmt3" id="America/Montevideo" d="M300.36 431.93l-2.05 2.19 0.85 11.78 6.44 1.87 8.19-8.21L300.36 431.93 300.36 431.93z"/>
<path class="gmt3 dst" id="America/Godthab" d="M389.65 107.44L398.46 84.41 403.78 84.33 410.19 81.69 418.06 61.97 420.38 57.14 425.82 54.69 436.97 44.9 433.71 41.37 421.2 42.46 414.67 48.99 418.48 40.56 414.13 39.47 411.68 43.82 408.15 40.83 398.36 41.92 401.08 37.57 417.12 37.03 413.04 31.59 395.64 28.33 388.57 29.42 388.84 32.96 381.5 30.51 381.77 28.06 376.6 29.15 375.51 31.87 380.95 33.77 375.24 37.85 371.16 33.23 365.45 31.6 364.63 35.95 358.92 35.95 356.74 31.33 347.77 29.97 342.88 32.42 342.61 35.68 336.36 34.86 332.55 36.49 332.82 40.3 332.82 42.2 334.73 59.86 341.26 66.93 345.61 78.62 342.08 85.96 346.97 85.14 349.69 86.77 349.96 90.31 343.98 90.58 347.24 93.84 351.32 94.66 342.35 106.62 341.26 113.96 343.16 119.94 341.8 123.48 344.25 131.09 348.87 136.26 350.23 135.99 353.22 135.17 353.49 139.52 355.39 142.24 358.92 141.97 361.64 131.91 369.8 121.85 382.04 116.96 389.65 107.44z"/>
<path class="gmt3 dst" id="America/Sao_Paulo" d="M304.89 379.28L302.33 393.54 307.78 402.47 305.71 412.42 305.29 417.17 308.46 419.85 300.86 431.36 314.24 438.85 314.24 438.85 320.49 426.83 320.72 416.73 332.38 409.21 338.91 409.21 343.71 399.04 304.89 379.28z"/>
<path class="gmt" id="America/Danmarkshavn" d="M418.1 61.89L410.04 81.75 417.11 85.69 419.83 82.7 415.48 80.25 424.73 67.74 423.1 62.3 418.1 61.89z"/>
<path class="gmt" id="Atlantic/Reykjavik" d="M406.36 117.31L404.4 116.2 401.76 117.87 399.49 119.97 399.55 121.14 402.49 121.51 402.31 123.61 401.27 124.66 401.52 125.34 404.46 125.53 404.46 128.93 408.69 129.67 411.2 131.09 414.02 131.21 418.86 128.8 422.6 123.86 422.66 120.52 420.39 118.6 418.49 116.99 417.63 117.61 416.34 119.28 414.87 119.09 413.4 117.48 411.5 117.66 408.74 119.95 407.08 121.74 406.16 120.94 406.1 118.96 407.02 118.34 406.36 117.31 406.36 117.31z"/>
<path class="gmt" id="Africa/Nouakchott" d="M404.9 276.66L407.08 279.51 406.63 291.83 409.8 289.55 412.06 289.09 415.23 290.23 418.85 295.25 422.25 292.97 438.78 292.74 434.7 265.13 439.08 265.11 430.92 258.86 430.93 262.92 420.6 262.93 420.55 270.68 417.58 270.67 417.2 276.39 404.9 276.66 404.9 276.66z"/>
<path class="gmt" id="Africa/Bamako" d="M419.46 295.84L422.54 293.73 439.66 293.63 435.7 266.09 440.22 265.96 462.09 282.65 465.03 283.07 463.92 292.35 450.17 293.6 439.56 301.52 437.63 306.94 430.26 307.25 428.38 301.84 422.73 302.24 422.95 300.47 419.46 295.84 419.46 295.84z"/>
<path class="gmt" id="Africa/Dakar" d="M417.44 301.52L417.13 302.25 408.72 301.37 408.03 303.23 406.79 300.22 406.79 300.22 413.49 300.38 414.47 300.06 414.75 298.04 414.4 296.51 411.29 297.35 406.45 297.42 405 296.38 405.28 294.78 406.18 293.18 410.12 290.32 410.12 290.32 412.04 289.83 414.53 290.87 418.54 296.3 422.14 300.62 422 302.36 418.06 302.22 417.44 301.52z"/>
<path class="gmt" id="Africa/Banjul" d="M406.89 298.34L406.76 299.45 413.68 299.35 414.03 298.32 413.88 297.28 411.89 298.09 406.89 298.34 406.89 298.34z"/>
<path class="gmt" id="Africa/Bissau" d="M408.6 304.53L410 307.3 413.93 303.92 413.97 302.88 409.34 302.21 408.6 304.53 408.6 304.53z"/>
<path class="gmt" id="Africa/Conakry" d="M410.42 307.94l3.04 4.68 3.96-3.44 4.06-0.18 3.38 4.49 2.87 1.89 1.08-2.1 0.96-0.54 -0.07-4.62 -1.91-5.48 -5.86 0.65 -7.25-0.58 -0.04 1.86L410.42 307.94 410.42 307.94z"/>
<path class="gmt" id="Africa/Freetown" d="M413.93 313.13L419.58 318.59 423.61 313.7 421.09 309.75 417.62 310.1 413.93 313.13 413.93 313.13z"/>
<path class="gmt" id="Africa/Monrovia" d="M420.17 319.19L431.15 326.53 430.89 320.97 427.57 317.06 424.33 314.19 420.17 319.19 420.17 319.19z"/>
<path class="gmt" id="Africa/Abidjan" d="M432.07 326.75L436.35 323.72 441.67 322.79 447.1 323.96 444.33 319.77 443.52 317.21 444.33 309.64 439.48 309.87 437.28 307.77 432.66 307.89 430.46 308.24 430.69 313.36 429.53 313.83 428.14 316.39 431.72 320.58 432.07 326.75 432.07 326.75z"/>
<path class="gmt" id="Africa/Ouagadougou" d="M450.59 294.28L454.23 293.99 460.2 302.43 454.66 306.61 450.65 305.58 445.26 305.65 444.39 308.81 439.87 309.03 438.63 307.34 440.23 302.2 450.59 294.28 450.59 294.28z"/>
<path class="gmt" id="Africa/Accra" d="M444.34 317.05L445.46 319.68 448.38 324.26 450 324.2 454.42 321.69 454.11 307.4 450.69 306.4 445.9 306.53 444.34 317.05 444.34 317.05z"/>
<path class="gmt" id="Africa/Lome" d="M455.22 321.25L457.9 319.68 457.84 309.33 456.1 306.51 454.98 307.45 455.22 321.25 455.22 321.25z"/>
<path class="gmt dst" id="America/Scoresbysund" d="M403.96 84.25L398.46 84.41 389.48 107.65 393.18 109.07 400.52 109.07 406.5 103.09 413.84 100.1 414.66 95.48 410.04 91.4 405.96 90.04 403.96 84.25z"/>
<path class="gmt dst" id="Europe/Dublin" d="M439.51 166.55L438.6 172.55 430.53 175.51 427.96 175.51 426.13 174.22 426.13 173.11 430.17 170.52 429.07 168.3 429.25 165.16 432.74 165.34 434.34 161.58 434.13 164.92 436.84 167.07 439.51 166.55 439.51 166.55z"/>
<path class="gmt dst" id="Europe/London" d="M446.12 149.08L444.29 151.85 445.02 152.96 449.24 152.96 449.24 154.81 448.14 156.29 448.87 160.17 451.25 164.79 453.08 169.04 456.01 170.15 457.29 172.37 457.11 174.4 455.28 175.51 455.1 176.43 456.38 177.17 455.28 178.65 452.71 179.76 447.76 179.21 440.05 182.72 437.48 181.43 444.82 177.18 443.9 176.63 440.05 176.26 442.43 172.75 442.8 169.79 445.92 169.42 445.37 163.69 441.7 163.51 440.6 162.22 440.78 157.97 438.58 158.15 440.78 150.76 444.82 147.8 446.12 149.08 446.12 149.08zM438.42 161.47L435.12 161.84 434.94 164.8 437.14 166.28 439.52 165.73 440.44 164.07 438.42 161.47 438.42 161.47z"/>
<path class="gmt dst" id="Europe/Lisbon" d="M430.93 211.24L430.31 219.89 428.54 221.49 428.72 222.47 429.96 224.52 429.16 227.02 430.49 227.47 433.59 227.11 433.41 224.61 435.44 213.02 435 211.42 430.93 211.24 430.93 211.24z"/>
<path class="gmt dst" id="Africa/Casablanca" d="M424.6 252.08L430.18 252.13 439.92 249.85 444 243.23 450.34 243 448.29 232.28 448.29 232.28 436.74 232.28 434.48 237.3 429.27 239.81 424.6 252.08z"/>
<path class="gmt dst" id="Africa/El_Aaiun" d="M430.21 252.94L424.47 252.72 416.59 256.47 404.82 275.86 416.37 275.63 416.82 269.93 419.76 269.93 419.76 262.17 429.95 262.17 430.21 252.94z"/>
<path class="gmt-1" id="Africa/Algiers" d="M473.88 227.49L469.8 226.12 452.82 229.31 449.12 232.12 451.38 243.79 444.63 244.06 440.57 250.59 430.9 252.91 430.93 257.66 462.78 282.01 468.21 282.47 486.32 268.32 484.51 266.04 481.11 265.58 479.07 262.16 479.07 248.01 477.71 246.64 477.94 242.99 474.32 239.34 473.87 235.46 475.45 234.32 474.77 230.21 473.88 227.49 473.88 227.49z"/>
<path class="gmt-1" id="Africa/Tunis" d="M474.91 227.33L480.44 225.1 482.26 226.28 482.33 227.72 481.48 228.83 481.61 230.8 482.46 231.26 482.46 234.8 481.48 236.44 481.61 237.49 485.32 238.8 482.33 243.45 481.16 243.38 480.96 247.12 479.66 247.32 478.55 246.34 478.81 242.54 475.17 239 474.71 235.92 476.47 234.54 474.91 227.33 474.91 227.33z"/>
<path class="gmt-1" id="Africa/Niamey" d="M460.89 302L463.44 301.94 465.74 298.49 469.6 297.8 473.71 300.31 482.48 300.56 489.26 297.8 491.81 295.61 492 292.73 496.73 287.96 497.98 277.43 494.87 270.91 486.91 268.97 468.49 283.33 465.88 283.08 464.76 293.05 455.36 293.99 460.89 302 460.89 302z"/>
<path class="gmt-1" id="Africa/Porto-Novo" d="M458.71 319.49L460.83 319.49 460.95 313.47 463.63 309.58 463.51 302.81 461.08 302.75 456.91 306.01 458.65 309.33 458.71 319.49 458.71 319.49z"/>
<path class="gmt-1" id="Africa/Lagos" d="M461.57 319.37L465.49 319.56 470.22 324.83 472.52 325.46 474.32 324.58 477.06 324.2 477.99 320.38 481.72 317.93 485.76 317.74 493.16 304.13 493.04 301.06 489.62 298.43 482.78 301.44 473.63 301.31 469.27 298.55 466.16 299.24 464.54 302.06 464.42 310.02 461.81 313.72 461.57 319.37 461.57 319.37z"/>
<path class="gmt-1" id="Africa/Ndjamena" d="M492.79 296L492.92 293.05 497.66 288.44 498.93 277.12 495.77 271.08 497.98 269.95 519.38 281.1 519.25 292.04 515.48 295.25 515.48 300.89 517.95 305.67 513.59 305.67 506.37 312.81 506.18 314.97 500.85 314.9 500.78 315.88 497.74 315.48 495.66 311.55 494.1 310.78 494.3 309.58 496.26 308.08 496.26 301.06 493.55 300.64 490.28 298.21 492.79 296 492.79 296 492.79 296z"/>
<path class="gmt-1" id="Africa/Douala" d="M477.82 324.28L481.04 327.24 480.81 331.82 498.47 331.41 499.91 329.79 494.85 324.34 494.1 322.37 497.32 316.34 495.13 312.34 493.29 311.35 493.29 309.32 495.42 307.93 495.54 301.61 493.85 301.42 493.82 304.74 486.4 318.59 481.86 318.82 478.75 320.96 477.82 324.28 477.82 324.28z"/>
<path class="gmt-1" id="Africa/Bangui" d="M495.66 324.05L500.32 329.09 502.16 326.71 505.09 326.83 505.72 324.51 508.6 322.71 514.58 326.83 518.03 323.41 531.42 324 519 311.18 520.67 310.14 520.9 307.88 518.08 306.55 513.94 306.55 507.27 313.16 507.04 315.88 501.75 315.71 501.58 316.87 498.13 316.52 495.02 322.43 495.66 324.05 495.66 324.05z"/>
<path class="gmt-1" id="Africa/Malabo" d="M480.99 332.69L480.93 334.08 485.47 334.31 485.41 332.74 480.99 332.69 480.99 332.69z"/>
<path class="gmt-1" id="Africa/Libreville" d="M486.39 332.63L486.27 335.12 480.63 335 477.18 341.67 485.29 350.54 487.3 348.86 487.24 347.12 485.86 346.48 485.86 345.26 488.97 343.29 491.73 345.38 494.78 345.44 494.72 334.95 489.89 334.72 489.83 332.52 486.39 332.63 486.39 332.63z"/>
<path class="gmt-1" id="Africa/Brazzaville" d="M491 332.52L490.94 333.97 495.72 334.09 495.89 346.5 491.52 346.38 488.99 344.41 487.03 345.51 486.94 346.06 487.95 346.55 488.24 349.1 485.54 351.42 486.12 352.64 489.11 350.32 490.55 350.32 491.01 351.71 492.91 352.52 499.01 347.36 498.89 343.59 500.16 340.52 504.07 337.62 505.12 327.81 502.34 327.82 499.12 332.23 491 332.52 491 332.52z"/>
<path class="gmt-1" id="Africa/Kinshasa" d="M510.74 358.55L510.69 348.86 520.81 347.14 527.52 324.66 518.36 324.21 514.63 327.84 508.52 323.82 506.37 325.14 504.81 338.27 500.95 341.25 499.79 343.89 500 347.8 493.04 353.49 491.19 352.65 491.44 353.74 489.38 355.71 489.38 355.71 499.69 355.53 501.78 358.5 501.7 360.69 502.47 361.39 507.59 361.39 509.06 358.5 510.74 358.55z"/>
<path class="gmt-1" id="Africa/Luanda" d="M488.62 356.71L492.03 369.44 491.95 373.46 486.96 378.82 486.21 387.53 505.41 387.7 511.65 389.96 516.8 389.29 513.8 385.53 513.81 374.79 519.71 374.54 519.71 370.35 514.92 370.15 513.96 360.23 511.94 360.26 510.85 359.28 509.66 359.34 508.08 362.4 502 362.4 500.59 360.98 501.01 358.97 499.35 356.54 488.62 356.71 488.62 356.71zM486.55 353.23L488.29 355.49 490.54 353.36 489.88 351.15 489.32 351.11 486.55 353.23 486.55 353.23z"/>
<path class="gmt-1 dst" id="Europe/Oslo" d="M515.46 102.14L517.48 100.66 517.3 99 516.02 98.26 516.2 96.23 517.3 96.23 517.3 95.12 512.53 93.83 505.38 94.57 504.65 97.71 503 97.16 501.9 95.31 498.41 95.49 498.04 99 496.39 99.74 495.47 97.89 488.13 103.8 489.6 105.46 486.85 106.75 480.61 119.13 478.41 120.61 478.59 121.72 480.79 122.83 480.24 125.23 476.57 125.04 475.47 123.75 473.09 126.52 471.62 127.63 471.25 130.22 469.97 130.96 466.67 131.7 465.02 136.88 466.12 145.38 467.4 149.26 468.87 150.74 472.17 150.56 476.94 145.94 478.77 142.8 479.32 147.42 482.44 141.88 482.62 126.35 485.16 124.75 485.92 116.18 493.62 105.09 497.29 103.8 498.94 101.77 504.44 103.06 507.19 104.72 508.11 100.1 512.7 97.33 515.46 102.14 515.46 102.14z"/>
<path class="gmt-1 dst" id="Europe/Stockholm" d="M497.72 104.58L499.68 106.39 503.35 106.39 505.37 110.27 505.92 116.92 500.97 120.43 500.97 123.94 497.48 128.75 495.46 128.93 492.71 133.55 492.89 137.99 497.66 141.5 497.29 143.53 495.46 146.3 492.71 148.7 492.89 156.65 488.67 158.13 487.2 161.27 485.18 161.27 484.08 155.73 479.49 148.69 483.26 142.38 483.52 126.79 486.12 125.36 486.75 116.44 494.16 105.83 497.72 104.58 497.72 104.58z"/>
<path class="gmt-1 dst" id="Europe/Copenhagen" d="M476.77 151.5L472.62 156.09 472.47 159.08 474.36 164.01 477.32 163.45 476.95 159.42 478.99 157.14 478.95 155.35 477.51 151.62 476.77 151.5 476.77 151.5zM481.44 159.64L480.51 159.6 479.29 160.72 479.44 162.47 482.33 162.55 482.48 160.57 481.44 159.64 481.44 159.64z"/>
<path class="gmt-1 dst" id="Europe/Amsterdam" d="M470.09 168.27L465.56 170.5 466.52 171.37 466.62 173.6 465.66 173.41 464.6 171.76 462.07 175.77 465.96 176.58 467.41 178.11 468.18 178.13 468.69 174.67 471.14 173.64 470.09 168.27 470.09 168.27z"/>
<path class="gmt-1 dst" id="Europe/Brussels" d="M461.61 176.52L460.97 178.12 467.85 182.66 469.83 183.13 469.9 180.98 468.17 179.04 467.11 179.04 465.66 177.39 461.61 176.52 461.61 176.52z"/>
<path class="gmt-1 dst" id="Europe/Paris" d="M460.4 178.7L458.19 179.24 453.77 184.05 452.44 184.14 450.67 182.89 449.52 183.16 448.64 185.92 442.18 186.1 442.36 187.53 446.78 190.47 451.91 194.57 451.82 199.47 449.08 204.28 455.01 207.13 461.03 207.31 462.89 205.17 466.69 205.26 467.75 206.24 471.55 205.97 473.5 203.47 471.02 200.53 470.84 198.66 471.37 196.61 470.13 194.83 468.01 195.45 467.74 193.85 472.43 188.68 472.43 185.56 469.33 183.78 467.74 183.51 460.4 178.7 460.4 178.7zM477.83 206.96L475.88 208.92 475.7 210.7 477.29 211.68 477.91 211.59 478.26 209 477.83 206.96 477.83 206.96z"/>
<path class="gmt-1 dst" id="Europe/Berlin" d="M471.14 167.88L474.71 167.3 474.71 164.78 477.7 164.29 479.34 165.94 481.07 166.13 483.77 164.96 486.18 165.64 488.3 167.48 488.59 174.37 490.71 177.19 487.92 177.58 483.29 180.49 483.68 181.46 487.82 185.34 487.53 187.28 483.68 189.22 480.11 189.32 479.24 191.16 477.41 191.16 476.54 189.22 473.36 188.44 473.26 185.24 470.56 183.4 470.85 181.07 469.02 178.55 469.5 175.25 472 174.08 471.14 167.88 471.14 167.88z"/>
<path class="gmt-1 dst" id="Europe/Warsaw" d="M511.46 174.76L512.31 176.32 512.51 177.98 511.81 179.59 510.21 182.67 508.86 183.28 507.11 182.52 506.06 182.57 503.51 183.53 500.61 182.67 495.91 179.34 491.31 176.87 489.46 174.05 489.11 167.4 492.71 164.27 497.41 162.71 499.16 162.51 498.46 163.92 498.91 164.47 506.82 164.62 508.52 164.57 511.32 168.86 510.62 170.62 510.92 172.69 511.46 174.76 511.46 174.76z"/>
<path class="gmt-1 dst" id="Europe/Prague" d="M488.43 184.87L491.4 184.87 492.86 184.87 495.23 186.56 499.62 182.91 495.36 179.87 491.14 177.83 488.25 178.35 484.33 180.87 488.43 184.87 488.43 184.87z"/>
<path class="gmt-1 dst" id="Europe/Bratislava" d="M495.84 187.13L496.53 187.74 496.62 188.78 504.25 188.61 509.89 186.18 509.8 183.71 508.72 184.19 507.17 183.36 506.22 183.32 503.72 184.32 500.32 183.5 495.84 187.13 495.84 187.13z"/>
<path class="gmt-1 dst" id="Europe/Budapest" d="M496.74 189.6L495.58 191.42 495.67 194.2 497.52 195.15 503.21 195.32 511.14 188.64 511.18 187.16 510.32 186.73 504.59 189.33 496.74 189.6 496.74 189.6z"/>
<path class="gmt-1 dst" id="Europe/Zurich" d="M472.91 189.38L468.55 194.02 468.64 194.49 470.43 193.93 472.04 196.17 474.76 195.21 476.64 196.67 477.41 196.23 479.73 192.59 479.14 192.03 476.85 191.97 475.74 189.7 472.91 189.38 472.91 189.38z"/>
<path class="gmt-1 dst" id="Europe/Vienna" d="M480.63 190.12L479.98 191.47 480.54 192.43 482.87 191.95 484.85 191.95 487 193.77 491.57 192.94 494.93 190.94 495.79 189.59 495.66 187.85 492.64 185.59 488.59 185.63 488.25 187.93 483.99 190.01 480.63 190.12 480.63 190.12z"/>
<path class="gmt-1 dst" id="Europe/Ljubljana" d="M494.8 191.99L492.26 193.51 487.52 194.55 488.47 197.29 491.79 197.33 494.85 194.77 494.8 191.99 494.8 191.99z"/>
<path class="gmt-1 dst" id="Europe/Zagreb" d="M495.62 195.16L492.09 198.07 488.51 198.07 488.08 200.59 489.72 201.02 490.54 199.8 491.83 200.93 492.86 204.53 499.93 207.83 500.63 207.03 493.46 199.63 494.19 198.28 501 198.02 501.69 195.85 497.25 195.98 495.62 195.16 495.62 195.16z"/>
<path class="gmt-1 dst" id="Europe/Sarajevo" d="M494.8 198.94L494.43 199.55 501.14 206.47 503.6 202.85 503.51 201.42 501.36 198.81 494.8 198.94 494.8 198.94z"/>
<path class="gmt-1 dst" id="Europe/Podgorica" d="M504.9 207.25L504.86 206.31 503.54 204.46 501.4 207.48 501.82 208.75 503.56 209.07 504.9 207.25z"/>
<path class="gmt-1 dst" id="Europe/Belgrade" d="M505.55 194.54L503.5 196.08 502.5 196.08 501.82 198.2 504.24 201.01 504.4 203.24 504.06 203.72 505.7 206.02 505.75 207.24 506.93 208.38 510.77 207.21 510.45 201.75 505.55 194.54z"/>
<path class="gmt-1 dst" id="Europe/Tirane" d="M504.02 209.76L504.02 214.37 505.34 216.86 506.29 216.75 507.92 213.78 506.97 212.45 506.6 209.16 505.34 207.99 504.02 209.76 504.02 209.76z"/>
<path class="gmt-1 dst" id="Europe/Skopje" d="M510.92 208.01L507.55 209.12 507.71 211.98 508.5 212.99 512.5 211.13 510.92 208.01 510.92 208.01z"/>
<path class="gmt-1 dst" id="Europe/Madrid" d="M448.36 205L435.62 205 433.05 203.84 431.81 203.93 430.31 207.05 430.84 210.26 435.71 210.71 436.33 212.76 434.21 224.71 434.3 226.85 437.75 228.72 441.73 228.99 449.69 227.03 453.58 222.13 453.67 217.14 460.57 210.9 460.92 208.14 454.64 208.05 448.36 205 448.36 205z"/>
<path class="gmt-1 dst" id="Europe/Rome" d="M472.27 196.98L471.65 198.55 471.82 200.26 474.21 203.05 477.97 202.92 486.27 212.56 491.45 214.06 494.51 216.95 495.24 223.54 496.88 222.58 498.3 218.99 497.95 216.41 500.38 216.19 500.73 214.73 493.88 211.45 487.38 205.06 484.79 201.24 484.16 197.61 487.47 196.82 486.62 194.43 484.59 192.72 482.84 192.64 480.4 193.31 478.1 196.53 476.71 197.45 474.56 196.13 472.27 196.98 472.27 196.98zM492.44 223.02L490.99 222.24 486.04 223.02 486.21 224.36 490.66 226.6 491.33 227.33 492.5 227.5 492.44 223.02 492.44 223.02zM477.56 213.38L474.91 214.72 475.26 219.89 477.38 220.25 478.97 218.73 478.97 213.83 477.56 213.38 477.56 213.38z"/>
<path class="gmt-2" id="Europe/Kaliningrad" d="M506.75 163.82L506.78 162.32 503.55 160.75 501.86 163.77 506.75 163.82z"/>
<path class="gmt-2" id="Africa/Tripoli" d="M480.05 248.03L481.61 247.77 482.07 244.17 482.85 244.17 486.04 238.93 493.91 241.22 496.06 244.56 503.8 248.1 507.83 246.4 507.44 244.7 505.68 243 505.88 241.82 508.74 239.4 514.4 239.4 516.55 242.28 521.1 242.94 521.69 279.83 518.31 279.7 497.89 269.08 495.68 270.33 487.29 268.23 485.01 265.22 481.69 264.76 480 261.75 480.05 248.03 480.05 248.03z"/>
<path class="gmt-2" id="Africa/Cairo" d="M521.93 243.06L524.6 243.13 529.8 244.57 532.27 244.64 535.33 242.08 536.76 242.08 539.36 243.52 542.65 243.52 543.24 243.48 545.32 249.46 545.91 251.39 546.46 254.28 545.48 255 543.79 254.15 541.84 247.79 540.08 247.66 539.95 249.82 541.12 253.56 550.49 265.16 550.69 270.14 547.96 273.29 522.32 273 521.93 243.06 521.93 243.06z"/>
<path class="gmt-2" id="Africa/Khartoum" d="M552 270.61L548.31 274.33 522.51 274.1 522.79 280.67 520.33 280.6 520.15 292.43 516.42 295.64 516.27 300.58 518.96 305.89 521.91 307.63 521.87 308.04 525.88 305.99 528.95 308.44 534.59 308.76 537.85 306.03 540.73 307.41 543.98 302.66 544.26 301.08 546.73 300.61 547.12 305.08 549.6 309.24 555.6 296.33 555.6 288.48 559.96 283.34 552 270.61z"/>
<path class="gmt-2" id="Africa/Lubumbashi" d="M527.52 324.65L520.81 347.14 510.69 348.86 510.65 358.5 512 359.36 514.87 359.28 515.72 369.36 520.68 369.52 520.68 370.3 534.01 376.31 534.63 377.48 537.42 377.48 537.11 373.26 532.07 370.84 532.38 367.64 534.55 362.56 539.51 362.4 535.25 348.26 535.33 342.25 542.07 331.71 542.15 330.23 541.14 329.68 541.18 326.82 539.95 326.71 538.71 325.13 527.52 324.65z"/>
<path class="gmt-2" id="Africa/Kigali" d="M537.82 339.9L540.63 342.49 540.51 345.26 536.15 345.35 536.15 342.29 537.82 339.9 537.82 339.9z"/>
<path class="gmt-2" id="Africa/Bujumbura" d="M536.21 346.21L540.48 346.12 539.37 349.86 538.29 350.8 536.97 350.8 536.03 348.27 536.21 346.21 536.21 346.21z"/>
<path class="gmt-2" id="Africa/Lusaka" d="M514.55 384.7L517.72 389.1 522.63 389.4 524.37 390.36 529.51 390.42 533.94 384.21 546.32 378.67 547.4 373.79 545.96 366.8 539.5 363.12 535.19 363.42 533.04 368.18 533.1 370.35 538.18 372.82 538.48 378.19 534.11 378.43 533.03 376.62 520.89 371.44 520.53 375.42 514.79 375.6 514.55 384.7 514.55 384.7z"/>
<path class="gmt-2" id="Africa/Blantyre" d="M547.16 379.4L550.27 382.65 550.21 386.81 550.81 388.56 554.94 384.1 554.46 378.43 552.25 376.74 549.98 367.08 546.87 366.67 548.42 373.84 547.16 379.4 547.16 379.4z"/>
<path class="gmt-2" id="Africa/Maputo" d="M541.17 413.28L543.86 415.51 550.2 411.65 551.22 405.92 551.22 396.46 561.39 388.14 563.13 388.2 569.29 382.29 568.33 370.11 552 372.17 552.48 375.85 555.29 378.02 555.95 384.65 550.45 390.02 549.13 387.01 549.37 383.03 546.2 379.59 538.42 383.21 545.66 386.89 545.9 397.62 541.11 404.73 541.17 413.28 541.17 413.28z"/>
<path class="gmt-2" id="Africa/Windhoek" d="M496.55 421.96L499.9 422.2 501.87 424.19 506.54 424.25 507.68 410.99 507.68 402.31 510.67 401.71 511.81 392.61 519.41 392.37 522.1 390.14 517.55 389.96 511.39 390.8 504.75 388.39 486.09 388.39 486.57 393.69 492.79 402.85 491.71 407.55 491.77 410.02 496.55 421.96 496.55 421.96z"/>
<path class="gmt-2" id="Africa/Gaborone" d="M508.51 411.23L510.66 411.89 510.36 418.04 512.57 418.34 517.65 413.76 523.75 414.42 525.37 410.32 533.09 403.27 523.82 392.6 523.7 390.85 522.68 390.55 519.87 393.14 512.57 393.32 511.55 402.42 508.68 403.08 508.51 411.23 508.51 411.23z"/>
<path class="gmt-2" id="Africa/Harare" d="M524.66 392.3L533.63 402.43 540.51 404.18 545.12 396.95 544.76 387.37 537.28 383.51 534.47 384.78 530.28 391.17 524.48 391.11 524.66 392.3 524.66 392.3z"/>
<path class="gmt-2" id="Africa/Mbabane" d="M540.87 414L538.36 414.42 537.28 417.37 539.2 419.12 541.53 419.12 543.5 416.29 540.87 414 540.87 414z"/>
<path class="gmt-2" id="Africa/Maseru" d="M527.41 425.39L530.46 423.04 531.9 423.1 533.64 425.27 533.46 427.44 530.53 428.52 530.53 429.36 527.3 429.18 526.52 426.83 527.41 425.39 527.41 425.39z"/>
<path class="gmt-2" id="Africa/Johannesburg" d="M534.16 403.63L526.26 410.93 524.38 415.44 518.12 414.66 512.91 419.29 509.45 418.95 509.73 412.55 508.5 412.12 507.64 425.21 501.5 425.15 499.65 422.97 496.94 422.94 499.41 430.03 503.82 434.2 500.67 437.87 502.71 442.47 507.43 444.27 511.19 441.07 521.96 441.13 522.73 440.17 527.51 439.33 543.68 423.23 543.62 418.16 541.89 420.4 539.3 420.4 536.15 417.76 537.75 413.78 540.5 413.22 540.25 405.04 534.16 403.63 534.16 403.63zM530.37 422.13L531.88 422.07 534.33 424.73 534.26 427.81 531.39 429.26 531.21 430.28 526.83 430.33 525.46 427.03 526.71 424.61 530.37 422.13 530.37 422.13z"/>
<path class="gmt-2 dst" id="Europe/Helsinki" d="M506.79 116.94L508.86 117.85 510.14 120.25 508.86 121.91 502.44 128.93 501.34 132.63 502.81 137.99 507.76 141.69 514.36 138.55 519.68 137.81 524.63 129.86 520.96 121.17 517.47 112.85 518.02 107.49 515.82 107.12 515.25 103.21 512.29 98.38 509.01 100.65 507.72 105.92 504.24 103.83 499.4 102.65 498.32 103.91 500.18 105.59 503.57 105.53 506.3 109.94 506.79 116.94 506.79 116.94z"/>
<path class="gmt-2 dst" id="Europe/Tallinn" d="M517.77 143.66L512.17 143.46 508.62 145.63 508.57 147.24 510.87 149.41 518.02 150.62 517.77 143.66 517.77 143.66z"/>
<path class="gmt-2 dst" id="Europe/Riga" d="M518.07 151.37L511.22 150.26 511.37 154.09 517.72 157.97 520.32 157.21 520.17 154.29 518.07 151.37 518.07 151.37z"/>
<path class="gmt-2 dst" id="Europe/Vilnius" d="M503.33 160.25L507.11 162.03 507.26 163.82 508.81 163.62 510.36 165.49 513.91 165.34 517.31 161.01 517.11 158.44 510.81 154.7 510.81 154.7 508.66 154.65 505.71 157.47 503.21 157.47 503.33 160.25z"/>
<path class="gmt-2 dst" id="Europe/Kiev" d="M536.51 193.18L539.4 193.07 539.51 191.51 544.59 191.51 550.07 187.12 552.49 185.01 552.89 178.35 542.09 177.38 537.66 171.13 534.6 170.08 530.89 170.24 529.22 174.37 521.62 174.47 519.15 173.33 515.57 173.15 515.57 173.15 512.67 174.78 513.39 177.86 510.71 183.51 510.73 186 511.99 186.8 520.07 187.2 522.33 185.33 524.75 186.14 528.22 190.77 525.68 195.33 528.7 196.21 532.65 191.66 534.91 192.07 536.51 193.18z"/>
<path class="gmt-2 dst" id="Europe/Chisinau" d="M520.75 187.71L523.85 192.48 523.59 195.18 524.7 195.23 527.33 190.78 524.17 186.86 522.38 186.12 520.75 187.71 520.75 187.71z"/>
<path class="gmt-2 dst" id="Europe/Bucharest" d="M512.18 187.6L511.92 189.08 506.13 193.9 510.97 201 514.07 203.17 519.65 203.17 521.49 201.63 523.96 201.31 525.8 202.42 529.06 198.71 528.43 196.85 525.12 196 522.86 195.89 522.97 192.71 519.97 187.99 512.18 187.6 512.18 187.6z"/>
<path class="gmt-2 dst" id="Europe/Sofia" d="M511.44 202.39L511.6 207.37 513.28 210.87 519.59 210.98 522.43 208.97 525.22 207.86 524.54 204.68 525.17 202.98 523.75 202.24 521.8 202.4 520.27 203.94 513.85 203.99 511.44 202.39 511.44 202.39z"/>
<path class="gmt-2 dst" id="Europe/Athens" d="M506.71 217.6L506.6 218.93 511.23 221.26 513.44 222.11 512.28 223.33 509.7 223.59 509.33 224.76 510.22 226.77 513.11 228.31 514.37 228.42 514.53 224.97 516.42 222.69 511.26 216.59 511.94 214.52 513.15 214.47 514.99 215.95 516.15 215.37 516.52 213.3 521.94 213.35 522.15 210.17 519.89 211.76 513.26 211.6 508.95 213.83 506.71 217.6 506.71 217.6zM516.76 230.59L518.39 230.64 519.07 231.65 521.44 231.65 523.02 231.07 523.55 231.71 522.5 233.09 517.87 233.25 517.03 232.14 516.14 231.61 516.76 230.59 516.76 230.59z"/>
<path class="gmt-2 dst" id="Asia/Famagusta" d="M542.37 232.69L540.22 231.39 543.21 229.84 543.21 229.84 544.44 230.73 542.37 232.69z"/>
<path class="gmt-2 dst" id="Asia/Nicosia" d="M540.22 231.39L542.37 232.69 540.63 234.34 538.81 234.28 537.46 233.33 537.64 231.56 540.22 231.39z"/>
<path class="gmt-2 dst" id="Asia/Damascus" d="M546.67 229.13L546.32 231.67 549.14 232.85 549.02 239.89 551.84 239.83 554.66 237.7 555.72 237.52 562.12 232.43 563.41 225.04 550.62 226.34 549.27 229.3 546.67 229.13 546.67 229.13z"/>
<path class="gmt-2 dst" id="Asia/Beirut" d="M546.2 232.44L546.26 234.39 545.44 237.35 548.26 237.59 548.44 233.39 546.2 232.44 546.2 232.44z"/>
<path class="gmt-2 dst" id="Asia/Jerusalem" d="M545.32 238.06L543.74 243.09 545.79 249.12 548.14 240.31 548.14 238.42 545.32 238.06 545.32 238.06z"/>
<path class="gmt-2 dst" id="Asia/Amman" d="M548.9 240.78L546.44 249.36 546.33 250.67 550.2 250.67 554.53 246.85 554.64 245.4 552.87 243.59 556.04 240.96 555.58 238.52 554.71 238.72 552.07 240.61 548.9 240.78 548.9 240.78z"/>
<path class="gmt-3" id="Europe/Moscow" d="M569.04 173.71L570.22 169.84 562.84 169.26 563.41 161.54 569.35 161.28 568.51 151.09 577.42 150.53 579.77 122 586.49 122.06 588.07 93.1 581.49 91.66 579.98 95.71 570.18 99.25 568.67 96.72 555.85 103.81 555.6 108.62 550.57 109.38 552.08 105.84 552.08 102.3 547.05 100.53 543.78 101.8 546.54 107.12 548.55 110.66 548.55 113.45 544.78 112.69 544.03 111.93 540.26 115.98 542.27 119.52 533.73 119.27 536.49 122.82 535.74 124.34 531.22 124.34 527.95 122.06 527.2 115.73 521.92 113.7 521.92 111.17 532.98 113.45 539.01 113.96 541.52 110.16 539.26 106.11 523.18 99.78 517.63 101.16 515.73 102.79 516.32 106.54 518.68 106.95 518.13 112.85 525.41 129.95 520.15 138.29 519.79 140.17 522.46 142.05 520.05 143.64 518.45 143.67 518.75 151.02 520.96 154.15 520.99 157.19 523.82 157.45 528.15 159.1 532.73 165.4 532.78 167.06 531.29 169.61 534.71 169.42 538.04 170.38 542.54 176.75 553.62 177.76 553.14 185.34 549.32 188.61 550.11 189.89 546.34 193.94 545.34 197.74 547.6 201.03 554.89 203.56 557.91 201.79 577.26 209.13 578.01 207.1 573.99 203.3 573.99 198.49 571.48 197.73 571.98 193.68 576 188.87 568.79 183.47 569.04 173.71z"/>
<path class="gmt-3" id="Europe/Minsk" d="M510.66 166.29L512.16 168.76 511.56 170.73 511.66 172.29 512.21 174.16 515.31 172.4 519.16 172.5 521.86 173.61 528.71 173.61 530.71 168.82 531.91 167.01 531.91 165.8 527.61 159.75 523.81 158.24 520.71 157.89 518.01 158.75 518.11 161.47 514.36 166.21 510.66 166.29 510.66 166.29z"/>
<path class="gmt-3" id="Europe/Simferopol" d="M539.38 193.07L536.27 193.01 535.16 195.97 537.66 199.87 540.32 199.87 541.69 197.27 544.51 196.7 544.59 194.59 539.38 193.07z"/>
<path class="gmt-3" id="Europe/Istanbul" d="M558.7 209.19L556.47 211.55 548.27 211.31 543.35 208.36 538.55 208.24 533.04 212.14 527.88 212.38 527.41 215.33 521.55 215.33 519.21 217.46 519.21 218.64 520.62 219.82 520.62 221.12 520.03 222.66 520.62 223.96 522.5 223.02 524.38 225.03 523.91 226.45 523.21 227.4 524.26 228.58 529.42 229.64 533.05 228.1 533.05 225.86 534.81 226.21 539.03 228.69 543.6 227.98 545.59 226.09 546.88 226.56 546.88 228.69 548.64 228.69 550.16 225.74 563.52 224.32 569.35 223.61 567.81 221.59 567.78 218.86 568.95 217.46 564.69 214.04 564.92 211.09 562.58 211.09 558.7 209.19 558.7 209.19zM523.02 209.7L522.86 213.25 525.96 212.3 527.38 211.35 526.96 209.81 525.49 208.64 523.02 209.7 523.02 209.7z"/>
<path class="gmt-3" id="Africa/Juba" d="M549.08 310.34L546.14 305.4 545.83 301.8 545.13 301.94 544.93 303.04 541.08 308.68 538 307.21 534.93 309.78 528.58 309.42 525.77 307.17 521.73 309.23 521.58 310.61 520.35 311.35 532.67 324.03 539.38 324.41 540.36 325.9 549.96 326.07 550.04 323.92 550.86 322.43 554.06 322.02 550.07 316.23 547.13 316.23 546.38 312.12 548.74 311.08 549.08 310.34z"/>
<path class="gmt-3" id="Africa/Asmara" d="M556.71 294.7L556.46 288.81 560.42 284.19 561.49 285.01 563.44 291.53 572.8 298.5 571.1 300.59 564.25 294.7 556.71 294.7 556.71 294.7z"/>
<path class="gmt-3" id="Africa/Djibouti" d="M571.48 301.54L570.91 304.9 574.87 304.84 574.93 299.9 573.48 299.01 571.48 301.54 571.48 301.54z"/>
<path class="gmt-3" id="Africa/Addis_Ababa" d="M549.49 311.76L556.77 295.56 564 295.6 570.41 301.17 569.96 305.76 574.93 305.76 575.44 308.52 583.48 313.33 588.44 313.58 579.01 323.71 566.06 327.7 562.85 327.7 557.13 322.82 554.87 321.87 550.49 315.42 547.6 315.46 547.26 312.5 549.49 311.76 549.49 311.76z"/>
<path class="gmt-3" id="Africa/Mogadishu" d="M596.34 302.37L597.89 303.3 597.72 307.18 593.69 318.66 571.88 342.02 569.35 340.28 569.18 330.42 572.46 326.65 579.42 324.5 589.68 312.92 583.84 312.51 576.01 307.7 575.74 305.04 575.74 305.04 579.82 307.82 581.03 307.76z"/>
<path class="gmt-3" id="Africa/Kampala" d="M538.3 339.09L541.33 341.93 543.23 340.72 548.37 339.88 549.25 339.97 549.58 338.02 552.48 331.92 550.04 326.84 542.13 326.89 542.08 328.98 543.14 330 542.98 332.09 538.3 339.09 538.3 339.09z"/>
<path class="gmt-3" id="Africa/Nairobi" d="M550.83 326.52L553.49 331.71 550.3 338.4 549.88 340.43 565.81 350.28 570.75 342.52 568.25 340.49 568.2 330.27 571.33 326.85 566.34 328.51 562.57 328.56 556.67 323.58 554.81 322.78 551.36 323.1 550.75 324.12 550.83 326.52 550.83 326.52z"/>
<path class="gmt-3" id="Africa/Dar_es_Salaam" d="M568.04 369.28L564.11 361.68 563.9 354.4 565.17 350.92 548.55 340.48 543.34 341.34 541.53 342.68 541.37 345.73 540.2 349.96 538.98 351.41 537.23 351.57 540.58 363.18 546.05 365.75 550.62 366.26 551.79 371.36 568.04 369.28z"/>
<path class="gmt-3" id="Indian/Antananarivo" d="M592.3 372.92l-2.13 5.06 -3.65 6.44 -6.39 0.46 -2.74 3.22 0.46 9.82 -3.96 4.6 0.46 7.82 3.35 3.83 3.96-0.46 3.96-2.92 -0.91-4.6 9.13-15.8 -1.83-1.99 1.83-3.83 1.98 0.61 0.61-1.53 -1.83-7.82 -1.07-3.22L592.3 372.92 592.3 372.92z"/>
<path class="gmt-3" id="Asia/Baghdad" d="M564.31 225.03L562.75 232.74 556.29 238.12 556.7 240.66 563.01 241.09 573.06 249.27 578.68 249.11 578.83 247.22 580.89 245.01 583.77 246.64 584.15 246.28 578.58 238.87 575.94 238.71 572.43 234.2 573.13 230.88 574.2 230.74 574.57 229.27 569.79 224.24 564.31 225.03 564.31 225.03z"/>
<path class="gmt-3" id="Asia/Kuwait" d="M583.29 247.17L581.04 245.95 579.48 247.52 579.65 250.66 583.28 252.05 583.29 247.17 583.29 247.17z"/>
<path class="gmt-3" id="Asia/Riyadh" d="M584 253.24L591.01 263.01 593.27 264.81 594.28 269.19 605.07 270.04 606.29 270.68 605.08 276.08 597.99 280.26 587.62 283.4 582.09 288.8 575.52 284.97 571.54 288.45 566 279.4 562.2 277.66 560.82 275.57 560.82 271.04 546.99 254.32 546.47 251.36 550.45 251.36 555.29 247.18 555.46 245.09 554.08 243.7 556.85 241.44 562.73 241.79 572.76 250.15 578.68 249.88 579.06 251.34 584 253.24 584 253.24z"/>
<path class="gmt-3" id="Asia/Qatar" d="M592.63 259.02L592.11 263.03 593.65 264.2 595.05 264.07 595.57 259.02 594.36 258.15 592.63 259.02 592.63 259.02z"/>
<path class="gmt-3" id="Asia/Aden" d="M571.99 289.23L573.43 293.51 573.43 297.69 576.89 300.83 601.27 290.9 601.5 288.17 597.59 281.15 587.78 284.28 582.15 289.82 575.62 285.96 571.99 289.23 571.99 289.23z"/>
<path class="gmt-3_30 dst" id="Asia/Tehran" d="M569.65 217.95L568.43 219.22 568.55 221.23 570.07 223.36 575.46 229.26 574.64 231.62 573.7 231.62 573.23 233.98 576.28 237.88 579.09 238.12 584.72 245.91 587.88 246.15 590.34 247.92 590.46 251.46 600.19 257.13 603.82 257.13 606.05 255.24 608.86 255.12 610.5 258.9 621.01 260.36 621.32 256.5 624.8 255.24 624.96 253.86 622.19 250.08 616.02 245.12 619.26 242.17 619.03 240.87 614.97 240.24 613.25 226.54 613.05 223.39 602.04 219.18 597.16 220.28 594.43 223.63 592.01 223.47 591.31 224.06 585.92 223.71 579.12 218.75 576.59 215.98 575.43 216.26 573.34 218.65 569.65 217.95 569.65 217.95z"/>
<path class="gmt-4" id="Europe/Samara" d="M563.41 161.54L569.41 161.33 569.85 169.81 562.84 169.26 563.41 161.54z"/>
<path class="gmt-4" id="Asia/Tbilisi" d="M555.46 204.16l3.27 4.27 4.08 1.88 2.51-0.01 4.31-1.17 1.08-1.69 -12.75-4.77L555.46 204.16 555.46 204.16z"/>
<path class="gmt-4" id="Asia/Baku" d="M571.41 207.72L570.4 209.44 575.11 215.62 576.75 215.09 579.45 217.92 580.62 212.96 583.55 213.43 583.43 212.01 578.61 207.79 577.69 210.27 571.41 207.72 571.41 207.72z"/>
<path class="gmt-4" id="Asia/Yerevan" d="M569.72 209.89l4.8 6.26 -1.41 1.65 -3.4-0.59 -4.22-3.78 0.23-2.48L569.72 209.89 569.72 209.89z"/>
<path class="gmt-4" id="Asia/Dubai" d="M594.01 264.94L594.88 268.42 604.74 269.29 605.43 262.15 607.33 261.11 607.85 258.5 604.74 259.37 601.28 264.6 594.01 264.94 594.01 264.94z"/>
<path class="gmt-4" id="Asia/Muscat" d="M598.38 280.84l7.39-4.26 1.31-6.25 -1.62-0.93 0.67-6.7 1.41-0.82 1.51 2.37 8.99 4.7v2.61l-10.89 16.03 -5.01 0.17L598.38 280.84 598.38 280.84z"/>
<path class="gmt-4_30" id="Asia/Kabul" d="M614.12 227.05l1.59 12.46 3.96 0.87 0.37 2.24 -2.84 2.37 5.29 4.27 10.28-3.7 0.82-4.38 6.47-4.04 2.48-9.36 1.85-1.99 -1.92-3.34 6.26-3.87 -0.8-1.12 -2.89 0.18 -0.26 2.66 -3.88-0.04 -0.07-3.55 -1.25-1.49 -2.1 1.91 0.06 1.75 -3.17 1.2 -5.85-0.37 -7.6 7.96L614.12 227.05 614.12 227.05z"/>
<path class="gmt-5" id="Asia/Yekaterinburg" d="M625.44 144.24L633.23 144.58 628.91 118.94 646.33 118.45 621.25 74.93 613.91 71.66 610.39 74.7 605.11 68.62 604.1 70.9 609.88 89.13 611.39 89.64 615.41 87.61 617.42 89.13 617.42 92.42 613.65 90.9 611.39 92.67 612.9 95.96 611.64 104.57 603.85 105.33 603.35 102.54 607.87 99.75 608.88 92.15 603.85 85.57 602.09 74.18 594.05 72.91 593.3 76.96 594.81 78.99 591.54 81.78 592.8 89.38 597.57 91.41 598.58 96.98 593.8 93.94 588.07 93.1 586.33 122.05 579.77 122 577.42 150.53 568.51 151.09 569.73 169.8 570.98 174.85 577 170.89 586.05 171.4 587.56 174.19 596.86 174.7 603.65 170.9 600.13 167.1 600.88 160.01 618.47 151.4 625.5 154 625.44 144.24z"/>
<path class="gmt-5" id="Asia/Oral" d="M599.83 192.74L601.16 187.09 607.44 186.84 604.97 171.15 597.27 175.5 587.28 175.28 585.19 172.21 577.36 171.78 569.94 176.55 569.78 183.07 576.69 188.62 576.69 188.62 580.79 186.87 585.37 186.71 585.69 193.71 583.01 193.71 580.96 197.05 583.64 201.5 587.59 203.73 587.95 206.28 589.4 205.8 590.74 204.21 592.95 204.69 594.06 206.92 596.9 206.92 596.9 204.06 595.16 198.97 594.37 194.84 599.83 192.74z"/>
<path class="gmt-5" id="Asia/Tashkent" d="M628.92 219.06l3.08 0.16v-5.27l-2.92-1.7 4.92-6.2h2l2 2.33 5.23-2.01 -7.23-2.48 -0.28-1.5 -1.72 0.42 -1.69 2.94 -7.29-0.24 -5.35-7.57 -9.4 0.93 -4.48-4.44 -6.2-1.05 -4.5 1.83 2.61 8.68 0.03 2.92 1.9 0.04 2.33-4.44 6.2 0.08 0.92 3.41 13.29 8.82 5.14 1.18L628.92 219.06 628.92 219.06z"/>
<path class="gmt-5" id="Asia/Ashgabat" d="M593.85 207.59l-0.62 2.63h-4.15v3.56l4.46 2.94 -1.38 4.03v1.86l1.85 0.31 2.46-3.25 5.54-1.24 11.84 4.49 0.15 3.25 6.61 0.62 7.38-7.75 -0.92-2.48 -4.92-1.08 -13.84-8.99 -0.62-3.25h-5.23l-2.31 4.34h-2.31L593.85 207.59 593.85 207.59z"/>
<path class="gmt-5" id="Asia/Dushanbe" d="M630.19 211.84l4.11-5.1h1.55l0.54 1.14 -1.9 1.38v1.14l1.25 0.9 6.01 0.36 1.96-0.84 0.89 0.18 0.6 1.92 3.57 0.36 1.79 3.78 -0.54 1.14 -0.71 0.06 -0.71-1.44 -1.55-0.12 -2.68 0.36 -0.18 2.52 -2.68-0.18 0.12-3.18 -1.96-1.92 -2.98 2.46 0.06 1.62 -2.62 0.9h-1.55l0.12-5.58L630.19 211.84 630.19 211.84z"/>
<path class="gmt-5" id="Asia/Karachi" d="M623.13 249.84l2.6 3.86 -0.25 1.99 -3.46 1.37 -0.25 3.24h3.96l1.36-1.12h7.54l6.8 5.98 0.87-2.87h5.07l0.12-3.61 -5.19-4.98 1.11-2.74 5.32-0.37 7.17-14.95 -3.96-3.11 -1.48-5.23 9.64-0.87 -5.69-8.1 -3.03-0.82 -1.24 1.5 -0.93 0.07 -5.69 3.61 1.86 3.12 -2.1 2.24 -2.6 9.59 -6.43 4.11 -0.87 4.49L623.13 249.84 623.13 249.84z"/>
<path class="gmt-5_30" id="Asia/Kolkata" d="M670.98 313.01l4.58-2.24 2.72-9.84 -0.12-12.08 15.58-16.82v-3.99l3.21-1.25 -0.12-4.61 -3.46-6.73 1.98-3.61 4.33 3.99 5.56 0.25v2.24l-1.73 1.87 0.37 1 2.97 0.12 0.62 3.36h0.87l2.23-3.99 1.11-10.46 3.71-2.62 0.12-3.61 -1.48-2.87 -2.35-0.12 -9.2 6.08 0.58 3.91 -6.46-0.02 -2.28-2.79 -1.24 0.16 0.42 3.88 -13.97-1 -8.66-3.86 -0.46-4.75 -5.77-3.58 -0.07-7.37 -3.96-4.53 -9.1 0.87 0.99 3.96 4.46 3.61 -7.71 15.78 -5.16 0.39 -0.85 1.9 5.08 4.7 -0.25 4.75 -5.19-0.08 -0.56 2.36 4.31-0.19 0.12 1.87 -3.09 1.62 1.98 3.74 3.83 1.25 2.35-1.74 1.11-3.11 1.36-0.62 1.61 1.62 -0.49 3.99 -1.11 1.87 0.25 3.24L670.98 313.01 670.98 313.01z"/>
<path class="gmt-5_30" id="Asia/Colombo" d="M680.54 308.05l0.25 2.72 0.25 1.98 -1.47 0.25 0.74 4.45 2.21 1.24 3.43-1.98 -0.98-4.69 0.25-1.73 -3.19-2.96L680.54 308.05 680.54 308.05z"/>
<path class="gmt-5_45" id="Asia/Kathmandu" d="M671.19 242.56l0.46 4.27 8.08 3.66 12.95 0.96 -0.49-3.13 -8.65-2.38 -7.34-4.37L671.19 242.56 671.19 242.56z"/>
<path class="gmt-6" id="Asia/Omsk" d="M625.44 144.24L639.22 144.6 643.73 161.13 625.39 153.96 625.44 144.24z"/>
<path class="gmt-6" id="Asia/Almaty" d="M604.97 171.15L607.44 186.84 601.17 187.06 599.83 192.74 606.21 193.72 610.47 198.01 620.1 197.06 625.47 204.69 631.78 205.01 633.52 202.15 635.73 201.67 636.05 198.49 639.36 198.33 641.1 200.4 642.84 196.27 657.83 198.34 660.35 195 656.09 189.75 661.77 177.35 666.35 177.67 669.51 170.04 663.2 169.4 659.57 165.9 649.57 167.06 642.69 161.99 618.38 152.39 601.49 160.66 601.02 166.54 604.97 171.15z"/>
<path class="gmt-6" id="Asia/Bishkek" d="M636.81 199.21l-0.31 2.53 0.25 1.56 8.7 2.92 -7.64 3.08 -0.87-0.72 -1.65 1.06 0.08 0.58 0.88 0.4 5.36 0.14 2.72-0.82 3.49-4.4 4.37 0.76 5.27-7.3 -14.1-1.92 -1.95 4.73 -2.46-2.64L636.81 199.21 636.81 199.21z"/>
<path class="gmt-6" id="Asia/Thimphu" d="M695.4 248.08l1.55 2.12 5.24 0.04 -0.53-2.9L695.4 248.08 695.4 248.08z"/>
<path class="gmt-6" id="Asia/Dhaka" d="M695.57 253.11L694.26 255.48 697.66 261.94 697.76 266.98 698.38 268.33 702.37 268.4 704.63 266.23 706.27 267.22 706.6 270.29 707.91 269.47 707.99 265.55 706.89 265.42 706.2 262.09 703.42 261.99 702.73 260.14 704.43 257.87 704.46 256.75 699.52 256.75 695.57 253.11 695.57 253.11z"/>
<path class="gmt-6_30" id="Asia/Yangon" d="M729.44 303.65L726.67 299.21 728.68 296.39 726.78 292.9 724.99 292.56 724.65 286.7 721.97 281.51 721.19 282.75 719.4 285.79 717.16 286.13 716.04 284.66 715.48 280.71 713.8 277.55 706.96 271.1 708.64 269.99 708.95 265.32 711.45 261.12 712.53 250.67 716.15 248.2 716.27 244.39 718.44 245.11 721.86 250.06 719.32 255.5 721.03 259.77 725.26 261.43 726.03 266.08 731.71 266.96 730.14 269.67 722.98 272.49 722.2 277.11 727.46 283.87 727.68 287.48 726.45 288.72 726.56 289.85 730.48 295.6 730.59 301.57 729.44 303.65 729.44 303.65z"/>
<path class="gmt-7" id="Asia/Krasnoyarsk" d="M695.32 153.96L693.51 143.25 685.1 141.44 691.64 92.39 676.97 45.61 670.69 51.43 670.44 54.97 666.42 55.22 665.92 51.17 678.74 40.03 678.74 32.43 670.45 30.15 659.64 33.69 655.12 29.13 653.11 29.13 650.6 34.19 652.61 36.47 638.28 44.32 625.97 53.69 618.43 64.07 618.43 68.37 626.47 71.66 620.69 74.68 646.17 118.46 628.91 118.94 633.12 144.57 639.22 144.6 643.81 161.43 649.84 166.11 659.89 165.1 663.41 168.64 672.96 169.65 679.24 161.04 687.28 164.59 691.55 165.35 695.82 161.55 692.05 159.02 695.32 153.96z"/>
<path class="gmt-7" id="Asia/Hovd" d="M687.1 165.8L688.06 185.25 684.92 185.07 678.52 174.22 675.41 174.02 673.8 170.17 673.8 170.17 679.62 162.45 687.1 165.8z"/>
<path class="gmt-7" id="Asia/Bangkok" d="M730.03 270.47l3.24 4.17v5.07l1.12 0.56 5.15-2.48 1.01 0.34 6.15 7.1 -0.22 4.85 -2.01-0.34 -1.79-1.13 -1.34 0.11 -2.35 3.94 0.45 2.14 1.9 1.01 -0.11 2.37 -1.34 0.68 -4.59-3.16v-2.82l-1.9-0.11 -0.78 1.24 -0.4 12.62 2.97 5.42 5.26 5.07 -0.22 1.47 -2.8-0.11 -2.57-3.83h-2.69l-3.36-2.71 -1.01-2.82 1.45-2.37 0.5-2.14 1.58-2.8 -0.07-6.44 -3.86-5.58 -0.16-0.68 1.25-1.26 -0.29-4.43 -5.14-6.51 0.6-3.75L730.03 270.47 730.03 270.47z"/>
<path class="gmt-7" id="Asia/Vientiane" d="M735.47 262.93l-2.42 1.23 -2.01 5.86 3.36 4.28 -0.56 4.73 0.56 0.23 5.59-2.71 7.5 8.38 -0.18 5.28 1.63 0.88 4.03-3.27 -0.33-2.59 -11.63-11.05 0.11-1.69 1.45-1.01 -1.01-2.82 -4.81-0.79L735.47 262.93 735.47 262.93z"/>
<path class="gmt-7" id="Asia/Ho_Chi_Minh" d="M745.06 304.45L746.25 306.32 746.47 308.46 749.6 308.8 753.4 303.73 756.98 302.72 758.88 297.54 757.99 289.2 754.3 284.13 750.41 281.02 745.46 272.52 749.01 266.58 743.93 260.75 739.86 260.57 736.2 262.54 737.29 267.25 742.17 268.11 743.48 271.74 741.76 272.86 741.87 273.76 753.32 284.96 753.77 288.25 753.08 298.65 745.06 304.45 745.06 304.45z"/>
<path class="gmt-7" id="Asia/Phnom_Penh" d="M740.48 299.47L744.57 303.84 752.18 298.2 752.85 289.3 748.92 292.01 746.88 290.87 744.11 290.5 742.56 289.41 741.81 289.45 739.78 292.78 740.11 294.32 742.17 295.47 741.92 298.6 740.48 299.47 740.48 299.47z"/>
<path class="gmt-7" id="Asia/Jakarta" d="M722.48 317.57L722.2 319.85 728.99 331.26 730.97 331.26 745.12 354.93 750.78 355.5 753.61 347.23 749.08 344.38 748.23 339.82 722.48 317.57 722.48 317.57zM753.17 358.32L750.42 360.2 751.01 361.78 759.76 363.76 764.18 364.55 766.05 366.53 771.06 366.93 773.42 368.91 775.58 368.41 777.55 366.63 773.91 364.95 770.77 362.28 762.61 360.3 753.17 358.32 753.17 358.32zM776.64 349.52L778.95 345.81 779.37 333.22 766.84 337.31 763.09 332.91 761.27 333.41 764.67 346.53 769.76 347.1 776.64 349.52z"/>
<path class="gmt-8" id="Asia/Irkutsk" d="M715.51 159.44L728.38 118.7 701.6 109.69 691.52 92 685.1 141.44 693.48 143.24 695.2 154.14 704.62 157 706.63 161.05 710.65 161.3 713.16 159.53 715.51 159.44z"/>
<path class="gmt-8" id="Asia/Ulaanbaatar" d="M688.06 185.29L687.1 165.8 691.36 166.95 697.18 161.61 693.23 158.7 695.83 155.03 703.59 157.77 706.28 162.18 711.14 162.31 713.68 160.42 718.91 160.21 720.05 162.15 728.74 162.59 734.24 156.98 741.85 157.78 741.41 165.42 744.74 166.18 748.83 164.32 753.16 166.46 753.06 167.54 749.92 167.63 746.65 174.49 744.11 174.74 734.23 187.65 724.14 192.1 717.83 192.59 712.59 189.21 705.89 192.79 699.29 190.74 697.42 185.95 688.06 185.29z"/>
<path class="gmt-8" id="Asia/Shanghai" d="M670.4 170.07L666.94 178.77 662.17 178.52 657.14 189.53 661.41 194.97 652.61 207.12 648.09 206.36 645.07 210.16 645.82 212.44 649.34 212.69 651.1 216.74 654.62 217.5 665.43 231.43 665.43 238.52 670.71 241.81 676.49 240.8 683.78 245.1 692.58 247.63 696.85 247.12 701.63 246.61 711.68 240.03 714.95 240.54 716.2 243.51 718.97 244.34 722.74 249.91 720.23 255.48 721.74 259.28 726.01 260.8 726.76 265.36 731.79 265.87 732.54 263.59 739.83 259.79 744.35 260.04 749.63 265.86 753.15 264.34 755.41 264.59 756.42 267.38 758.18 267.63 760.69 264.09 770.74 260.29 779.79 249.4 782.81 239.02 782.56 232.18 778.79 231.42 781.05 228.89 780.55 224.84 771 215.22 771 210.41 773.76 206.87 776.52 205.6 776.77 202.81 769.73 202.81 768.47 206.61 765.2 205.85 761.18 201.55 763.69 194.97 767.21 191.17 770.48 191.42 769.98 197.24 771.74 198.76 776.01 194.46 777.52 194.21 777.02 190.92 781.04 186.11 784.06 186.36 785.82 180.79 787.88 179.7 788.09 176.23 786.09 174.13 785.92 168.65 789.77 168.4 789.52 154.27 786.82 155.89 785.81 159.51 781.3 159.5 768.23 152.15 758.79 140.77 749.21 140.67 746.77 142.79 749.87 149.89 748.79 156.55 744.93 158.15 742.76 157.98 742.6 164.57 744.86 165.08 748.88 163.31 754.16 165.84 754.16 168.37 750.39 168.62 747.37 175.2 744.61 175.45 734.81 188.36 724.51 192.92 717.47 193.43 712.7 190.14 705.91 193.69 698.62 191.41 696.86 186.6 684.55 185.84 678.02 175.21 675.26 175.21 673.04 170.28 670.4 170.07zM759.83 270.17L757.44 270.84 755.72 272.96 757.15 275.75 759.25 275.94 761.64 273.82 762.21 271.03 759.83 270.17 759.83 270.17z"/>
<path class="gmt-8" id="Asia/Taipei" d="M787.46 248.31L783.92 251.01 783.73 256.21 786.79 259.77 787.55 259.1 787.46 248.31 787.46 248.31z"/>
<path class="gmt-8" id="Asia/Kuala_Lumpur" d="M764.14 332.92L767.16 336.41 778.74 332.4 781.03 323.56 786.19 323.19 790.91 319.77 784.79 315.31 783.39 312.86 780.37 318.43 781.48 321.63 779.64 324.3 776.17 323.41 767.76 329.58 767.98 333.15 764.14 332.92 764.14 332.92zM732.71 315.45L734.72 319.96 735.17 325.82 737.86 329.99 744.35 333.93 746.81 334.16 746.36 330.1 744.23 324.92 741.11 318.29 740.85 319.45 737.09 319.28 734.39 315.4 732.71 315.45 732.71 315.45z"/>
<path class="gmt-8" id="Asia/Brunei" d="M779.77 319.25L776.89 322.74 779.25 323.48 780.58 321.62 779.77 319.25 779.77 319.25z"/>
<path class="gmt-8" id="Asia/Manila" d="M789.37 297.53L788.51 299.17 788.03 301.19 783.25 307.26 783.54 308.51 785.55 308.22 791.76 301.28 789.37 297.53 789.37 297.53zM797.11 295.22L797.01 300.23 798.83 302.06 799.5 305.62 801.32 306.01 802.18 303.79 800.75 302.73 800.37 296.47 797.11 295.22 797.11 295.22zM802.28 297.15L802.18 301.58 803.23 303.31 805.05 301.19 804.57 297.34 802.28 297.15 802.28 297.15zM803.42 293.29L805.24 295.7 806.1 298.01 807.73 298.01 807.44 294.06 805.62 292.81 803.42 293.29 803.42 293.29zM806.96 302.35L807.34 305.24 803.99 307.94 801.22 308.23 798.26 311.41 798.36 312.86 801.13 311.99 803.04 310.74 804.67 314.88 807.54 316.9 808.69 316.51 809.74 315.26 807.45 312.95 808.79 311.89 810.32 313.14 811.37 311.41 810.32 309.29 810.13 304.57 806.96 302.35 806.96 302.35zM791.38 272.97L788.8 274.8 788.51 280.58 792.53 288.38 793.87 289.44 795.59 288.28 798.55 288.76 799.12 291.36 801.32 291.55 802.37 290.11 801.03 288.28 799.4 286.74 795.96 286.36 794.14 283.37 796.24 280.19 796.43 277.4 795 273.84 791.38 272.97 791.38 272.97z"/>
<path class="gmt-8" id="Asia/Makassar" d="M789.53 349.11L791.79 351.88 790.32 356.04 790.32 356.83 793.66 356.83 794.84 346.43 795.92 346.73 797.88 356.23 799.75 356.73 801.52 352.67 799.75 346.53 798.28 343.86 802.9 340.49 801.82 339 797.4 341.87 796.22 341.87 794.06 338.7 794.75 337.31 798.39 335.53 803.89 337.21 805.56 337.11 809.69 333.25 808.02 331.57 804.19 334.54 801.73 334.54 798 332.76 795.35 332.86 792.4 337.61 790.53 345.83 789.53 349.11 789.53 349.11zM779.37 333.08L779.03 345.7 776.55 349.67 776.55 352.24 779.66 351.67 784.19 345.4 784.19 340.27 786.74 335.14 789.57 335.71 786.17 328.58 785.65 323.99 781.68 324.4 781.68 324.4 779.37 333.08z"/>
<path class="gmt-8" id="Australia/Perth" d="M806.13 451.63L812.57 392.7 810.5 393.27 810.15 387.55 791.35 398.99 791.7 403.28 788.86 407.21 781.76 407.21 766.5 413.64 761.17 427.98 761.17 427.98 760.82 453.36 756.92 456.22 756.57 458.72 761.89 462.29 775.02 459.79 781.76 459.79 784.24 456.21 799.14 453.35 806.13 451.63z"/>
<path class="gmt-8_30" id="Asia/Pyongyang" d="M778.28 194.27L780.12 195.04 780.68 201.48 784.33 201.69 787.77 197.66 786.58 196.6 786.72 192.28 789.88 188.46 788.27 185.56 789.32 184.36 789.9 181.36 788.07 180.53 786.51 181.32 784.58 187.18 781.46 186.91 777.85 191.17 778.28 194.27 778.28 194.27z"/>
<path class="gmt-8_45" id="Australia/Eucla" d="M799.05 453.37L806.04 455.44 806.13 451.51 799.05 453.37z"/>
<path class="gmt-9" id="Asia/Chita" d="M779.06 157.14L776.76 135.67 762.32 129.16 769.43 76.6 755.01 83.33 739.42 40.78 725.71 42.31 726.72 47.37 712.14 44.84 715.66 38.26 700.83 37.5 702.09 44.34 697.32 46.62 693.3 42.82 677.12 46.08 691.49 91.91 701.6 109.69 728.22 118.65 715.76 158.65 719.95 159.28 720.7 161.05 728.49 161.56 733.77 155.99 744.58 157.26 747.85 155.99 748.85 149.91 745.58 142.57 748.85 139.78 759.15 139.78 768.95 151.43 779.06 157.14z"/>
<path class="gmt-9" id="Asia/Seoul" d="M788.34 198.2L794.52 203.24 795.57 208.12 795.36 210.74 792.34 214.14 789.74 214.28 786.79 207.91 785.67 204.87 786.86 203.95 786.58 202.68 785.11 202.02 788.34 198.2 788.34 198.2z"/>
<path class="gmt-9" id="Asia/Tokyo" d="M803.23 216.42L801.6 218.06 802.27 220.37 803.7 220.47 804.66 225.48 805.81 226.73 807.82 224.9 808.68 221.62 806.19 218.06 803.23 216.42 803.23 216.42zM812.03 213.15L809.26 215.75 809.16 218.74 809.83 219.61 813.56 216.43 813.27 213.25 812.03 213.15 812.03 213.15zM808.2 206.98L803.32 212.57 804.18 213.92 806.57 214.21 811.06 210.74 814.22 210.16 817.09 213.53 819.29 212.76 820.15 209.48 824.26 209.38 828.28 204.56 826.18 196.56 825.22 192.32 827.32 190.59 822.54 183.37 821.3 183.47 818.72 186.36 818.72 188.77 819.87 190.12 820.25 196.48 817.29 200.14 815.57 199.08 814.23 202.07 813.94 204.86 814.99 206.5 814.32 207.75 812.12 205.92 810.59 205.92 809.25 206.69 808.2 206.98 808.2 206.98zM816.43 163.44L814.9 164.79 815.67 167.68 817.01 169.03 816.91 173.46 815.19 174.13 813.85 177.12 817.77 182.51 820.35 181.64 820.83 180.29 818.06 177.79 819.78 175.57 821.6 175.86 823.03 177.4 823.13 174.22 827.05 171.04 829.25 170.46 827.43 167.38 826.57 166.03 825.14 166.99 823.9 168.53 821.22 167.95 818.45 166.12 816.43 163.44 816.43 163.44z"/>
<path class="gmt-9" id="Asia/Jayapura" d="M814.19 330.5L812.32 335.05 815.27 338.91 816.25 338.91 817.53 336.34 818.22 335.45 816.94 334.06 815.07 333.37 814.19 330.5 814.19 330.5zM819.99 345.45L815.96 346.34 814.78 347.63 815.76 349.31 818.41 348.32 820.08 347.33 822.54 349.31 823.62 348.42 821.66 346.04 819.99 345.45 819.99 345.45zM831.93 339.34L827.76 339.81 825.08 341.77 826.19 344.01 830.73 344.85 830.73 345.69 827.86 348.02 829.25 352.87 830.64 352.96 831.84 348.2 834.06 348.2 834.99 352.86 845.82 361.82 846.1 368.82 849.8 372.83 851.47 372.74 851.84 348.02 845.55 343.64 839.62 347.65 837.49 348.96 833.97 346.72 833.88 339.63 831.93 339.34 831.93 339.34z"/>
<path class="gmt-9_30" id="Australia/Darwin" d="M828.99 440.12L839.21 402.91 832.49 396.14 837.46 382.91 828.24 381.12 817.95 383.98 815.11 392.2 812.52 392.72 807.25 437.66 828.99 440.12z"/>
<path class="gmt-9_30 dst" id="Australia/Adelaide" d="M821.82 484.15L834.52 440.42 807.27 437.52 805.82 455.37 809.78 456.57 809.07 460.86 810.49 465.15 818.65 463.72 819 465.86 813.68 469.79 815.45 471.22 819.35 469.79 818.29 481.59 821.82 484.15z"/>
<path class="gmt-10" id="Asia/Vladivostok" d="M794.02 98.06L783.64 77.38 768.47 72.77 755.17 28.12 741.29 30.92 739.28 35.98 741.79 36.74 739.73 41.62 755.01 83.33 769.33 76.65 762.32 129.16 776.87 136.7 778.34 156.73 785.28 158.52 785.78 155.48 790.3 152.69 790.8 169.15 786.78 169.4 786.78 173.45 789.04 176.24 788.62 179.86 790.29 180.55 791.3 178.02 792.81 178.53 793.81 179.54 798.33 178.53 802.85 165.36 803.35 148.9 797.57 135.73 790.28 126.87 786.76 127.38 786.76 130.17 778.22 126.88 781.49 119.79 784.25 101.05 794.02 98.06zM798.64 122.59L798.55 128.76 806.29 140.71 809.06 151.11 813.94 160.36 815.85 161.03 817.48 159.68 818.24 157.46 811.26 149.85 811.45 145.9 812.98 145.23 813.36 142.92 799.69 123.56 798.64 122.59 798.64 122.59z"/>
<path class="gmt-10" id="Pacific/Port_Moresby" d="M852.76 348.29L852.39 372.73 855.91 372.54 860.54 367.13 864.43 367.32 866.93 369.56 867.76 376.46 875.72 380.66 877.76 379.91 877.76 377.39 871.37 372.07 868.22 364.79 870.72 363.58 868.87 359.57 865.17 359.48 864.24 355.19 854.43 348.57 852.76 348.29 852.76 348.29z"/>
<path class="gmt-10" id="Australia/Brisbane" d="M831.98 449.16L869.03 450.48 871.16 436.9 865.84 430.11 867.97 428.68 863.71 415.45 859.1 412.23 859.81 394.36 855.55 391.14 854.49 381.13 852.36 381.13 845.26 404.72 841.36 405.08 839.21 402.91 829.02 439.98 834.52 440.42 831.98 449.16z"/>
<path class="gmt-10 dst" id="Australia/Sydney" d="M868.95 450.47L831.98 449.17 821.82 484.15 825.74 487.31 830 485.88 832.13 488.02 844.55 486.23 856.26 467.28 860.52 466.21 868.95 450.47zM825.74 496.26L823.97 503.41 824.32 508.41 829.64 508.05 835.67 498.76 825.74 496.26 825.74 496.26z"/>
<path class="gmt-11" id="Asia/Magadan" d="M825.51 67.36L824.53 55.97 799.45 46.17 798.86 30.39 794.31 32.18 791.55 26.36 780.49 26.36 775.46 31.68 755.17 28.12 768.47 72.77 783.92 77.93 793.03 98.36 801.34 93.97 807.37 93.97 805.86 96 807.37 98.53 812.65 92.96 815.67 93.21 815.17 89.92 810.39 88.91 813.66 77.01 817.97 72.93 817.97 72.93 819.73 79.01 823.25 80.02 826.77 74.45 824.76 70.65 825.51 67.36z"/>
<path class="gmt-12" id="Asia/Anadyr" d="M798.72 30.45L799.45 46.17 823.73 55.66 825.48 67.51 830.79 67.36 829.53 69.89 830.03 79.01 822.49 97.75 823.24 101.8 822.99 108.64 837.06 129.15 839.82 129.91 840.07 113.2 842.83 110.67 839.81 104.09 842.32 101.3 836.79 93.96 833.77 94.21 832.77 82.06 840.56 80.03 841.06 76.48 845.08 75.47 847.34 77.5 850.1 66.36 854.87 58.26 858.64 56.23 861.91 56.48 861.91 52.68 856.63 51.67 849.34 45.59 852.86 41.54 849.84 34.7 852.35 32.17 855.37 36.22 862.91 39.01 871.2 39.77 872.21 36.23 867.94 31.93 872.71 25.35 861.9 21.55 859.14 27.12 855.62 22.56 835.77 15.72 816.92 19.01 814.16 20.53 814.16 22.05 818.18 24.08 817.68 28.89 810.39 25.85 798.72 30.45z"/>
<path class="gmt-12 dst" id="Pacific/Auckland" d="M913.02 481.96L914.08 493.76 912.66 499.12 907.34 503.05 907.69 507.7 907.69 512.7 909.11 514.49 923.66 501.98 923.66 499.12 920.11 499.12 915.14 482.32 913.02 481.96 913.02 481.96zM902.38 507.7L905.22 513.06 897.41 520.57 896.7 524.5 891.38 525.21 882.51 533.43 874.35 529.5 873.64 526.64 888.54 520.21 902.38 507.7 902.38 507.7z"/>
</svg>
